M48
; DRILL file {KiCad 9.0.0} date 2025-08-10T21:35:14+1200
; FORMAT={-:-/ absolute / metric / decimal}
; #@! TF.CreationDate,2025-08-10T21:35:14+12:00
; #@! TF.GenerationSoftware,Kicad,Pcbnew,9.0.0
; #@! TF.FileFunction,Plated,1,4,PTH
FMAT,2
METRIC
; #@! TA.AperFunction,Plated,PTH,ViaDrill
T1C0.300
; #@! TA.AperFunction,Plated,PTH,ComponentDrill
T2C0.800
; #@! TA.AperFunction,Plated,PTH,ComponentDrill
T3C1.000
; #@! TA.AperFunction,Plated,PTH,ComponentDrill
T4C1.100
; #@! TA.AperFunction,Plated,PTH,ComponentDrill
T5C1.170
; #@! TA.AperFunction,Plated,PTH,ComponentDrill
T6C1.194
; #@! TA.AperFunction,Plated,PTH,ComponentDrill
T7C1.300
; #@! TA.AperFunction,Plated,PTH,ComponentDrill
T8C1.500
; #@! TA.AperFunction,Plated,PTH,ComponentDrill
T9C2.200
; #@! TA.AperFunction,Plated,PTH,ComponentDrill
T10C3.200
; #@! TA.AperFunction,Plated,PTH,ComponentDrill
T11C6.100
%
G90
G05
T1
X111.0Y-67.0
X111.0Y-70.0
X111.0Y-73.0
X111.0Y-76.0
X111.0Y-79.0
X111.0Y-82.0
X111.0Y-85.0
X111.0Y-88.0
X111.0Y-91.0
X111.0Y-94.0
X111.0Y-97.0
X111.0Y-100.0
X111.0Y-103.0
X111.0Y-106.0
X111.0Y-109.0
X111.0Y-112.0
X111.0Y-115.0
X111.0Y-118.0
X111.0Y-121.0
X111.0Y-124.0
X111.0Y-127.0
X111.0Y-130.0
X111.0Y-133.0
X111.0Y-150.0
X111.0Y-153.0
X114.0Y-67.0
X114.0Y-70.0
X114.0Y-73.0
X114.0Y-115.0
X114.0Y-118.0
X114.0Y-121.0
X114.0Y-124.0
X114.0Y-127.0
X114.0Y-130.0
X114.0Y-133.0
X114.0Y-150.0
X114.0Y-153.0
X115.0Y-94.0
X115.0Y-97.0
X115.0Y-100.0
X117.0Y-61.0
X117.0Y-64.0
X117.0Y-67.0
X117.0Y-70.0
X117.0Y-115.0
X117.0Y-118.0
X117.0Y-121.0
X117.0Y-130.0
X117.0Y-133.0
X117.0Y-150.0
X117.0Y-153.0
X117.0Y-156.0
X117.0Y-159.0
X119.0Y-94.0
X119.0Y-97.0
X119.0Y-100.0
X120.0Y-61.0
X120.0Y-64.0
X120.0Y-67.0
X120.0Y-70.0
X120.0Y-115.0
X120.0Y-118.0
X120.0Y-121.0
X120.0Y-124.0
X120.0Y-130.0
X120.0Y-133.0
X120.0Y-150.0
X120.0Y-153.0
X120.0Y-156.0
X120.0Y-159.0
X123.0Y-61.0
X123.0Y-64.0
X123.0Y-67.0
X123.0Y-70.0
X123.0Y-73.0
X123.0Y-91.0
X123.0Y-94.0
X123.0Y-115.0
X123.0Y-118.0
X123.0Y-121.0
X123.0Y-124.0
X123.0Y-127.0
X123.0Y-130.0
X123.0Y-133.0
X123.0Y-150.0
X123.0Y-153.0
X123.0Y-156.0
X123.0Y-159.0
X123.6Y-95.8
X125.0Y-111.0
X126.0Y-61.0
X126.0Y-64.0
X126.0Y-67.0
X126.0Y-70.0
X126.0Y-73.0
X126.0Y-76.0
X126.0Y-79.0
X126.0Y-82.0
X126.0Y-85.0
X126.0Y-88.0
X126.0Y-91.0
X126.0Y-94.0
X126.0Y-115.0
X126.0Y-118.0
X126.0Y-121.0
X126.0Y-124.0
X126.0Y-127.0
X126.0Y-130.0
X126.0Y-133.0
X126.0Y-150.0
X126.0Y-153.0
X126.0Y-156.0
X126.0Y-159.0
X127.6Y-120.0
X129.0Y-61.0
X129.0Y-64.0
X129.0Y-67.0
X129.0Y-70.0
X129.0Y-73.0
X129.0Y-76.0
X129.0Y-79.0
X129.0Y-82.0
X129.0Y-85.0
X129.0Y-88.0
X129.0Y-91.0
X129.0Y-97.0
X129.0Y-100.0
X129.0Y-103.0
X129.0Y-106.0
X129.0Y-109.0
X129.0Y-112.0
X129.0Y-115.0
X129.0Y-118.0
X129.0Y-130.0
X129.0Y-133.0
X129.0Y-150.0
X129.0Y-153.0
X129.0Y-156.0
X129.0Y-159.0
X132.0Y-61.0
X132.0Y-76.0
X132.0Y-79.0
X132.0Y-82.0
X132.0Y-85.0
X132.0Y-88.0
X132.0Y-94.0
X132.0Y-97.0
X132.0Y-100.0
X132.0Y-103.0
X132.0Y-106.0
X132.0Y-109.0
X132.0Y-112.0
X132.0Y-115.0
X132.0Y-118.0
X132.0Y-130.0
X132.0Y-133.0
X132.0Y-150.0
X132.0Y-153.0
X132.0Y-156.0
X132.0Y-159.0
X135.0Y-61.0
X135.0Y-76.0
X135.0Y-82.0
X135.0Y-85.0
X135.0Y-94.0
X135.0Y-97.0
X135.0Y-100.0
X135.0Y-103.0
X135.0Y-106.0
X135.0Y-109.0
X135.0Y-112.0
X135.0Y-115.0
X135.0Y-118.0
X135.0Y-130.0
X135.0Y-133.0
X135.0Y-150.0
X135.0Y-153.0
X135.0Y-156.0
X135.0Y-159.0
X138.0Y-61.0
X138.0Y-76.0
X138.0Y-88.0
X138.0Y-91.0
X138.0Y-100.0
X138.0Y-144.0
X138.0Y-147.0
X138.0Y-150.0
X138.0Y-153.0
X138.0Y-156.0
X138.0Y-159.0
X139.0Y-80.0
X140.0Y-118.0
X141.0Y-61.0
X141.0Y-64.0
X141.0Y-67.0
X141.0Y-70.0
X141.0Y-73.0
X141.0Y-76.0
X141.0Y-85.0
X141.0Y-88.0
X141.0Y-91.0
X141.0Y-100.0
X141.0Y-147.0
X141.0Y-150.0
X141.0Y-153.0
X141.0Y-156.0
X141.0Y-159.0
X142.0Y-120.0
X142.25Y-123.25
X142.25Y-124.0
X142.25Y-124.75
X142.25Y-125.5
X142.25Y-126.25
X142.25Y-127.0
X142.25Y-127.75
X142.25Y-128.5
X142.25Y-129.25
X142.25Y-130.0
X142.25Y-130.75
X142.25Y-131.5
X142.25Y-132.25
X142.25Y-133.0
X142.25Y-133.75
X142.25Y-134.5
X142.25Y-135.25
X142.25Y-136.0
X142.25Y-136.75
X142.25Y-137.5
X142.25Y-138.25
X142.25Y-139.0
X142.25Y-139.75
X142.25Y-140.5
X142.25Y-141.25
X142.25Y-142.0
X142.25Y-142.75
X142.25Y-143.5
X143.0Y-117.0
X143.0Y-123.25
X143.0Y-124.0
X143.0Y-124.75
X143.0Y-125.5
X143.0Y-126.25
X143.0Y-127.0
X143.0Y-127.75
X143.0Y-128.5
X143.0Y-129.25
X143.0Y-130.0
X143.0Y-130.75
X143.0Y-131.5
X143.0Y-132.25
X143.0Y-133.0
X143.0Y-133.75
X143.0Y-134.5
X143.0Y-135.25
X143.0Y-136.0
X143.0Y-136.75
X143.0Y-137.5
X143.0Y-138.25
X143.0Y-139.0
X143.0Y-139.75
X143.0Y-140.5
X143.0Y-141.25
X143.0Y-142.0
X143.0Y-142.75
X143.0Y-143.5
X143.75Y-123.25
X143.75Y-124.0
X143.75Y-124.75
X143.75Y-125.5
X143.75Y-126.25
X143.75Y-127.0
X143.75Y-127.75
X143.75Y-128.5
X143.75Y-129.25
X143.75Y-130.0
X143.75Y-130.75
X143.75Y-131.5
X143.75Y-132.25
X143.75Y-133.0
X143.75Y-133.75
X143.75Y-134.5
X143.75Y-135.25
X143.75Y-136.0
X143.75Y-136.75
X143.75Y-137.5
X143.75Y-138.25
X143.75Y-139.0
X143.75Y-139.75
X143.75Y-140.5
X143.75Y-141.25
X143.75Y-142.0
X143.75Y-142.75
X143.75Y-143.5
X144.0Y-61.0
X144.0Y-64.0
X144.0Y-67.0
X144.0Y-70.0
X144.0Y-73.0
X144.0Y-76.0
X144.0Y-91.0
X144.0Y-94.0
X144.0Y-97.0
X144.0Y-100.0
X144.0Y-103.0
X144.0Y-106.0
X144.0Y-121.0
X144.0Y-150.0
X144.0Y-153.0
X144.0Y-156.0
X144.0Y-159.0
X144.5Y-123.25
X144.5Y-124.0
X144.5Y-124.75
X144.5Y-125.5
X144.5Y-126.25
X144.5Y-127.0
X144.5Y-127.75
X144.5Y-128.5
X144.5Y-129.25
X144.5Y-130.0
X144.5Y-130.75
X144.5Y-131.5
X144.5Y-132.25
X144.5Y-133.0
X144.5Y-133.75
X144.5Y-134.5
X144.5Y-135.25
X144.5Y-136.0
X144.5Y-136.75
X144.5Y-137.5
X144.5Y-138.25
X144.5Y-139.0
X144.5Y-139.75
X144.5Y-140.5
X144.5Y-141.25
X144.5Y-142.0
X144.5Y-142.75
X144.5Y-143.5
X145.0Y-145.0
X145.25Y-123.25
X145.25Y-124.0
X145.25Y-124.75
X145.25Y-125.5
X145.25Y-126.25
X145.25Y-127.0
X145.25Y-127.75
X145.25Y-128.5
X145.25Y-129.25
X145.25Y-130.0
X145.25Y-130.75
X145.25Y-131.5
X145.25Y-132.25
X145.25Y-133.0
X145.25Y-133.75
X145.25Y-134.5
X145.25Y-135.25
X145.25Y-136.0
X145.25Y-136.75
X145.25Y-137.5
X145.25Y-138.25
X145.25Y-139.0
X145.25Y-139.75
X145.25Y-140.5
X145.25Y-141.25
X145.25Y-142.0
X145.25Y-142.75
X145.25Y-143.5
X146.0Y-123.25
X146.0Y-124.0
X146.0Y-124.75
X146.0Y-125.5
X146.0Y-126.25
X146.0Y-127.0
X146.0Y-127.75
X146.0Y-128.5
X146.0Y-129.25
X146.0Y-130.0
X146.0Y-130.75
X146.0Y-131.5
X146.0Y-132.25
X146.0Y-133.0
X146.0Y-133.75
X146.0Y-134.5
X146.0Y-135.25
X146.0Y-136.0
X146.0Y-136.75
X146.0Y-137.5
X146.0Y-138.25
X146.0Y-139.0
X146.0Y-139.75
X146.0Y-140.5
X146.0Y-141.25
X146.0Y-142.0
X146.0Y-142.75
X146.0Y-143.5
X146.75Y-123.25
X146.75Y-124.0
X146.75Y-124.75
X146.75Y-125.5
X146.75Y-126.25
X146.75Y-127.0
X146.75Y-127.75
X146.75Y-128.5
X146.75Y-129.25
X146.75Y-130.0
X146.75Y-130.75
X146.75Y-131.5
X146.75Y-132.25
X146.75Y-133.0
X146.75Y-133.75
X146.75Y-134.5
X146.75Y-135.25
X146.75Y-136.0
X146.75Y-136.75
X146.75Y-137.5
X146.75Y-138.25
X146.75Y-139.0
X146.75Y-139.75
X146.75Y-140.5
X146.75Y-141.25
X146.75Y-142.0
X146.75Y-142.75
X146.75Y-143.5
X147.0Y-61.0
X147.0Y-64.0
X147.0Y-67.0
X147.0Y-70.0
X147.0Y-73.0
X147.0Y-76.0
X147.0Y-106.0
X147.0Y-112.0
X147.0Y-121.0
X147.0Y-148.0
X147.0Y-153.0
X147.0Y-156.0
X147.0Y-159.0
X147.5Y-123.25
X147.5Y-124.0
X147.5Y-124.75
X147.5Y-125.5
X147.5Y-126.25
X147.5Y-127.0
X147.5Y-127.75
X147.5Y-128.5
X147.5Y-129.25
X147.5Y-130.0
X147.5Y-130.75
X147.5Y-131.5
X147.5Y-132.25
X147.5Y-133.0
X147.5Y-133.75
X147.5Y-134.5
X147.5Y-135.25
X147.5Y-136.0
X147.5Y-136.75
X147.5Y-137.5
X147.5Y-138.25
X147.5Y-139.0
X147.5Y-139.75
X147.5Y-140.5
X147.5Y-141.25
X147.5Y-142.0
X147.5Y-142.75
X147.5Y-143.5
X148.0Y-93.0
X148.0Y-116.0
X148.0Y-146.0
X148.25Y-123.25
X148.25Y-124.0
X148.25Y-124.75
X148.25Y-125.5
X148.25Y-126.25
X148.25Y-127.0
X148.25Y-127.75
X148.25Y-128.5
X148.25Y-129.25
X148.25Y-130.0
X148.25Y-130.75
X148.25Y-131.5
X148.25Y-132.25
X148.25Y-133.0
X148.25Y-133.75
X148.25Y-134.5
X148.25Y-135.25
X148.25Y-136.0
X148.25Y-136.75
X148.25Y-137.5
X148.25Y-138.25
X148.25Y-139.0
X148.25Y-139.75
X148.25Y-140.5
X148.25Y-141.25
X148.25Y-142.0
X148.25Y-142.75
X148.25Y-143.5
X149.0Y-123.25
X149.0Y-124.0
X149.0Y-124.75
X149.0Y-125.5
X149.0Y-126.25
X149.0Y-127.0
X149.0Y-127.75
X149.0Y-128.5
X149.0Y-129.25
X149.0Y-130.0
X149.0Y-130.75
X149.0Y-131.5
X149.0Y-132.25
X149.0Y-133.0
X149.0Y-133.75
X149.0Y-134.5
X149.0Y-135.25
X149.0Y-136.0
X149.0Y-136.75
X149.0Y-137.5
X149.0Y-138.25
X149.0Y-139.0
X149.0Y-139.75
X149.0Y-140.5
X149.0Y-141.25
X149.0Y-142.0
X149.0Y-142.75
X149.0Y-143.5
X149.0Y-148.0
X149.4Y-114.0
X149.6Y-96.425
X149.75Y-123.25
X149.75Y-124.0
X149.75Y-124.75
X149.75Y-125.5
X149.75Y-126.25
X149.75Y-127.0
X149.75Y-127.75
X149.75Y-128.5
X149.75Y-129.25
X149.75Y-130.0
X149.75Y-130.75
X149.75Y-131.5
X149.75Y-132.25
X149.75Y-133.0
X149.75Y-133.75
X149.75Y-134.5
X149.75Y-135.25
X149.75Y-136.0
X149.75Y-136.75
X149.75Y-137.5
X149.75Y-138.25
X149.75Y-139.0
X149.75Y-139.75
X149.75Y-140.5
X149.75Y-141.25
X149.75Y-142.0
X149.75Y-142.75
X149.75Y-143.5
X150.0Y-61.0
X150.0Y-64.0
X150.0Y-67.0
X150.0Y-70.0
X150.0Y-73.0
X150.0Y-76.0
X150.0Y-91.0
X150.0Y-121.0
X150.0Y-156.0
X150.0Y-159.0
X150.5Y-123.25
X150.5Y-124.0
X150.5Y-124.75
X150.5Y-125.5
X150.5Y-126.25
X150.5Y-127.0
X150.5Y-127.75
X150.5Y-128.5
X150.5Y-129.25
X150.5Y-130.0
X150.5Y-130.75
X150.5Y-131.5
X150.5Y-132.25
X150.5Y-133.0
X150.5Y-133.75
X150.5Y-134.5
X150.5Y-135.25
X150.5Y-136.0
X150.5Y-136.75
X150.5Y-137.5
X150.5Y-138.25
X150.5Y-139.0
X150.5Y-139.75
X150.5Y-140.5
X150.5Y-141.25
X150.5Y-142.0
X150.5Y-142.75
X150.5Y-143.5
X151.0Y-145.0
X151.0Y-150.0
X151.2Y-110.6
X151.2Y-112.4
X151.25Y-123.25
X151.25Y-124.0
X151.25Y-124.75
X151.25Y-125.5
X151.25Y-126.25
X151.25Y-127.0
X151.25Y-127.75
X151.25Y-128.5
X151.25Y-129.25
X151.25Y-130.0
X151.25Y-130.75
X151.25Y-131.5
X151.25Y-132.25
X151.25Y-133.0
X151.25Y-133.75
X151.25Y-134.5
X151.25Y-135.25
X151.25Y-136.0
X151.25Y-136.75
X151.25Y-137.5
X151.25Y-138.25
X151.25Y-139.0
X151.25Y-139.75
X151.25Y-140.5
X151.25Y-141.25
X151.25Y-142.0
X151.25Y-142.75
X151.25Y-143.5
X152.0Y-103.0
X152.0Y-105.0
X152.0Y-123.25
X152.0Y-124.0
X152.0Y-124.75
X152.0Y-125.5
X152.0Y-126.25
X152.0Y-127.0
X152.0Y-127.75
X152.0Y-128.5
X152.0Y-129.25
X152.0Y-130.0
X152.0Y-130.75
X152.0Y-131.5
X152.0Y-132.25
X152.0Y-133.0
X152.0Y-133.75
X152.0Y-134.5
X152.0Y-135.25
X152.0Y-136.0
X152.0Y-136.75
X152.0Y-137.5
X152.0Y-138.25
X152.0Y-139.0
X152.0Y-139.75
X152.0Y-140.5
X152.0Y-141.25
X152.0Y-142.0
X152.0Y-142.75
X152.0Y-143.5
X152.35Y-99.85
X152.75Y-123.25
X152.75Y-124.0
X152.75Y-124.75
X152.75Y-125.5
X152.75Y-126.25
X152.75Y-130.0
X152.75Y-130.75
X152.75Y-131.5
X152.75Y-132.25
X152.75Y-133.0
X152.75Y-133.75
X152.75Y-134.5
X152.75Y-135.25
X152.75Y-136.0
X152.75Y-136.75
X152.75Y-137.5
X152.75Y-140.5
X152.75Y-141.25
X152.75Y-142.0
X152.75Y-142.75
X152.75Y-143.5
X153.0Y-67.0
X153.0Y-70.0
X153.0Y-76.0
X153.0Y-85.0
X153.0Y-88.0
X153.0Y-91.0
X153.0Y-121.0
X153.5Y-123.25
X153.5Y-124.0
X153.5Y-124.75
X153.5Y-125.5
X153.5Y-130.75
X153.5Y-131.5
X153.5Y-132.25
X153.5Y-133.0
X153.5Y-133.75
X153.5Y-134.5
X153.5Y-135.25
X153.5Y-136.0
X153.5Y-136.75
X153.5Y-141.25
X153.5Y-142.0
X153.5Y-142.75
X153.5Y-143.5
X154.0Y-85.4
X154.25Y-123.25
X154.25Y-124.0
X154.25Y-124.75
X154.25Y-125.5
X154.25Y-130.75
X154.25Y-131.5
X154.25Y-132.25
X154.25Y-133.0
X154.25Y-133.75
X154.25Y-134.5
X154.25Y-135.25
X154.25Y-136.0
X154.25Y-142.0
X154.25Y-142.75
X154.25Y-143.5
X154.647Y-94.622
X155.0Y-103.0
X155.0Y-105.0
X155.0Y-123.25
X155.0Y-124.0
X155.0Y-124.75
X155.0Y-125.5
X155.0Y-130.75
X155.0Y-131.5
X155.0Y-132.25
X155.0Y-133.0
X155.0Y-133.75
X155.0Y-134.5
X155.0Y-135.25
X155.0Y-136.0
X155.0Y-142.0
X155.0Y-142.75
X155.0Y-143.5
X155.75Y-123.25
X155.75Y-124.0
X155.75Y-124.75
X155.75Y-125.5
X155.75Y-130.75
X155.75Y-131.5
X155.75Y-132.25
X155.75Y-133.0
X155.75Y-133.75
X155.75Y-134.5
X155.75Y-135.25
X155.75Y-136.0
X155.75Y-136.75
X155.75Y-141.25
X155.75Y-142.0
X155.75Y-142.75
X155.75Y-143.5
X156.0Y-67.0
X156.0Y-70.0
X156.0Y-76.0
X156.4Y-86.8
X156.5Y-123.25
X156.5Y-124.0
X156.5Y-124.75
X156.5Y-125.5
X156.5Y-126.25
X156.5Y-130.0
X156.5Y-130.75
X156.5Y-131.5
X156.5Y-132.25
X156.5Y-133.0
X156.5Y-133.75
X156.5Y-134.5
X156.5Y-135.25
X156.5Y-136.0
X156.5Y-136.75
X156.5Y-137.5
X156.5Y-140.5
X156.5Y-141.25
X156.5Y-142.0
X156.5Y-142.75
X156.5Y-143.5
X157.0Y-116.0
X157.0Y-118.0
X157.0Y-121.0
X157.25Y-123.25
X157.25Y-124.0
X157.25Y-124.75
X157.25Y-125.5
X157.25Y-126.25
X157.25Y-127.0
X157.25Y-127.75
X157.25Y-128.5
X157.25Y-129.25
X157.25Y-130.0
X157.25Y-130.75
X157.25Y-131.5
X157.25Y-132.25
X157.25Y-133.0
X157.25Y-133.75
X157.25Y-134.5
X157.25Y-135.25
X157.25Y-136.0
X157.25Y-136.75
X157.25Y-137.5
X157.25Y-138.25
X157.25Y-139.0
X157.25Y-139.75
X157.25Y-140.5
X157.25Y-141.25
X157.25Y-142.0
X157.25Y-142.75
X157.25Y-143.5
X157.299Y-102.1
X157.299Y-114.0
X157.5Y-72.2
X158.0Y-123.25
X158.0Y-124.0
X158.0Y-124.75
X158.0Y-125.5
X158.0Y-126.25
X158.0Y-127.0
X158.0Y-127.75
X158.0Y-128.5
X158.0Y-129.25
X158.0Y-130.0
X158.0Y-130.75
X158.0Y-131.5
X158.0Y-132.25
X158.0Y-133.0
X158.0Y-133.75
X158.0Y-134.5
X158.0Y-135.25
X158.0Y-136.0
X158.0Y-136.75
X158.0Y-137.5
X158.0Y-138.25
X158.0Y-139.0
X158.0Y-139.75
X158.0Y-140.5
X158.0Y-141.25
X158.0Y-142.0
X158.0Y-142.75
X158.0Y-143.5
X158.4Y-95.8
X158.4Y-97.1
X158.4Y-104.8
X158.4Y-109.3
X158.4Y-110.6
X158.75Y-123.25
X158.75Y-124.0
X158.75Y-124.75
X158.75Y-125.5
X158.75Y-126.25
X158.75Y-127.0
X158.75Y-127.75
X158.75Y-128.5
X158.75Y-129.25
X158.75Y-130.0
X158.75Y-130.75
X158.75Y-131.5
X158.75Y-132.25
X158.75Y-133.0
X158.75Y-133.75
X158.75Y-134.5
X158.75Y-135.25
X158.75Y-136.0
X158.75Y-136.75
X158.75Y-137.5
X158.75Y-138.25
X158.75Y-139.0
X158.75Y-139.75
X158.75Y-140.5
X158.75Y-141.25
X158.75Y-142.0
X158.75Y-142.75
X158.75Y-143.5
X159.0Y-61.0
X159.0Y-64.0
X159.0Y-91.4
X159.2Y-101.2
X159.5Y-123.25
X159.5Y-124.0
X159.5Y-124.75
X159.5Y-125.5
X159.5Y-126.25
X159.5Y-127.0
X159.5Y-127.75
X159.5Y-128.5
X159.5Y-129.25
X159.5Y-130.0
X159.5Y-130.75
X159.5Y-131.5
X159.5Y-132.25
X159.5Y-133.0
X159.5Y-133.75
X159.5Y-134.5
X159.5Y-135.25
X159.5Y-136.0
X159.5Y-136.75
X159.5Y-137.5
X159.5Y-138.25
X159.5Y-139.0
X159.5Y-139.75
X159.5Y-140.5
X159.5Y-141.25
X159.5Y-142.0
X159.5Y-142.75
X159.5Y-143.5
X159.6Y-95.8
X159.6Y-97.1
X159.7Y-109.3
X159.7Y-110.6
X160.0Y-91.4
X160.25Y-123.25
X160.25Y-124.0
X160.25Y-124.75
X160.25Y-125.5
X160.25Y-126.25
X160.25Y-127.0
X160.25Y-127.75
X160.25Y-128.5
X160.25Y-129.25
X160.25Y-130.0
X160.25Y-130.75
X160.25Y-131.5
X160.25Y-132.25
X160.25Y-133.0
X160.25Y-133.75
X160.25Y-134.5
X160.25Y-135.25
X160.25Y-136.0
X160.25Y-136.75
X160.25Y-137.5
X160.25Y-138.25
X160.25Y-139.0
X160.25Y-139.75
X160.25Y-140.5
X160.25Y-141.25
X160.25Y-142.0
X160.25Y-142.75
X160.25Y-143.5
X160.6Y-106.0
X161.0Y-113.8
X161.0Y-116.0
X161.0Y-118.0
X161.0Y-121.0
X161.0Y-123.25
X161.0Y-124.0
X161.0Y-124.75
X161.0Y-125.5
X161.0Y-126.25
X161.0Y-127.0
X161.0Y-127.75
X161.0Y-128.5
X161.0Y-129.25
X161.0Y-130.0
X161.0Y-130.75
X161.0Y-131.5
X161.0Y-132.25
X161.0Y-133.0
X161.0Y-133.75
X161.0Y-134.5
X161.0Y-135.25
X161.0Y-136.0
X161.0Y-136.75
X161.0Y-137.5
X161.0Y-138.25
X161.0Y-139.0
X161.0Y-139.75
X161.0Y-140.5
X161.0Y-141.25
X161.0Y-142.0
X161.0Y-142.75
X161.0Y-143.5
X161.6Y-86.8
X161.75Y-123.25
X161.75Y-124.0
X161.75Y-124.75
X161.75Y-125.5
X161.75Y-126.25
X161.75Y-130.0
X161.75Y-130.75
X161.75Y-131.5
X161.75Y-132.25
X161.75Y-133.0
X161.75Y-133.75
X161.75Y-134.5
X161.75Y-135.25
X161.75Y-136.0
X161.75Y-136.75
X161.75Y-141.25
X161.75Y-142.0
X161.75Y-142.75
X161.75Y-143.5
X162.0Y-67.0
X162.0Y-70.0
X162.0Y-76.0
X162.0Y-91.0
X162.5Y-123.25
X162.5Y-124.0
X162.5Y-124.75
X162.5Y-125.5
X162.5Y-130.75
X162.5Y-131.5
X162.5Y-132.25
X162.5Y-133.0
X162.5Y-133.75
X162.5Y-134.5
X162.5Y-135.25
X162.5Y-136.0
X162.5Y-136.75
X162.5Y-141.25
X162.5Y-142.0
X162.5Y-142.75
X162.5Y-143.5
X163.0Y-102.0
X163.0Y-104.0
X163.0Y-106.0
X163.25Y-123.25
X163.25Y-124.0
X163.25Y-124.75
X163.25Y-125.5
X163.25Y-130.75
X163.25Y-131.5
X163.25Y-132.25
X163.25Y-133.0
X163.25Y-133.75
X163.25Y-134.5
X163.25Y-135.25
X163.25Y-136.0
X163.25Y-142.0
X163.25Y-142.75
X163.25Y-143.5
X164.0Y-123.25
X164.0Y-124.0
X164.0Y-124.75
X164.0Y-125.5
X164.0Y-130.75
X164.0Y-131.5
X164.0Y-132.25
X164.0Y-133.0
X164.0Y-133.75
X164.0Y-134.5
X164.0Y-135.25
X164.0Y-136.0
X164.0Y-136.75
X164.0Y-141.25
X164.0Y-142.0
X164.0Y-142.75
X164.0Y-143.5
X164.2Y-85.4
X164.75Y-123.25
X164.75Y-124.0
X164.75Y-124.75
X164.75Y-125.5
X164.75Y-130.0
X164.75Y-130.75
X164.75Y-131.5
X164.75Y-132.25
X164.75Y-133.0
X164.75Y-133.75
X164.75Y-134.5
X164.75Y-135.25
X164.75Y-136.0
X164.75Y-136.75
X164.75Y-141.25
X164.75Y-142.0
X164.75Y-142.75
X164.75Y-143.5
X165.0Y-67.0
X165.0Y-70.0
X165.0Y-76.0
X165.0Y-121.0
X165.2Y-116.6
X165.5Y-123.25
X165.5Y-124.0
X165.5Y-124.75
X165.5Y-125.5
X165.5Y-126.25
X165.5Y-129.25
X165.5Y-130.0
X165.5Y-130.75
X165.5Y-131.5
X165.5Y-132.25
X165.5Y-133.0
X165.5Y-133.75
X165.5Y-134.5
X165.5Y-135.25
X165.5Y-136.0
X165.5Y-136.75
X165.5Y-137.5
X165.5Y-140.5
X165.5Y-141.25
X165.5Y-142.0
X165.5Y-142.75
X165.5Y-143.5
X165.949Y-100.2
X166.0Y-84.0
X166.0Y-88.0
X166.25Y-123.25
X166.25Y-124.0
X166.25Y-124.75
X166.25Y-125.5
X166.25Y-126.25
X166.25Y-127.0
X166.25Y-127.75
X166.25Y-128.5
X166.25Y-129.25
X166.25Y-130.0
X166.25Y-130.75
X166.25Y-131.5
X166.25Y-132.25
X166.25Y-133.0
X166.25Y-133.75
X166.25Y-134.5
X166.25Y-135.25
X166.25Y-136.0
X166.25Y-136.75
X166.25Y-137.5
X166.25Y-138.25
X166.25Y-139.0
X166.25Y-139.75
X166.25Y-140.5
X166.25Y-141.25
X166.25Y-142.0
X166.25Y-142.75
X166.25Y-143.5
X166.55Y-112.2
X166.6Y-97.2
X166.6Y-110.6
X167.0Y-123.25
X167.0Y-124.0
X167.0Y-124.75
X167.0Y-125.5
X167.0Y-126.25
X167.0Y-127.0
X167.0Y-127.75
X167.0Y-128.5
X167.0Y-129.25
X167.0Y-130.0
X167.0Y-130.75
X167.0Y-131.5
X167.0Y-132.25
X167.0Y-133.0
X167.0Y-133.75
X167.0Y-134.5
X167.0Y-135.25
X167.0Y-136.0
X167.0Y-136.75
X167.0Y-137.5
X167.0Y-138.25
X167.0Y-139.0
X167.0Y-139.75
X167.0Y-140.5
X167.0Y-141.25
X167.0Y-142.0
X167.0Y-142.75
X167.0Y-143.5
X167.75Y-123.25
X167.75Y-124.0
X167.75Y-124.75
X167.75Y-125.5
X167.75Y-126.25
X167.75Y-127.0
X167.75Y-127.75
X167.75Y-128.5
X167.75Y-129.25
X167.75Y-130.0
X167.75Y-130.75
X167.75Y-131.5
X167.75Y-132.25
X167.75Y-133.0
X167.75Y-133.75
X167.75Y-134.5
X167.75Y-135.25
X167.75Y-136.0
X167.75Y-136.75
X167.75Y-137.5
X167.75Y-138.25
X167.75Y-139.0
X167.75Y-139.75
X167.75Y-140.5
X167.75Y-141.25
X167.75Y-142.0
X167.75Y-142.75
X167.75Y-143.5
X168.0Y-61.0
X168.0Y-64.0
X168.0Y-67.0
X168.0Y-70.0
X168.0Y-73.0
X168.0Y-76.0
X168.0Y-91.0
X168.0Y-94.0
X168.0Y-145.0
X168.0Y-148.0
X168.0Y-151.0
X168.0Y-156.0
X168.0Y-159.0
X168.5Y-123.25
X168.5Y-124.0
X168.5Y-124.75
X168.5Y-125.5
X168.5Y-126.25
X168.5Y-127.0
X168.5Y-127.75
X168.5Y-128.5
X168.5Y-129.25
X168.5Y-130.0
X168.5Y-130.75
X168.5Y-131.5
X168.5Y-132.25
X168.5Y-133.0
X168.5Y-133.75
X168.5Y-134.5
X168.5Y-135.25
X168.5Y-136.0
X168.5Y-136.75
X168.5Y-137.5
X168.5Y-138.25
X168.5Y-139.0
X168.5Y-139.75
X168.5Y-140.5
X168.5Y-141.25
X168.5Y-142.0
X168.5Y-142.75
X168.5Y-143.5
X169.25Y-123.25
X169.25Y-124.0
X169.25Y-124.75
X169.25Y-125.5
X169.25Y-126.25
X169.25Y-127.0
X169.25Y-127.75
X169.25Y-128.5
X169.25Y-129.25
X169.25Y-130.0
X169.25Y-130.75
X169.25Y-131.5
X169.25Y-132.25
X169.25Y-133.0
X169.25Y-133.75
X169.25Y-134.5
X169.25Y-135.25
X169.25Y-136.0
X169.25Y-136.75
X169.25Y-137.5
X169.25Y-138.25
X169.25Y-139.0
X169.25Y-139.75
X169.25Y-140.5
X169.25Y-141.25
X169.25Y-142.0
X169.25Y-142.75
X169.25Y-143.5
X170.0Y-115.0
X170.0Y-123.25
X170.0Y-124.0
X170.0Y-124.75
X170.0Y-125.5
X170.0Y-126.25
X170.0Y-127.0
X170.0Y-127.75
X170.0Y-128.5
X170.0Y-129.25
X170.0Y-130.0
X170.0Y-130.75
X170.0Y-131.5
X170.0Y-132.25
X170.0Y-133.0
X170.0Y-133.75
X170.0Y-134.5
X170.0Y-135.25
X170.0Y-136.0
X170.0Y-136.75
X170.0Y-137.5
X170.0Y-138.25
X170.0Y-139.0
X170.0Y-139.75
X170.0Y-140.5
X170.0Y-141.25
X170.0Y-142.0
X170.0Y-142.75
X170.0Y-143.5
X170.0Y-146.0
X170.0Y-148.0
X170.2Y-106.0
X170.75Y-123.25
X170.75Y-124.0
X170.75Y-124.75
X170.75Y-125.5
X170.75Y-126.25
X170.75Y-127.0
X170.75Y-127.75
X170.75Y-128.5
X170.75Y-129.25
X170.75Y-130.0
X170.75Y-130.75
X170.75Y-131.5
X170.75Y-132.25
X170.75Y-133.0
X170.75Y-133.75
X170.75Y-134.5
X170.75Y-135.25
X170.75Y-136.0
X170.75Y-136.75
X170.75Y-137.5
X170.75Y-138.25
X170.75Y-139.0
X170.75Y-139.75
X170.75Y-140.5
X170.75Y-141.25
X170.75Y-142.0
X170.75Y-142.75
X170.75Y-143.5
X171.0Y-61.0
X171.0Y-64.0
X171.0Y-67.0
X171.0Y-70.0
X171.0Y-73.0
X171.0Y-76.0
X171.0Y-91.0
X171.0Y-94.0
X171.0Y-121.0
X171.0Y-153.0
X171.0Y-156.0
X171.0Y-159.0
X171.5Y-123.25
X171.5Y-124.0
X171.5Y-124.75
X171.5Y-125.5
X171.5Y-126.25
X171.5Y-127.0
X171.5Y-127.75
X171.5Y-128.5
X171.5Y-129.25
X171.5Y-130.0
X171.5Y-130.75
X171.5Y-131.5
X171.5Y-132.25
X171.5Y-133.0
X171.5Y-133.75
X171.5Y-134.5
X171.5Y-135.25
X171.5Y-136.0
X171.5Y-136.75
X171.5Y-137.5
X171.5Y-138.25
X171.5Y-139.0
X171.5Y-139.75
X171.5Y-140.5
X171.5Y-141.25
X171.5Y-142.0
X171.5Y-142.75
X171.5Y-143.5
X172.0Y-145.0
X172.25Y-123.25
X172.25Y-124.0
X172.25Y-124.75
X172.25Y-125.5
X172.25Y-126.25
X172.25Y-127.0
X172.25Y-127.75
X172.25Y-128.5
X172.25Y-129.25
X172.25Y-130.0
X172.25Y-130.75
X172.25Y-131.5
X172.25Y-132.25
X172.25Y-133.0
X172.25Y-133.75
X172.25Y-134.5
X172.25Y-135.25
X172.25Y-136.0
X172.25Y-136.75
X172.25Y-137.5
X172.25Y-138.25
X172.25Y-139.0
X172.25Y-139.75
X172.25Y-140.5
X172.25Y-141.25
X172.25Y-142.0
X172.25Y-142.75
X172.25Y-143.5
X173.0Y-123.25
X173.0Y-124.0
X173.0Y-124.75
X173.0Y-125.5
X173.0Y-126.25
X173.0Y-127.0
X173.0Y-127.75
X173.0Y-128.5
X173.0Y-129.25
X173.0Y-130.0
X173.0Y-130.75
X173.0Y-131.5
X173.0Y-132.25
X173.0Y-133.0
X173.0Y-133.75
X173.0Y-134.5
X173.0Y-135.25
X173.0Y-136.0
X173.0Y-136.75
X173.0Y-137.5
X173.0Y-138.25
X173.0Y-139.0
X173.0Y-139.75
X173.0Y-140.5
X173.0Y-141.25
X173.0Y-142.0
X173.0Y-142.75
X173.0Y-143.5
X173.75Y-123.25
X173.75Y-124.0
X173.75Y-124.75
X173.75Y-125.5
X173.75Y-126.25
X173.75Y-127.0
X173.75Y-127.75
X173.75Y-128.5
X173.75Y-129.25
X173.75Y-130.0
X173.75Y-130.75
X173.75Y-131.5
X173.75Y-132.25
X173.75Y-133.0
X173.75Y-133.75
X173.75Y-134.5
X173.75Y-135.25
X173.75Y-136.0
X173.75Y-136.75
X173.75Y-137.5
X173.75Y-138.25
X173.75Y-139.0
X173.75Y-139.75
X173.75Y-140.5
X173.75Y-141.25
X173.75Y-142.0
X173.75Y-142.75
X173.75Y-143.5
X174.0Y-61.0
X174.0Y-64.0
X174.0Y-67.0
X174.0Y-70.0
X174.0Y-73.0
X174.0Y-76.0
X174.0Y-79.0
X174.0Y-88.0
X174.0Y-91.0
X174.0Y-94.0
X174.0Y-97.0
X174.0Y-100.0
X174.0Y-103.0
X174.0Y-106.0
X174.0Y-117.0
X174.0Y-121.0
X174.0Y-150.0
X174.0Y-153.0
X174.0Y-156.0
X174.0Y-159.0
X174.5Y-123.25
X174.5Y-124.0
X174.5Y-124.75
X174.5Y-125.5
X174.5Y-126.25
X174.5Y-127.0
X174.5Y-127.75
X174.5Y-128.5
X174.5Y-129.25
X174.5Y-130.0
X174.5Y-130.75
X174.5Y-131.5
X174.5Y-132.25
X174.5Y-133.0
X174.5Y-133.75
X174.5Y-134.5
X174.5Y-135.25
X174.5Y-136.0
X174.5Y-136.75
X174.5Y-137.5
X174.5Y-138.25
X174.5Y-139.0
X174.5Y-139.75
X174.5Y-140.5
X174.5Y-141.25
X174.5Y-142.0
X174.5Y-142.75
X174.5Y-143.5
X175.25Y-123.25
X175.25Y-124.0
X175.25Y-124.75
X175.25Y-125.5
X175.25Y-126.25
X175.25Y-127.0
X175.25Y-127.75
X175.25Y-128.5
X175.25Y-129.25
X175.25Y-130.0
X175.25Y-130.75
X175.25Y-131.5
X175.25Y-132.25
X175.25Y-133.0
X175.25Y-133.75
X175.25Y-134.5
X175.25Y-135.25
X175.25Y-136.0
X175.25Y-136.75
X175.25Y-137.5
X175.25Y-138.25
X175.25Y-139.0
X175.25Y-139.75
X175.25Y-140.5
X175.25Y-141.25
X175.25Y-142.0
X175.25Y-142.75
X175.25Y-143.5
X176.0Y-123.25
X176.0Y-124.0
X176.0Y-124.75
X176.0Y-125.5
X176.0Y-126.25
X176.0Y-127.0
X176.0Y-127.75
X176.0Y-128.5
X176.0Y-129.25
X176.0Y-130.0
X176.0Y-130.75
X176.0Y-131.5
X176.0Y-132.25
X176.0Y-133.0
X176.0Y-133.75
X176.0Y-134.5
X176.0Y-135.25
X176.0Y-136.0
X176.0Y-136.75
X176.0Y-137.5
X176.0Y-138.25
X176.0Y-139.0
X176.0Y-139.75
X176.0Y-140.5
X176.0Y-141.25
X176.0Y-142.0
X176.0Y-142.75
X176.0Y-143.5
X177.0Y-61.0
X177.0Y-64.0
X177.0Y-67.0
X177.0Y-70.0
X177.0Y-73.0
X177.0Y-76.0
X177.0Y-79.0
X177.0Y-82.0
X177.0Y-88.0
X177.0Y-91.0
X177.0Y-100.0
X177.0Y-147.0
X177.0Y-150.0
X177.0Y-153.0
X177.0Y-156.0
X177.0Y-159.0
X178.0Y-118.0
X180.0Y-61.0
X180.0Y-64.0
X180.0Y-67.0
X180.0Y-70.0
X180.0Y-73.0
X180.0Y-76.0
X180.0Y-79.0
X180.0Y-82.0
X180.0Y-85.0
X180.0Y-88.0
X180.0Y-91.0
X180.0Y-100.0
X180.0Y-144.0
X180.0Y-147.0
X180.0Y-150.0
X180.0Y-153.0
X180.0Y-156.0
X180.0Y-159.0
X181.0Y-120.0
X183.0Y-61.0
X183.0Y-64.0
X183.0Y-67.0
X183.0Y-70.0
X183.0Y-73.0
X183.0Y-76.0
X183.0Y-85.0
X183.0Y-94.0
X183.0Y-97.0
X183.0Y-100.0
X183.0Y-103.0
X183.0Y-106.0
X183.0Y-109.0
X183.0Y-112.0
X183.0Y-115.0
X183.0Y-118.0
X183.0Y-150.0
X183.0Y-153.0
X183.0Y-156.0
X183.0Y-159.0
X186.0Y-61.0
X186.0Y-64.0
X186.0Y-67.0
X186.0Y-70.0
X186.0Y-73.0
X186.0Y-76.0
X186.0Y-79.0
X186.0Y-82.0
X186.0Y-85.0
X186.0Y-106.0
X186.0Y-109.0
X186.0Y-112.0
X186.0Y-115.0
X186.0Y-130.0
X186.0Y-133.0
X186.0Y-150.0
X186.0Y-153.0
X186.0Y-156.0
X186.0Y-159.0
X189.0Y-61.0
X189.0Y-64.0
X189.0Y-67.0
X189.0Y-70.0
X189.0Y-73.0
X189.0Y-76.0
X189.0Y-79.0
X189.0Y-82.0
X189.0Y-85.0
X189.0Y-88.0
X189.0Y-91.0
X189.0Y-94.0
X189.0Y-97.0
X189.0Y-100.0
X189.0Y-103.0
X189.0Y-115.0
X189.0Y-130.0
X189.0Y-133.0
X189.0Y-150.0
X189.0Y-153.0
X189.0Y-156.0
X189.0Y-159.0
X190.4Y-120.0
X191.8Y-111.2
X192.0Y-61.0
X192.0Y-64.0
X192.0Y-67.0
X192.0Y-70.0
X192.0Y-73.0
X192.0Y-76.0
X192.0Y-79.0
X192.0Y-82.0
X192.0Y-85.0
X192.0Y-88.0
X192.0Y-91.0
X192.0Y-94.0
X192.0Y-97.0
X192.0Y-100.0
X192.0Y-115.0
X192.0Y-118.0
X192.0Y-121.0
X192.0Y-124.0
X192.0Y-127.0
X192.0Y-130.0
X192.0Y-133.0
X192.0Y-150.0
X192.0Y-153.0
X192.0Y-156.0
X192.0Y-159.0
X193.8Y-95.6
X195.0Y-61.0
X195.0Y-64.0
X195.0Y-67.0
X195.0Y-70.0
X195.0Y-91.0
X195.0Y-94.0
X195.0Y-115.0
X195.0Y-118.0
X195.0Y-121.0
X195.0Y-124.0
X195.0Y-127.0
X195.0Y-130.0
X195.0Y-133.0
X195.0Y-150.0
X195.0Y-153.0
X195.0Y-156.0
X195.0Y-159.0
X197.961Y-155.848
X198.0Y-61.0
X198.0Y-64.0
X198.0Y-67.0
X198.0Y-70.0
X198.0Y-91.0
X198.0Y-94.0
X198.0Y-97.0
X198.0Y-100.0
X198.0Y-112.0
X198.0Y-115.0
X198.0Y-118.0
X198.0Y-121.0
X198.0Y-124.0
X198.0Y-130.0
X198.0Y-133.0
X198.0Y-150.0
X198.0Y-153.0
X198.0Y-159.0
X201.0Y-61.0
X201.0Y-64.0
X201.0Y-67.0
X201.0Y-70.0
X201.0Y-91.0
X201.0Y-94.0
X201.0Y-97.0
X201.0Y-100.0
X201.0Y-112.0
X201.0Y-115.0
X201.0Y-118.0
X201.0Y-121.0
X201.0Y-130.0
X201.0Y-133.0
X201.0Y-150.0
X201.0Y-153.0
X201.0Y-156.0
X201.0Y-159.0
X201.5Y-123.7
X204.0Y-70.0
X204.0Y-91.0
X204.0Y-94.0
X204.0Y-97.0
X204.0Y-100.0
X204.0Y-112.0
X204.0Y-115.0
X204.0Y-118.0
X204.0Y-121.0
X204.0Y-124.0
X204.0Y-127.0
X204.0Y-130.0
X204.0Y-133.0
X204.0Y-150.0
X204.0Y-153.0
X207.0Y-67.0
X207.0Y-70.0
X207.0Y-73.0
X207.0Y-76.0
X207.0Y-79.0
X207.0Y-82.0
X207.0Y-85.0
X207.0Y-88.0
X207.0Y-91.0
X207.0Y-94.0
X207.0Y-97.0
X207.0Y-100.0
X207.0Y-103.0
X207.0Y-106.0
X207.0Y-109.0
X207.0Y-112.0
X207.0Y-115.0
X207.0Y-118.0
X207.0Y-121.0
X207.0Y-124.0
X207.0Y-127.0
X207.0Y-130.0
X207.0Y-133.0
X207.0Y-150.0
X207.0Y-153.0
T2
X144.25Y-109.46
X144.25Y-112.0
X144.25Y-114.54
X152.65Y-81.5
X165.35Y-81.5
X173.895Y-109.46
X173.895Y-112.0
X173.895Y-114.54
T3
X145.75Y-97.35
X145.75Y-99.85
X145.75Y-102.35
X172.35Y-97.35
X172.35Y-99.85
X172.35Y-102.35
T4
X115.66Y-109.17
X118.2Y-109.17
X120.74Y-109.17
X138.02Y-125.46
X138.02Y-130.54
X138.02Y-136.46
X138.02Y-139.0
X138.02Y-141.54
X159.0Y-67.935
X159.0Y-152.275
X180.11Y-125.46
X180.11Y-130.54
X180.11Y-136.46
X180.11Y-139.0
X180.11Y-141.54
X197.26Y-109.17
X199.8Y-109.17
X202.34Y-109.17
T5
X115.7Y-87.1
X115.7Y-104.9
X120.7Y-87.1
X120.7Y-104.9
X128.5Y-123.6
X128.5Y-141.4
X133.5Y-123.6
X133.5Y-141.4
X184.5Y-123.6
X184.5Y-141.4
X189.5Y-123.6
X189.5Y-141.4
X197.3Y-87.1
X197.3Y-104.9
X202.3Y-87.1
X202.3Y-104.9
T6
X145.7Y-81.35
X145.7Y-85.1
X145.7Y-88.85
X172.4Y-81.35
X172.4Y-85.1
X172.4Y-88.85
T7
X139.6Y-111.33
X139.6Y-113.87
X147.73Y-119.0
X148.8Y-84.06
X148.8Y-86.6
X148.8Y-98.63
X148.8Y-101.17
X150.27Y-119.0
X168.23Y-119.0
X169.25Y-84.03
X169.25Y-86.57
X169.25Y-98.63
X169.25Y-101.17
X170.77Y-119.0
X178.6Y-111.33
X178.6Y-113.87
T8
X153.975Y-62.91
X153.975Y-72.96
X153.975Y-147.25
X153.975Y-157.3
X164.025Y-62.91
X164.025Y-72.96
X164.025Y-147.25
X164.025Y-157.3
T9
X138.75Y-95.45
X138.75Y-104.25
X179.35Y-95.45
X179.35Y-104.25
T10
X112.6Y-63.6
X112.6Y-156.4
X205.4Y-63.6
X205.4Y-156.4
T11
X116.0Y-141.5
X118.2Y-78.6
X135.0Y-68.6
X199.8Y-78.6
X202.0Y-141.5
M30
