%TF.GenerationSoftware,KiCad,Pcbnew,9.0.0*%
%TF.CreationDate,2025-08-10T21:35:17+12:00*%
%TF.ProjectId,current_gen_class_ab,63757272-656e-4745-9f67-656e5f636c61,rev?*%
%TF.SameCoordinates,Original*%
%TF.FileFunction,Soldermask,Bot*%
%TF.FilePolarity,Negative*%
%FSLAX46Y46*%
G04 Gerber Fmt 4.6, Leading zero omitted, Abs format (unit mm)*
G04 Created by KiCad (PCBNEW 9.0.0) date 2025-08-10 21:35:17*
%MOMM*%
%LPD*%
G01*
G04 APERTURE LIST*
G04 Aperture macros list*
%AMRoundRect*
0 Rectangle with rounded corners*
0 $1 Rounding radius*
0 $2 $3 $4 $5 $6 $7 $8 $9 X,Y pos of 4 corners*
0 Add a 4 corners polygon primitive as box body*
4,1,4,$2,$3,$4,$5,$6,$7,$8,$9,$2,$3,0*
0 Add four circle primitives for the rounded corners*
1,1,$1+$1,$2,$3*
1,1,$1+$1,$4,$5*
1,1,$1+$1,$6,$7*
1,1,$1+$1,$8,$9*
0 Add four rect primitives between the rounded corners*
20,1,$1+$1,$2,$3,$4,$5,0*
20,1,$1+$1,$4,$5,$6,$7,0*
20,1,$1+$1,$6,$7,$8,$9,0*
20,1,$1+$1,$8,$9,$2,$3,0*%
G04 Aperture macros list end*
%ADD10C,3.500000*%
%ADD11R,1.905000X2.000000*%
%ADD12O,1.905000X2.000000*%
%ADD13C,2.600000*%
%ADD14RoundRect,0.550000X0.550000X-0.550000X0.550000X0.550000X-0.550000X0.550000X-0.550000X-0.550000X0*%
%ADD15C,2.200000*%
%ADD16RoundRect,0.550000X-0.550000X0.550000X-0.550000X-0.550000X0.550000X-0.550000X0.550000X0.550000X0*%
%ADD17C,5.600000*%
%ADD18R,3.500000X3.500000*%
%ADD19C,4.000000*%
%ADD20C,10.160000*%
%ADD21C,1.440000*%
%ADD22C,1.800000*%
%ADD23C,4.400000*%
%ADD24C,3.327400*%
%ADD25C,1.701800*%
%ADD26R,2.000000X2.000000*%
%ADD27C,2.000000*%
%ADD28R,2.000000X1.905000*%
%ADD29O,2.000000X1.905000*%
%ADD30C,1.600000*%
G04 APERTURE END LIST*
D10*
%TO.C,Q3*%
X118200000Y-125830000D03*
D11*
X120740000Y-109170000D03*
D12*
X118200000Y-109170000D03*
X115660001Y-109170000D03*
%TD*%
D13*
%TO.C,TP2*%
X169250000Y-84029999D03*
X169250000Y-86569999D03*
%TD*%
D14*
%TO.C,F2*%
X115700000Y-104900000D03*
X120700000Y-104900000D03*
D15*
X115700000Y-87100000D03*
X120700000Y-87100000D03*
%TD*%
D13*
%TO.C,TP6*%
X147730000Y-119000000D03*
X150270000Y-119000000D03*
%TD*%
%TO.C,TP7*%
X139600000Y-113870001D03*
X139600000Y-111330001D03*
%TD*%
%TO.C,TP4*%
X169250000Y-98629999D03*
X169250000Y-101169999D03*
%TD*%
D16*
%TO.C,F5*%
X189500000Y-123600000D03*
X184500000Y-123600000D03*
D15*
X189500000Y-141400000D03*
X184500000Y-141400000D03*
%TD*%
D17*
%TO.C,H4*%
X112600000Y-156400000D03*
%TD*%
D18*
%TO.C,J1*%
X159000000Y-67935000D03*
D19*
X153975000Y-62910000D03*
X153975000Y-72960000D03*
X164025000Y-62910000D03*
X164025000Y-72960000D03*
%TD*%
D13*
%TO.C,TP1*%
X148800000Y-86600000D03*
X148800000Y-84060000D03*
%TD*%
%TO.C,TP8*%
X178600000Y-113870000D03*
X178600000Y-111330000D03*
%TD*%
D10*
%TO.C,Q4*%
X199800000Y-125830000D03*
D11*
X202340000Y-109170000D03*
D12*
X199800000Y-109170000D03*
X197260001Y-109170000D03*
%TD*%
D17*
%TO.C,H2*%
X205400000Y-63600000D03*
%TD*%
D20*
%TO.C,J6*%
X116000000Y-141500000D03*
%TD*%
D14*
%TO.C,F1*%
X197300000Y-104900000D03*
X202300000Y-104900000D03*
D15*
X197300000Y-87100000D03*
X202300000Y-87100000D03*
%TD*%
D21*
%TO.C,R19*%
X144250000Y-109460000D03*
X144250000Y-112000000D03*
X144250000Y-114539999D03*
%TD*%
D16*
%TO.C,F4*%
X133500000Y-123600000D03*
X128500000Y-123600000D03*
D15*
X133500000Y-141400000D03*
X128500000Y-141400000D03*
%TD*%
D22*
%TO.C,RV3*%
X145750000Y-97350000D03*
X145750000Y-99850000D03*
X145750000Y-102350000D03*
D23*
X138750000Y-104250000D03*
X138750000Y-95450001D03*
%TD*%
D18*
%TO.C,J2*%
X159000000Y-152275000D03*
D19*
X164025000Y-157300000D03*
X164025000Y-147250000D03*
X153975000Y-157300000D03*
X153975000Y-147250000D03*
%TD*%
D20*
%TO.C,J5*%
X118200000Y-78600000D03*
%TD*%
D24*
%TO.C,RV1*%
X135700000Y-90300000D03*
X135700000Y-79900000D03*
D25*
X145700000Y-88850000D03*
X145700000Y-85100001D03*
X145700000Y-81350000D03*
%TD*%
D10*
%TO.C,R16*%
X154680000Y-128000000D03*
D26*
X138020000Y-125460000D03*
D27*
X138020000Y-130539999D03*
%TD*%
D24*
%TO.C,RV2*%
X182400000Y-79900001D03*
X182400000Y-90300001D03*
D25*
X172400000Y-81350001D03*
X172400000Y-85100000D03*
X172400000Y-88850001D03*
%TD*%
D21*
%TO.C,R18*%
X173895000Y-109460000D03*
X173895000Y-112000000D03*
X173895000Y-114539999D03*
%TD*%
D20*
%TO.C,J3*%
X199800000Y-78600000D03*
%TD*%
D10*
%TO.C,Q1*%
X154680000Y-139000000D03*
D28*
X138020000Y-136460000D03*
D29*
X138020000Y-139000000D03*
X138020000Y-141539999D03*
%TD*%
D22*
%TO.C,RV4*%
X172350000Y-102350000D03*
X172350000Y-99850000D03*
X172350000Y-97350000D03*
D23*
X179350000Y-95450000D03*
X179350000Y-104250000D03*
%TD*%
D13*
%TO.C,TP3*%
X148800000Y-101170001D03*
X148800000Y-98630001D03*
%TD*%
D30*
%TO.C,R1*%
X152650000Y-81500000D03*
X165350000Y-81500000D03*
%TD*%
D13*
%TO.C,TP5*%
X168230000Y-119000000D03*
X170770000Y-119000000D03*
%TD*%
D20*
%TO.C,J7*%
X202000000Y-141500000D03*
%TD*%
D10*
%TO.C,R17*%
X163450000Y-128000000D03*
D26*
X180110000Y-130540000D03*
D27*
X180110000Y-125460001D03*
%TD*%
D10*
%TO.C,Q2*%
X163450000Y-139000000D03*
D28*
X180110000Y-141540000D03*
D29*
X180110000Y-139000000D03*
X180110000Y-136460001D03*
%TD*%
D20*
%TO.C,J4*%
X135000000Y-68600000D03*
%TD*%
D17*
%TO.C,H1*%
X112600000Y-63600000D03*
%TD*%
%TO.C,H3*%
X205400000Y-156400000D03*
%TD*%
G36*
X176443039Y-122719685D02*
G01*
X176488794Y-122772489D01*
X176500000Y-122824000D01*
X176500000Y-144076000D01*
X176480315Y-144143039D01*
X176427511Y-144188794D01*
X176376000Y-144200000D01*
X141724000Y-144200000D01*
X141656961Y-144180315D01*
X141611206Y-144127511D01*
X141600000Y-144076000D01*
X141600000Y-122824000D01*
X141619685Y-122756961D01*
X141672489Y-122711206D01*
X141724000Y-122700000D01*
X176376000Y-122700000D01*
X176443039Y-122719685D01*
G37*
M02*
