%TF.GenerationSoftware,KiCad,Pcbnew,9.0.0*%
%TF.CreationDate,2025-08-10T21:35:17+12:00*%
%TF.ProjectId,current_gen_class_ab,63757272-656e-4745-9f67-656e5f636c61,rev?*%
%TF.SameCoordinates,Original*%
%TF.FileFunction,Legend,Bot*%
%TF.FilePolarity,Positive*%
%FSLAX46Y46*%
G04 Gerber Fmt 4.6, Leading zero omitted, Abs format (unit mm)*
G04 Created by KiCad (PCBNEW 9.0.0) date 2025-08-10 21:35:17*
%MOMM*%
%LPD*%
G01*
G04 APERTURE LIST*
%ADD10C,0.000000*%
%ADD11C,0.508000*%
G04 APERTURE END LIST*
D10*
%TO.C,G\u002A\u002A\u002A*%
G36*
X191977254Y-106046134D02*
G01*
X191975685Y-106120845D01*
X191964674Y-106223270D01*
X191939296Y-106310917D01*
X191895091Y-106391153D01*
X191827596Y-106471347D01*
X191732351Y-106558866D01*
X191604894Y-106661078D01*
X191603862Y-106661875D01*
X191533172Y-106724735D01*
X191498666Y-106780935D01*
X191497198Y-106840491D01*
X191525620Y-106913420D01*
X191532409Y-106927466D01*
X191563778Y-107010596D01*
X191583959Y-107092433D01*
X191591156Y-107126598D01*
X191617742Y-107210094D01*
X191652622Y-107290153D01*
X191660580Y-107306054D01*
X191684576Y-107365226D01*
X191701910Y-107433703D01*
X191714898Y-107522649D01*
X191725854Y-107643228D01*
X191732544Y-107740791D01*
X191735516Y-107832747D01*
X191732019Y-107907695D01*
X191721269Y-107979663D01*
X191702486Y-108062679D01*
X191694250Y-108095780D01*
X191658729Y-108234987D01*
X191621182Y-108377314D01*
X191583684Y-108515323D01*
X191548311Y-108641576D01*
X191517137Y-108748635D01*
X191492239Y-108829063D01*
X191475692Y-108875421D01*
X191465577Y-108898672D01*
X191415279Y-109015338D01*
X191379041Y-109104476D01*
X191354302Y-109176106D01*
X191338499Y-109240250D01*
X191329070Y-109306930D01*
X191323454Y-109386167D01*
X191319087Y-109487982D01*
X191308440Y-109757768D01*
X191370304Y-109779334D01*
X191437053Y-109811988D01*
X191508713Y-109869246D01*
X191587112Y-109955094D01*
X191677675Y-110074743D01*
X191700817Y-110106915D01*
X191801219Y-110236669D01*
X191902433Y-110348405D01*
X192019744Y-110459309D01*
X192030046Y-110468925D01*
X192081478Y-110523735D01*
X192143348Y-110597070D01*
X192204467Y-110675814D01*
X192234079Y-110714816D01*
X192335289Y-110836061D01*
X192443920Y-110950990D01*
X192552251Y-111052232D01*
X192652561Y-111132420D01*
X192737129Y-111184184D01*
X192777471Y-111205965D01*
X192853463Y-111270703D01*
X192908961Y-111361482D01*
X192949486Y-111486150D01*
X192949510Y-111486250D01*
X192963967Y-111530577D01*
X192991803Y-111603817D01*
X193029023Y-111695818D01*
X193071629Y-111796428D01*
X193098116Y-111856585D01*
X193145421Y-111955842D01*
X193187676Y-112029397D01*
X193230953Y-112087172D01*
X193281325Y-112139090D01*
X193326243Y-112184457D01*
X193400480Y-112270157D01*
X193462159Y-112353074D01*
X193499892Y-112409073D01*
X193565070Y-112502910D01*
X193626054Y-112587902D01*
X193638339Y-112605049D01*
X193687430Y-112685422D01*
X193727688Y-112775889D01*
X193760863Y-112882989D01*
X193788708Y-113013265D01*
X193812974Y-113173255D01*
X193835415Y-113369502D01*
X193837140Y-113381799D01*
X193846667Y-113449696D01*
X193862743Y-113523608D01*
X193879681Y-113571203D01*
X193895345Y-113619057D01*
X193910545Y-113705044D01*
X193924299Y-113822538D01*
X193936136Y-113965805D01*
X193945584Y-114129113D01*
X193952173Y-114306730D01*
X193955375Y-114489710D01*
X193955431Y-114492923D01*
X193956512Y-114567731D01*
X193960417Y-114689566D01*
X193966427Y-114797168D01*
X193973955Y-114881017D01*
X193982416Y-114931592D01*
X194011772Y-115084562D01*
X194022636Y-115264394D01*
X194014972Y-115455622D01*
X193989326Y-115644826D01*
X193946247Y-115818586D01*
X193927075Y-115886510D01*
X193909561Y-115968856D01*
X193902609Y-116031052D01*
X193902438Y-116039841D01*
X193890615Y-116103646D01*
X193879560Y-116163310D01*
X193837588Y-116259157D01*
X193820356Y-116298509D01*
X193727730Y-116440920D01*
X193604585Y-116586026D01*
X193453825Y-116729310D01*
X193406393Y-116770241D01*
X193322099Y-116843354D01*
X193281430Y-116878854D01*
X193246066Y-116909724D01*
X193190412Y-116958796D01*
X193100674Y-117038738D01*
X193203269Y-117039040D01*
X193224493Y-117039414D01*
X193276250Y-117043043D01*
X193337697Y-117051560D01*
X193415155Y-117066231D01*
X193514947Y-117088321D01*
X193643396Y-117119094D01*
X193806824Y-117159817D01*
X193907648Y-117185685D01*
X194090552Y-117236056D01*
X194236161Y-117282162D01*
X194347853Y-117325635D01*
X194429006Y-117368106D01*
X194482995Y-117411206D01*
X194513198Y-117456568D01*
X194522993Y-117505822D01*
X194530991Y-117553421D01*
X194553131Y-117612814D01*
X194557795Y-117623790D01*
X194558503Y-117626458D01*
X194573242Y-117682032D01*
X194587432Y-117764495D01*
X194597784Y-117857055D01*
X194603130Y-117930000D01*
X194604466Y-118003386D01*
X194601388Y-118028329D01*
X194596876Y-118064895D01*
X194577871Y-118131664D01*
X194544962Y-118220829D01*
X194538570Y-118237027D01*
X194492635Y-118337505D01*
X194438992Y-118435449D01*
X194387967Y-118511729D01*
X194346420Y-118565347D01*
X194277974Y-118655330D01*
X194217588Y-118736413D01*
X194178325Y-118788443D01*
X194123180Y-118857538D01*
X194078498Y-118909266D01*
X194034996Y-118950316D01*
X193949726Y-119015781D01*
X193852712Y-119078362D01*
X193758163Y-119129141D01*
X193680283Y-119159203D01*
X193616116Y-119178814D01*
X193530715Y-119208930D01*
X193443050Y-119242895D01*
X193438399Y-119244783D01*
X193355784Y-119275741D01*
X193281013Y-119299534D01*
X193229760Y-119311146D01*
X193216980Y-119312997D01*
X193179690Y-119327940D01*
X193177042Y-119330941D01*
X193148364Y-119363448D01*
X193113165Y-119429509D01*
X193096754Y-119462108D01*
X193088102Y-119479294D01*
X193057178Y-119522947D01*
X193018435Y-119547563D01*
X192958088Y-119565202D01*
X192902476Y-119573603D01*
X192813476Y-119580904D01*
X192701544Y-119586683D01*
X192576057Y-119590779D01*
X192446394Y-119593030D01*
X192321934Y-119593276D01*
X192212054Y-119591356D01*
X192126132Y-119587110D01*
X192073547Y-119580375D01*
X192054497Y-119577070D01*
X191991652Y-119570475D01*
X191900077Y-119563656D01*
X191788831Y-119557247D01*
X191666976Y-119551883D01*
X191599878Y-119549037D01*
X191481840Y-119542358D01*
X191378918Y-119534466D01*
X191300334Y-119526116D01*
X191255311Y-119518068D01*
X191238283Y-119511816D01*
X191180751Y-119467989D01*
X191137149Y-119390600D01*
X191104896Y-119275484D01*
X191104777Y-119274900D01*
X191103125Y-119269200D01*
X191219709Y-119269200D01*
X191221134Y-119278507D01*
X191249705Y-119296625D01*
X191278019Y-119312795D01*
X191376441Y-119360786D01*
X191463165Y-119385954D01*
X191553946Y-119393307D01*
X191593282Y-119395012D01*
X191670164Y-119406407D01*
X191727391Y-119424951D01*
X191734178Y-119428093D01*
X191790763Y-119444007D01*
X191872025Y-119457328D01*
X191962775Y-119465445D01*
X191973301Y-119465978D01*
X192052147Y-119469025D01*
X192093135Y-119467914D01*
X192100605Y-119462108D01*
X192078896Y-119451069D01*
X192037886Y-119426833D01*
X192028083Y-119411944D01*
X192068398Y-119411944D01*
X192100295Y-119413816D01*
X192130289Y-119419182D01*
X192148441Y-119436898D01*
X192148606Y-119438100D01*
X192172914Y-119448770D01*
X192236306Y-119453808D01*
X192335678Y-119452947D01*
X192362922Y-119452035D01*
X192524182Y-119446616D01*
X192648716Y-119442109D01*
X192741790Y-119437948D01*
X192808671Y-119433566D01*
X192854624Y-119428395D01*
X192884913Y-119421870D01*
X192904806Y-119413424D01*
X192919568Y-119402489D01*
X192934463Y-119388500D01*
X192960948Y-119361822D01*
X192980142Y-119330941D01*
X192966339Y-119314604D01*
X192916564Y-119310836D01*
X192827843Y-119317661D01*
X192741920Y-119325179D01*
X192648580Y-119330542D01*
X192576411Y-119331775D01*
X192551221Y-119331641D01*
X192488337Y-119334997D01*
X192448020Y-119342435D01*
X192421952Y-119347683D01*
X192362066Y-119352113D01*
X192287532Y-119352862D01*
X192253029Y-119353047D01*
X192165691Y-119362047D01*
X192105644Y-119381757D01*
X192071158Y-119402918D01*
X192068398Y-119411944D01*
X192028083Y-119411944D01*
X192020051Y-119399744D01*
X192017866Y-119388678D01*
X191993302Y-119371449D01*
X191979697Y-119368021D01*
X191996318Y-119352274D01*
X191997222Y-119351662D01*
X191993181Y-119340781D01*
X191956294Y-119331032D01*
X191895997Y-119322971D01*
X191821725Y-119317153D01*
X191742916Y-119314132D01*
X191669005Y-119314465D01*
X191609427Y-119318705D01*
X191573619Y-119327408D01*
X191543474Y-119338871D01*
X191527885Y-119333168D01*
X191511845Y-119309641D01*
X191462795Y-119286923D01*
X191391151Y-119270981D01*
X191307544Y-119265100D01*
X191250913Y-119265716D01*
X191219709Y-119269200D01*
X191103125Y-119269200D01*
X191090977Y-119227271D01*
X191066316Y-119188568D01*
X191022015Y-119148765D01*
X190949291Y-119097837D01*
X190872421Y-119047843D01*
X190793218Y-119001241D01*
X190718075Y-118965400D01*
X190640300Y-118938957D01*
X190553203Y-118920549D01*
X190450091Y-118908815D01*
X190324274Y-118902392D01*
X190169061Y-118899918D01*
X189977759Y-118900030D01*
X189876280Y-118900315D01*
X189718778Y-118899328D01*
X189596642Y-118895381D01*
X189505061Y-118887301D01*
X189439220Y-118873915D01*
X189394304Y-118854049D01*
X189365502Y-118826530D01*
X189347997Y-118790185D01*
X189336978Y-118743839D01*
X189340779Y-118701262D01*
X189374922Y-118652558D01*
X189443940Y-118600070D01*
X189551184Y-118540619D01*
X189610117Y-118505493D01*
X189688446Y-118436895D01*
X189742996Y-118360000D01*
X189768512Y-118283032D01*
X189759740Y-118214213D01*
X189747081Y-118192027D01*
X189729186Y-118187138D01*
X189695950Y-118201776D01*
X189637154Y-118237919D01*
X189570202Y-118275650D01*
X189420564Y-118338823D01*
X189249680Y-118390306D01*
X189071203Y-118426955D01*
X188898787Y-118445625D01*
X188746083Y-118443171D01*
X188742520Y-118442817D01*
X188672950Y-118437295D01*
X188574164Y-118431120D01*
X188458804Y-118425019D01*
X188339511Y-118419723D01*
X188331729Y-118419413D01*
X188130414Y-118410930D01*
X187966130Y-118402866D01*
X187833316Y-118394776D01*
X187726411Y-118386218D01*
X187639851Y-118376749D01*
X187568077Y-118365926D01*
X187505525Y-118353306D01*
X187470837Y-118345468D01*
X187320017Y-118313037D01*
X187155860Y-118279922D01*
X186987548Y-118247792D01*
X186824267Y-118218318D01*
X186675200Y-118193169D01*
X186549531Y-118174016D01*
X186456445Y-118162529D01*
X186441219Y-118160863D01*
X186302952Y-118131274D01*
X186156866Y-118077471D01*
X186153871Y-118076136D01*
X186056072Y-118034625D01*
X185953538Y-117994262D01*
X185867987Y-117963609D01*
X185813180Y-117945286D01*
X185679402Y-117896454D01*
X185561339Y-117845168D01*
X185442304Y-117783736D01*
X185305606Y-117704468D01*
X185221986Y-117654800D01*
X185149752Y-117612981D01*
X185098781Y-117584699D01*
X185076724Y-117574304D01*
X185073569Y-117578615D01*
X185085320Y-117606764D01*
X185114905Y-117653010D01*
X185155926Y-117707791D01*
X185201986Y-117761541D01*
X185220009Y-117780085D01*
X185261869Y-117816632D01*
X185289076Y-117831218D01*
X185290478Y-117831281D01*
X185325525Y-117841869D01*
X185375821Y-117865064D01*
X185385814Y-117870142D01*
X185443919Y-117897282D01*
X185523778Y-117932413D01*
X185611205Y-117969254D01*
X185653531Y-117986719D01*
X185763278Y-118032222D01*
X185884010Y-118082501D01*
X185996377Y-118129504D01*
X186075210Y-118162207D01*
X186172810Y-118201027D01*
X186266692Y-118235703D01*
X186368087Y-118270166D01*
X186488223Y-118308345D01*
X186638332Y-118354170D01*
X186792662Y-118406138D01*
X186973054Y-118486162D01*
X187119595Y-118577712D01*
X187135304Y-118589266D01*
X187192782Y-118629039D01*
X187237287Y-118656418D01*
X187238924Y-118657299D01*
X187275948Y-118678411D01*
X187340292Y-118716108D01*
X187386161Y-118743284D01*
X187423362Y-118765325D01*
X187516563Y-118820996D01*
X187577106Y-118857818D01*
X187696535Y-118934986D01*
X187776947Y-118994854D01*
X187818408Y-119037473D01*
X187820984Y-119062897D01*
X187814980Y-119064926D01*
X187775515Y-119060699D01*
X187709019Y-119044862D01*
X187624835Y-119020082D01*
X187532306Y-118989027D01*
X187440775Y-118954363D01*
X187377705Y-118929383D01*
X187232221Y-118877686D01*
X187111024Y-118845376D01*
X187005194Y-118830392D01*
X186905813Y-118830669D01*
X186823750Y-118838635D01*
X186761086Y-118854388D01*
X186727471Y-118883908D01*
X186715492Y-118934385D01*
X186717732Y-119013006D01*
X186721353Y-119054086D01*
X186734253Y-119118007D01*
X186737103Y-119123302D01*
X186761794Y-119169182D01*
X186812948Y-119227856D01*
X186846367Y-119264349D01*
X186904616Y-119333618D01*
X186949014Y-119393176D01*
X186957215Y-119405319D01*
X186999070Y-119465093D01*
X187054170Y-119541694D01*
X187112828Y-119621614D01*
X187165569Y-119696965D01*
X187212415Y-119781062D01*
X187226812Y-119839260D01*
X187209071Y-119872368D01*
X187208173Y-119872754D01*
X187183749Y-119860974D01*
X187138619Y-119823145D01*
X187079011Y-119765536D01*
X187011154Y-119694416D01*
X186941275Y-119616054D01*
X186875602Y-119536718D01*
X186867385Y-119526489D01*
X186827811Y-119482890D01*
X186781945Y-119444388D01*
X186721509Y-119405533D01*
X186638226Y-119360871D01*
X186523822Y-119304949D01*
X186437945Y-119264400D01*
X186345416Y-119223282D01*
X186270646Y-119195248D01*
X186201873Y-119176642D01*
X186127336Y-119163806D01*
X186035274Y-119153086D01*
X185956891Y-119145767D01*
X185859442Y-119140925D01*
X185785855Y-119144569D01*
X185724996Y-119156833D01*
X185676528Y-119168827D01*
X185587474Y-119186311D01*
X185497171Y-119200013D01*
X185412354Y-119212782D01*
X185356245Y-119230634D01*
X185335158Y-119258110D01*
X185345033Y-119301021D01*
X185381810Y-119365179D01*
X185384437Y-119369356D01*
X185416412Y-119425122D01*
X185457516Y-119502924D01*
X185503623Y-119594190D01*
X185550603Y-119690350D01*
X185594329Y-119782833D01*
X185630672Y-119863069D01*
X185655506Y-119922487D01*
X185664701Y-119952517D01*
X185664060Y-119959810D01*
X185647208Y-119968541D01*
X185607773Y-119941683D01*
X185546136Y-119879613D01*
X185462683Y-119782707D01*
X185357797Y-119651343D01*
X185290380Y-119571982D01*
X185178961Y-119474544D01*
X185052471Y-119406820D01*
X184898469Y-119360943D01*
X184870641Y-119354329D01*
X184765210Y-119323408D01*
X184648576Y-119282577D01*
X184541281Y-119238858D01*
X184517413Y-119228236D01*
X184385642Y-119172234D01*
X184282266Y-119134405D01*
X184199433Y-119112603D01*
X184129293Y-119104686D01*
X184063995Y-119108508D01*
X184039854Y-119110463D01*
X183966992Y-119111214D01*
X183866741Y-119108416D01*
X183749038Y-119102408D01*
X183623823Y-119093528D01*
X183517530Y-119083909D01*
X183354624Y-119063045D01*
X183224346Y-119035570D01*
X183120198Y-118998923D01*
X183035680Y-118950546D01*
X182990750Y-118911106D01*
X185151137Y-118911106D01*
X185153164Y-118918531D01*
X185170329Y-118955502D01*
X185199284Y-119008948D01*
X185199320Y-119009012D01*
X185231481Y-119056846D01*
X185266789Y-119083441D01*
X185314366Y-119090069D01*
X185383334Y-119078003D01*
X185482814Y-119048516D01*
X185569960Y-119025824D01*
X185668887Y-119014451D01*
X185790084Y-119015182D01*
X185844729Y-119017025D01*
X185910696Y-119016104D01*
X185934228Y-119009710D01*
X185915335Y-118997852D01*
X185854021Y-118980540D01*
X185750295Y-118957784D01*
X185693189Y-118947571D01*
X185601625Y-118934688D01*
X185500258Y-118923233D01*
X185397795Y-118913882D01*
X185302944Y-118907316D01*
X185224412Y-118904213D01*
X185170907Y-118905250D01*
X185151137Y-118911106D01*
X182990750Y-118911106D01*
X182964293Y-118887882D01*
X182899539Y-118808370D01*
X182875535Y-118766733D01*
X182838844Y-118673156D01*
X182826842Y-118630344D01*
X185971032Y-118630344D01*
X185971174Y-118631100D01*
X185991285Y-118648028D01*
X186039564Y-118683088D01*
X186109553Y-118731693D01*
X186194797Y-118789258D01*
X186204119Y-118795482D01*
X186292889Y-118855234D01*
X186369869Y-118907877D01*
X186427088Y-118947914D01*
X186456576Y-118969846D01*
X186464328Y-118976889D01*
X186495852Y-119009710D01*
X186502902Y-119017050D01*
X186547520Y-119068491D01*
X186555554Y-119078147D01*
X186591817Y-119117997D01*
X186604027Y-119123302D01*
X186591984Y-119094932D01*
X186555489Y-119033759D01*
X186546437Y-119018695D01*
X186511107Y-118946533D01*
X186488670Y-118880192D01*
X186482001Y-118834795D01*
X186493519Y-118796623D01*
X186534066Y-118757824D01*
X186595535Y-118708637D01*
X186488543Y-118707086D01*
X186410510Y-118704682D01*
X186322042Y-118696927D01*
X186228961Y-118681635D01*
X186113100Y-118656351D01*
X186045294Y-118641463D01*
X185993124Y-118631862D01*
X185971032Y-118630344D01*
X182826842Y-118630344D01*
X182813213Y-118581728D01*
X186787516Y-118581728D01*
X186796957Y-118610700D01*
X186847636Y-118639453D01*
X186938195Y-118667169D01*
X186972181Y-118676155D01*
X187047185Y-118699909D01*
X187103749Y-118722798D01*
X187145720Y-118741786D01*
X187161832Y-118743284D01*
X187146544Y-118725798D01*
X187102137Y-118691800D01*
X187030886Y-118643762D01*
X186971662Y-118608145D01*
X186886854Y-118569437D01*
X186824938Y-118558919D01*
X186789620Y-118577609D01*
X186787516Y-118581728D01*
X182813213Y-118581728D01*
X182805817Y-118555344D01*
X182779031Y-118424652D01*
X182761068Y-118292434D01*
X182754507Y-118170045D01*
X182752136Y-118090335D01*
X182739115Y-117983949D01*
X182712117Y-117880139D01*
X182668208Y-117772032D01*
X182604451Y-117652755D01*
X182517912Y-117515435D01*
X182432792Y-117392417D01*
X182754507Y-117392417D01*
X182765206Y-117403117D01*
X182775906Y-117392417D01*
X182765206Y-117381718D01*
X182754507Y-117392417D01*
X182432792Y-117392417D01*
X182405655Y-117353198D01*
X182372030Y-117302471D01*
X182329042Y-117211674D01*
X182305901Y-117108931D01*
X182303354Y-117091787D01*
X182270728Y-116955348D01*
X182217130Y-116845869D01*
X182136928Y-116751435D01*
X182116802Y-116732132D01*
X182051784Y-116668624D01*
X181994861Y-116611620D01*
X181972677Y-116588962D01*
X181911150Y-116526208D01*
X181849672Y-116463593D01*
X181814680Y-116425689D01*
X181779983Y-116377433D01*
X181756143Y-116323490D01*
X181741721Y-116256471D01*
X181735280Y-116168983D01*
X181735380Y-116053638D01*
X181740585Y-115903043D01*
X181744656Y-115805022D01*
X181747865Y-115704548D01*
X181747762Y-115631795D01*
X181743551Y-115578151D01*
X181734434Y-115535003D01*
X181719617Y-115493737D01*
X181698302Y-115445739D01*
X181672330Y-115383655D01*
X181653385Y-115316346D01*
X181644376Y-115239927D01*
X181642256Y-115137641D01*
X181644729Y-115047715D01*
X181657034Y-114944616D01*
X181680869Y-114867396D01*
X181694492Y-114831602D01*
X181708566Y-114767634D01*
X181715273Y-114683420D01*
X181715919Y-114567818D01*
X181715475Y-114541828D01*
X181711250Y-114439450D01*
X181701679Y-114362263D01*
X181684241Y-114295762D01*
X181656415Y-114225442D01*
X181626623Y-114150854D01*
X181604708Y-114061489D01*
X181605671Y-114015662D01*
X184170473Y-114015662D01*
X184180264Y-114081088D01*
X184217329Y-114167307D01*
X184231955Y-114197595D01*
X184298393Y-114364176D01*
X184360820Y-114570516D01*
X184419331Y-114817097D01*
X184474020Y-115104402D01*
X184524982Y-115432916D01*
X184572309Y-115803121D01*
X184616097Y-116215501D01*
X184620851Y-116258697D01*
X184637746Y-116373312D01*
X184659067Y-116482885D01*
X184681333Y-116568576D01*
X184706810Y-116672482D01*
X184727717Y-116807537D01*
X184741699Y-116959725D01*
X184757579Y-117211785D01*
X184881098Y-117326739D01*
X184957767Y-117392028D01*
X184958291Y-117392417D01*
X185046854Y-117458205D01*
X185126024Y-117508224D01*
X185182742Y-117539463D01*
X185265780Y-117585629D01*
X185333024Y-117623479D01*
X185352400Y-117634227D01*
X185434273Y-117676171D01*
X185514912Y-117713497D01*
X185548024Y-117728501D01*
X185633005Y-117771319D01*
X185713070Y-117816310D01*
X185733564Y-117827647D01*
X185812777Y-117862765D01*
X185911342Y-117898149D01*
X186012649Y-117927627D01*
X186054071Y-117938125D01*
X186149042Y-117962644D01*
X186230830Y-117984333D01*
X186285257Y-117999458D01*
X186353483Y-118017317D01*
X186472600Y-118043278D01*
X186611947Y-118069584D01*
X186758739Y-118094006D01*
X186900187Y-118114311D01*
X187023505Y-118128269D01*
X187025749Y-118128475D01*
X187132554Y-118140393D01*
X187264398Y-118158140D01*
X187404747Y-118179354D01*
X187537068Y-118201671D01*
X187663929Y-118222514D01*
X187824828Y-118245210D01*
X187985668Y-118264642D01*
X188125527Y-118278094D01*
X188140454Y-118279235D01*
X188288028Y-118288341D01*
X188442208Y-118294465D01*
X188593145Y-118297499D01*
X188730985Y-118297333D01*
X188845877Y-118293858D01*
X188927970Y-118286966D01*
X188949774Y-118283743D01*
X189089199Y-118254385D01*
X189226485Y-118212108D01*
X189345758Y-118163317D01*
X190083488Y-118163317D01*
X190263253Y-118361225D01*
X190336923Y-118439812D01*
X190409495Y-118512587D01*
X190470584Y-118569229D01*
X190511861Y-118601681D01*
X190552281Y-118626350D01*
X190584779Y-118640662D01*
X190608982Y-118635905D01*
X190641108Y-118613571D01*
X190657826Y-118597626D01*
X190663590Y-118565525D01*
X190633274Y-118540006D01*
X190571408Y-118526711D01*
X190514912Y-118522205D01*
X190474956Y-118515500D01*
X190461411Y-118504334D01*
X190465162Y-118485140D01*
X190465645Y-118483734D01*
X190454834Y-118450437D01*
X190408606Y-118412178D01*
X190406861Y-118411092D01*
X190354644Y-118375338D01*
X190284778Y-118323575D01*
X190211879Y-118266616D01*
X190083488Y-118163317D01*
X189345758Y-118163317D01*
X189351500Y-118160968D01*
X189454112Y-118105020D01*
X189524186Y-118048321D01*
X189539522Y-118030671D01*
X189552089Y-118005183D01*
X189544344Y-117974511D01*
X189515165Y-117923061D01*
X189511346Y-117916818D01*
X189471044Y-117856581D01*
X189415944Y-117780219D01*
X189356800Y-117702695D01*
X189345867Y-117688694D01*
X189290548Y-117614398D01*
X189244233Y-117546931D01*
X189230483Y-117523781D01*
X190212250Y-117523781D01*
X190215290Y-117572262D01*
X190237205Y-117644665D01*
X190279302Y-117745092D01*
X190342887Y-117877641D01*
X190347305Y-117886437D01*
X190385118Y-117956776D01*
X190414933Y-118005183D01*
X190418143Y-118010395D01*
X190439666Y-118036290D01*
X190455250Y-118039372D01*
X190449019Y-118011134D01*
X190444703Y-117994848D01*
X190436068Y-117938101D01*
X190427699Y-117856718D01*
X190425694Y-117828832D01*
X190564954Y-117828832D01*
X190565093Y-117842816D01*
X190578413Y-117983523D01*
X190609710Y-118121273D01*
X190612178Y-118129169D01*
X190637214Y-118197627D01*
X190668489Y-118257116D01*
X190710691Y-118311416D01*
X190768510Y-118364309D01*
X190846632Y-118419576D01*
X190949747Y-118480997D01*
X191082542Y-118552354D01*
X191108422Y-118565525D01*
X191249705Y-118637428D01*
X191452991Y-118739330D01*
X191368911Y-118746796D01*
X191363369Y-118747208D01*
X191283674Y-118742104D01*
X191208422Y-118722166D01*
X191114831Y-118693728D01*
X190979877Y-118676177D01*
X190840181Y-118678435D01*
X190714419Y-118701290D01*
X190589098Y-118738493D01*
X190689368Y-118805320D01*
X190698918Y-118811638D01*
X190784734Y-118865210D01*
X190880164Y-118920290D01*
X190977492Y-118972953D01*
X191069001Y-119019276D01*
X191146974Y-119055334D01*
X191203693Y-119077203D01*
X191231442Y-119080960D01*
X191242703Y-119075845D01*
X191242435Y-119088048D01*
X191238590Y-119102446D01*
X191252566Y-119117260D01*
X191291520Y-119129431D01*
X191359906Y-119139832D01*
X191462175Y-119149338D01*
X191602780Y-119158824D01*
X191629351Y-119160507D01*
X191744016Y-119169381D01*
X191847162Y-119179786D01*
X191928378Y-119190560D01*
X191977254Y-119200543D01*
X192011284Y-119208436D01*
X192086629Y-119219986D01*
X192182942Y-119230734D01*
X192287532Y-119239101D01*
X192313996Y-119240715D01*
X192432197Y-119245053D01*
X192534777Y-119241901D01*
X192640716Y-119230045D01*
X192768997Y-119208268D01*
X192842606Y-119194625D01*
X192973579Y-119170572D01*
X193101423Y-119147325D01*
X193206672Y-119128435D01*
X193280913Y-119113349D01*
X193433410Y-119067606D01*
X193591845Y-118997893D01*
X193692557Y-118944387D01*
X193801720Y-118878365D01*
X193894356Y-118813662D01*
X193964931Y-118754537D01*
X194007912Y-118705249D01*
X194017765Y-118670056D01*
X194016310Y-118665452D01*
X194012722Y-118646239D01*
X194028326Y-118665007D01*
X194043434Y-118679480D01*
X194067758Y-118679307D01*
X194068886Y-118660784D01*
X194043433Y-118631780D01*
X194022961Y-118612131D01*
X194052906Y-118612131D01*
X194063606Y-118622830D01*
X194074305Y-118612131D01*
X194063606Y-118601432D01*
X194052906Y-118612131D01*
X194022961Y-118612131D01*
X194022214Y-118611414D01*
X194027418Y-118601432D01*
X194033462Y-118600698D01*
X194051035Y-118581094D01*
X194048450Y-118551976D01*
X194026158Y-118536586D01*
X194017044Y-118531712D01*
X194035969Y-118514621D01*
X194055425Y-118498077D01*
X194066224Y-118467125D01*
X194064349Y-118457295D01*
X194068495Y-118455790D01*
X194075932Y-118461299D01*
X194107785Y-118458850D01*
X194114059Y-118456834D01*
X194136355Y-118465893D01*
X194135221Y-118510488D01*
X194126831Y-118518231D01*
X194092590Y-118519870D01*
X194066647Y-118521398D01*
X194066014Y-118546496D01*
X194075808Y-118561899D01*
X194100081Y-118566629D01*
X194108156Y-118569497D01*
X194097085Y-118598849D01*
X194092163Y-118612131D01*
X194086028Y-118628689D01*
X194092594Y-118644229D01*
X194094458Y-118643968D01*
X194117913Y-118619229D01*
X194153426Y-118555105D01*
X194200342Y-118452901D01*
X194258007Y-118313927D01*
X194289731Y-118241477D01*
X194320663Y-118182361D01*
X194343623Y-118150539D01*
X194356019Y-118132328D01*
X194368905Y-118085871D01*
X194374663Y-118028329D01*
X194373091Y-117972987D01*
X194363983Y-117933130D01*
X194347136Y-117922042D01*
X194329907Y-117927555D01*
X194277692Y-117942243D01*
X194210070Y-117959956D01*
X194147517Y-117978749D01*
X194114373Y-117998509D01*
X194110446Y-118021849D01*
X194114421Y-118040899D01*
X194102320Y-118029850D01*
X194084612Y-118023747D01*
X194029724Y-118016845D01*
X193945304Y-118010859D01*
X193838711Y-118005920D01*
X193717305Y-118002159D01*
X193588447Y-117999710D01*
X193459497Y-117998703D01*
X193337814Y-117999270D01*
X193230760Y-118001543D01*
X193145693Y-118005653D01*
X193089975Y-118011733D01*
X193055325Y-118014796D01*
X192980001Y-118014697D01*
X192883938Y-118010013D01*
X192779697Y-118001174D01*
X192648443Y-117988654D01*
X192449429Y-117972439D01*
X192235205Y-117957505D01*
X192020201Y-117944763D01*
X191818848Y-117935124D01*
X191645577Y-117929502D01*
X191571037Y-117927398D01*
X191496895Y-117922934D01*
X191428718Y-117914506D01*
X191357194Y-117900200D01*
X191273009Y-117878102D01*
X191166851Y-117846299D01*
X191029404Y-117802877D01*
X190910468Y-117765550D01*
X190798902Y-117731817D01*
X190706267Y-117705140D01*
X190659288Y-117692744D01*
X191335299Y-117692744D01*
X191338274Y-117706923D01*
X191362635Y-117724094D01*
X191365355Y-117723722D01*
X191384851Y-117706452D01*
X191412039Y-117661142D01*
X191448426Y-117584666D01*
X191495519Y-117473901D01*
X191554825Y-117325722D01*
X191581087Y-117267409D01*
X191628624Y-117176069D01*
X191686977Y-117073445D01*
X191748935Y-116972648D01*
X191821861Y-116860059D01*
X191882328Y-116769518D01*
X191926310Y-116708046D01*
X191956797Y-116671743D01*
X191976780Y-116656705D01*
X191989248Y-116659032D01*
X191991065Y-116664095D01*
X191982159Y-116701416D01*
X191951984Y-116772888D01*
X191900263Y-116879094D01*
X191826716Y-117020615D01*
X191731066Y-117198032D01*
X191676190Y-117300050D01*
X191627794Y-117395565D01*
X191593438Y-117472729D01*
X191568757Y-117541479D01*
X191549387Y-117611752D01*
X191542811Y-117641421D01*
X191539841Y-117676952D01*
X191551076Y-117675332D01*
X191575253Y-117638281D01*
X191611107Y-117567519D01*
X191657376Y-117464766D01*
X191697844Y-117375305D01*
X191759480Y-117249698D01*
X191826426Y-117122590D01*
X191894095Y-117002081D01*
X191957903Y-116896273D01*
X192013265Y-116813266D01*
X192055597Y-116761162D01*
X192072580Y-116745168D01*
X192085680Y-116738072D01*
X192082595Y-116755487D01*
X192062115Y-116801888D01*
X192023034Y-116881749D01*
X192012313Y-116903778D01*
X191968404Y-117003078D01*
X191930587Y-117101750D01*
X191906074Y-117181328D01*
X191898352Y-117212749D01*
X191875369Y-117303647D01*
X191847632Y-117410958D01*
X191819539Y-117517591D01*
X191805969Y-117569947D01*
X191783854Y-117668775D01*
X191776554Y-117731100D01*
X191783927Y-117759447D01*
X191805825Y-117756340D01*
X191807508Y-117754863D01*
X191823584Y-117724630D01*
X191846266Y-117666045D01*
X191871210Y-117590153D01*
X191901573Y-117496411D01*
X191983297Y-117293762D01*
X192080793Y-117116236D01*
X192105814Y-117073918D01*
X192140371Y-117004765D01*
X192159648Y-116951441D01*
X192167101Y-116927697D01*
X192186198Y-116896180D01*
X192204501Y-116886061D01*
X192212487Y-116905602D01*
X192211229Y-116920419D01*
X192199433Y-116980956D01*
X192177458Y-117068467D01*
X192148044Y-117173414D01*
X192113928Y-117286258D01*
X192077850Y-117397459D01*
X192042548Y-117497479D01*
X192010651Y-117585950D01*
X191984707Y-117663898D01*
X191969000Y-117718511D01*
X191966126Y-117741498D01*
X191970185Y-117741279D01*
X191987806Y-117717233D01*
X192010784Y-117668534D01*
X192011296Y-117667279D01*
X192019032Y-117649199D01*
X192084246Y-117649199D01*
X192094945Y-117659898D01*
X192105644Y-117649199D01*
X192094945Y-117638500D01*
X192084246Y-117649199D01*
X192019032Y-117649199D01*
X192038132Y-117604558D01*
X192047039Y-117584574D01*
X192110216Y-117584574D01*
X192112777Y-117609969D01*
X192119214Y-117613316D01*
X192127043Y-117595703D01*
X192125499Y-117584375D01*
X192112777Y-117581437D01*
X192110216Y-117584574D01*
X192047039Y-117584574D01*
X192075235Y-117521315D01*
X192114736Y-117435214D01*
X192153486Y-117346968D01*
X192193326Y-117246824D01*
X192222945Y-117162384D01*
X192241475Y-117106502D01*
X192260269Y-117058004D01*
X192271444Y-117039342D01*
X192272847Y-117040368D01*
X192273594Y-117066103D01*
X192267084Y-117115648D01*
X192255620Y-117174485D01*
X192241504Y-117228099D01*
X192240960Y-117229946D01*
X192245870Y-117227293D01*
X192265940Y-117193702D01*
X192297273Y-117135636D01*
X192333311Y-117069997D01*
X192368727Y-117011615D01*
X192393011Y-116978442D01*
X192400244Y-116973930D01*
X192405805Y-116991390D01*
X192399139Y-117041254D01*
X192381670Y-117118127D01*
X192354821Y-117216615D01*
X192320015Y-117331324D01*
X192278676Y-117456860D01*
X192232226Y-117587827D01*
X192229354Y-117595703D01*
X192215997Y-117632333D01*
X192210041Y-117649199D01*
X192181251Y-117730731D01*
X192154463Y-117811074D01*
X192138022Y-117866035D01*
X192134314Y-117888287D01*
X192135630Y-117889279D01*
X192154240Y-117877359D01*
X192182342Y-117832740D01*
X192216418Y-117762584D01*
X192252955Y-117674052D01*
X192288438Y-117574304D01*
X192313902Y-117500891D01*
X192348766Y-117406798D01*
X192388730Y-117303224D01*
X192430450Y-117198431D01*
X192470586Y-117100684D01*
X192505795Y-117018245D01*
X192532735Y-116959380D01*
X192548064Y-116932350D01*
X192551693Y-116936139D01*
X192549059Y-116971078D01*
X192538669Y-117032971D01*
X192522019Y-117113271D01*
X192500604Y-117203433D01*
X192473756Y-117298052D01*
X192426870Y-117439096D01*
X192371139Y-117588321D01*
X192312540Y-117729023D01*
X192310155Y-117734441D01*
X192281314Y-117813060D01*
X192278392Y-117857649D01*
X192301387Y-117868196D01*
X192333951Y-117852546D01*
X192426622Y-117852546D01*
X192426719Y-117857186D01*
X192435438Y-117881676D01*
X192465765Y-117894154D01*
X192528265Y-117899501D01*
X192595551Y-117901625D01*
X192709668Y-117903618D01*
X192844975Y-117904723D01*
X192993475Y-117904993D01*
X193147168Y-117904478D01*
X193298058Y-117903229D01*
X193438145Y-117901297D01*
X193559433Y-117898734D01*
X193653922Y-117895591D01*
X193713615Y-117891920D01*
X193740133Y-117889170D01*
X193851453Y-117874796D01*
X193948639Y-117857923D01*
X194024569Y-117840154D01*
X194072123Y-117823097D01*
X194084181Y-117808356D01*
X194082035Y-117800087D01*
X194101073Y-117799904D01*
X194107351Y-117801686D01*
X194157255Y-117796714D01*
X194220167Y-117771672D01*
X194280434Y-117734196D01*
X194322403Y-117691923D01*
X194326236Y-117685825D01*
X194346825Y-117626458D01*
X194343563Y-117547595D01*
X194333438Y-117500142D01*
X194305397Y-117449015D01*
X194250184Y-117404608D01*
X194232886Y-117394167D01*
X194164267Y-117363984D01*
X194103179Y-117351111D01*
X194098631Y-117350984D01*
X194056297Y-117346382D01*
X194042789Y-117338112D01*
X194038222Y-117328293D01*
X194001540Y-117308010D01*
X193936104Y-117283569D01*
X193849621Y-117258160D01*
X193659772Y-117215182D01*
X193376821Y-117173850D01*
X193102628Y-117159478D01*
X192847801Y-117159549D01*
X192786268Y-117233186D01*
X192759958Y-117262681D01*
X192727194Y-117287377D01*
X192707780Y-117279468D01*
X192705516Y-117276128D01*
X192687686Y-117272024D01*
X192665717Y-117307223D01*
X192643275Y-117378172D01*
X192648939Y-117440226D01*
X192687369Y-117478287D01*
X192715505Y-117493275D01*
X192741018Y-117521732D01*
X192725153Y-117544279D01*
X192668859Y-117556885D01*
X192642623Y-117559865D01*
X192597287Y-117575332D01*
X192579433Y-117606402D01*
X192573016Y-117624386D01*
X192543067Y-117674126D01*
X192499010Y-117729505D01*
X192475257Y-117758234D01*
X192440350Y-117812352D01*
X192426622Y-117852546D01*
X192333951Y-117852546D01*
X192350296Y-117844691D01*
X192385493Y-117805236D01*
X192429699Y-117723599D01*
X192480409Y-117602114D01*
X192525395Y-117484911D01*
X192580015Y-117345190D01*
X192625632Y-117231683D01*
X192660360Y-117149054D01*
X192682317Y-117101970D01*
X192685477Y-117094827D01*
X192699791Y-117048539D01*
X192717935Y-116976262D01*
X192736755Y-116890263D01*
X192738988Y-116878854D01*
X192811794Y-116878854D01*
X192822494Y-116889553D01*
X192833193Y-116878854D01*
X192822494Y-116868155D01*
X192811794Y-116878854D01*
X192738988Y-116878854D01*
X192745733Y-116844385D01*
X192758676Y-116758934D01*
X192759839Y-116700986D01*
X192749759Y-116661065D01*
X192726450Y-116609907D01*
X192663025Y-116656799D01*
X192629573Y-116679477D01*
X192595256Y-116690379D01*
X192566607Y-116676311D01*
X192550111Y-116661072D01*
X192537690Y-116637103D01*
X192544945Y-116606253D01*
X192574738Y-116560104D01*
X192629936Y-116490241D01*
X192634330Y-116484811D01*
X192679028Y-116424881D01*
X192707757Y-116377651D01*
X192714477Y-116352933D01*
X192714153Y-116352438D01*
X192685886Y-116334082D01*
X192635966Y-116316579D01*
X192607097Y-116306390D01*
X192560663Y-116276727D01*
X192534682Y-116242486D01*
X192538807Y-116213874D01*
X192544666Y-116211742D01*
X192579493Y-116219944D01*
X192630217Y-116244946D01*
X192639756Y-116250482D01*
X192710541Y-116283393D01*
X192754129Y-116286337D01*
X192768997Y-116259157D01*
X192767141Y-116251731D01*
X192737010Y-116225445D01*
X192678054Y-116201884D01*
X192628621Y-116183275D01*
X192548987Y-116143383D01*
X192471911Y-116095800D01*
X192419618Y-116062244D01*
X192353294Y-116032319D01*
X192312275Y-116033626D01*
X192298231Y-116066448D01*
X192298235Y-116066802D01*
X192314165Y-116099053D01*
X192351727Y-116136783D01*
X192391973Y-116173821D01*
X192403396Y-116200305D01*
X192378237Y-116206148D01*
X192318273Y-116188602D01*
X192231322Y-116154447D01*
X192105957Y-116281267D01*
X192062991Y-116329153D01*
X191990538Y-116423635D01*
X191909653Y-116541764D01*
X191823567Y-116677621D01*
X191735511Y-116825291D01*
X191648715Y-116978857D01*
X191566409Y-117132403D01*
X191517853Y-117228499D01*
X191491824Y-117280012D01*
X191428190Y-117415767D01*
X191415086Y-117447031D01*
X191378738Y-117533751D01*
X191367349Y-117567270D01*
X191346697Y-117628049D01*
X191335299Y-117692744D01*
X190659288Y-117692744D01*
X190639812Y-117687605D01*
X190606784Y-117681297D01*
X190605497Y-117681303D01*
X190583858Y-117686143D01*
X190571621Y-117706228D01*
X190566187Y-117750734D01*
X190564954Y-117828832D01*
X190425694Y-117828832D01*
X190420923Y-117762457D01*
X190418701Y-117721067D01*
X190416032Y-117632723D01*
X190419162Y-117572828D01*
X190420823Y-117565845D01*
X190639848Y-117565845D01*
X190746841Y-117582876D01*
X190794070Y-117590827D01*
X190889753Y-117608381D01*
X190982224Y-117626759D01*
X191041371Y-117639890D01*
X191105881Y-117656141D01*
X191144063Y-117668209D01*
X191160847Y-117670909D01*
X191201082Y-117653348D01*
X191235267Y-117614440D01*
X191249705Y-117567270D01*
X191249492Y-117562719D01*
X191241025Y-117546703D01*
X191214242Y-117537577D01*
X191161003Y-117533800D01*
X191073168Y-117533830D01*
X191067812Y-117533906D01*
X190962562Y-117537215D01*
X190855223Y-117543334D01*
X190768239Y-117550999D01*
X190639848Y-117565845D01*
X190420823Y-117565845D01*
X190429102Y-117531039D01*
X190446864Y-117497014D01*
X190469685Y-117460220D01*
X190470912Y-117447031D01*
X190448175Y-117453302D01*
X190425027Y-117460119D01*
X190369354Y-117467312D01*
X190346578Y-117471647D01*
X190340270Y-117488711D01*
X190341983Y-117500044D01*
X190318871Y-117510109D01*
X190302554Y-117506839D01*
X190297473Y-117488711D01*
X190300837Y-117473644D01*
X190282911Y-117467528D01*
X190251870Y-117476908D01*
X190222381Y-117499647D01*
X190212250Y-117523781D01*
X189230483Y-117523781D01*
X189216007Y-117499410D01*
X189215641Y-117498669D01*
X189185148Y-117454603D01*
X189128409Y-117387990D01*
X189051077Y-117304516D01*
X189024150Y-117276894D01*
X190994010Y-117276894D01*
X191010712Y-117291182D01*
X191061824Y-117324070D01*
X191090529Y-117341086D01*
X191110404Y-117346716D01*
X191107681Y-117328293D01*
X191104932Y-117316748D01*
X191118802Y-117300683D01*
X191167171Y-117296416D01*
X191208056Y-117297885D01*
X191274111Y-117307069D01*
X191315474Y-117322427D01*
X191323096Y-117341354D01*
X191297297Y-117354500D01*
X191248442Y-117360320D01*
X191204089Y-117365570D01*
X191185510Y-117378283D01*
X191197736Y-117395612D01*
X191235297Y-117418932D01*
X191267610Y-117429499D01*
X191293141Y-117418016D01*
X191320152Y-117374220D01*
X191320465Y-117373617D01*
X191348750Y-117310373D01*
X191367785Y-117252728D01*
X191372490Y-117228499D01*
X191367263Y-117208311D01*
X191338895Y-117201254D01*
X191277581Y-117201792D01*
X191263968Y-117202211D01*
X191192120Y-117204543D01*
X191155457Y-117205733D01*
X191083278Y-117208894D01*
X191041590Y-117212478D01*
X191024553Y-117217273D01*
X191026326Y-117224066D01*
X191041070Y-117233643D01*
X191050937Y-117239896D01*
X191076782Y-117268372D01*
X191069171Y-117286710D01*
X191030371Y-117284209D01*
X191009254Y-117278085D01*
X190994010Y-117276894D01*
X189024150Y-117276894D01*
X188958810Y-117209867D01*
X188933400Y-117184810D01*
X190809293Y-117184810D01*
X190826013Y-117213078D01*
X190840880Y-117228010D01*
X190873704Y-117237275D01*
X190928728Y-117226133D01*
X191003623Y-117204543D01*
X190931958Y-117184977D01*
X190927795Y-117183865D01*
X190870279Y-117172829D01*
X190829243Y-117171922D01*
X190825070Y-117172868D01*
X190809293Y-117184810D01*
X188933400Y-117184810D01*
X188857263Y-117109729D01*
X188752091Y-117009791D01*
X188648950Y-116915738D01*
X188553496Y-116833258D01*
X188510621Y-116797904D01*
X188362088Y-116682721D01*
X188218003Y-116584625D01*
X188070557Y-116499806D01*
X187911941Y-116424452D01*
X187734346Y-116354753D01*
X187529964Y-116286897D01*
X187290986Y-116217073D01*
X187252563Y-116205785D01*
X187173926Y-116176460D01*
X187105107Y-116138125D01*
X187037430Y-116084328D01*
X186962220Y-116008616D01*
X186870803Y-115904537D01*
X186839527Y-115868290D01*
X186745283Y-115767585D01*
X186663091Y-115695368D01*
X186585706Y-115645046D01*
X186576692Y-115640201D01*
X186416697Y-115552435D01*
X186289086Y-115477758D01*
X186187735Y-115411473D01*
X186106520Y-115348882D01*
X186039316Y-115285286D01*
X185979999Y-115215989D01*
X185922444Y-115136292D01*
X185916200Y-115127386D01*
X185862331Y-115060784D01*
X185786486Y-114977904D01*
X185697852Y-114888440D01*
X185605619Y-114802083D01*
X185581203Y-114779961D01*
X185495991Y-114699208D01*
X185421344Y-114623251D01*
X185364581Y-114559765D01*
X185333024Y-114516420D01*
X185314280Y-114484303D01*
X185266200Y-114412007D01*
X185213614Y-114341827D01*
X185183585Y-114299999D01*
X185133757Y-114219863D01*
X185079145Y-114123029D01*
X185027134Y-114022156D01*
X184990554Y-113950785D01*
X184918375Y-113824032D01*
X184840357Y-113701243D01*
X184762469Y-113591131D01*
X184690678Y-113502406D01*
X184630953Y-113443782D01*
X184588461Y-113398577D01*
X184552280Y-113338130D01*
X184548759Y-113329845D01*
X184521174Y-113283566D01*
X184495045Y-113278782D01*
X184467139Y-113314599D01*
X184447547Y-113375115D01*
X184452738Y-113447104D01*
X184487784Y-113502858D01*
X184522147Y-113555676D01*
X184527624Y-113624631D01*
X184500828Y-113690893D01*
X184483555Y-113711180D01*
X184455997Y-113720093D01*
X184410754Y-113704099D01*
X184380069Y-113691556D01*
X184347930Y-113690083D01*
X184322816Y-113714386D01*
X184307481Y-113741791D01*
X184295198Y-113790118D01*
X184292916Y-113802734D01*
X184270199Y-113848603D01*
X184231003Y-113901195D01*
X184188608Y-113958311D01*
X184170473Y-114015662D01*
X181605671Y-114015662D01*
X181606473Y-113977507D01*
X181632722Y-113885807D01*
X181684265Y-113773291D01*
X181701648Y-113738387D01*
X181738924Y-113656198D01*
X181766381Y-113578640D01*
X181785127Y-113497827D01*
X181796272Y-113405874D01*
X181800923Y-113294897D01*
X181800189Y-113157011D01*
X181795179Y-112984330D01*
X181793216Y-112923997D01*
X181789281Y-112665598D01*
X181794352Y-112439304D01*
X181808969Y-112236991D01*
X181833670Y-112050531D01*
X181868995Y-111871799D01*
X181917754Y-111694603D01*
X181990043Y-111513852D01*
X182076305Y-111370312D01*
X182175707Y-111265324D01*
X182287414Y-111200228D01*
X182289913Y-111199337D01*
X182339780Y-111189418D01*
X182415750Y-111181971D01*
X182502422Y-111178548D01*
X182664801Y-111176879D01*
X182843394Y-111426524D01*
X182858457Y-111447502D01*
X182930371Y-111545758D01*
X182999319Y-111637197D01*
X183058109Y-111712404D01*
X183099552Y-111761961D01*
X183177115Y-111847754D01*
X183209440Y-111784787D01*
X183217956Y-111765294D01*
X183239849Y-111700969D01*
X183264690Y-111614342D01*
X183288579Y-111518534D01*
X183294620Y-111492889D01*
X183325963Y-111370810D01*
X183362041Y-111243028D01*
X183396200Y-111133361D01*
X183409260Y-111093619D01*
X183441599Y-110985419D01*
X183466045Y-110882459D01*
X183483992Y-110775135D01*
X183496837Y-110653840D01*
X183505975Y-110508970D01*
X183512802Y-110330918D01*
X183514122Y-110290317D01*
X183521589Y-110124221D01*
X183532668Y-109991494D01*
X183549356Y-109884384D01*
X183573648Y-109795135D01*
X183607543Y-109715997D01*
X183653037Y-109639215D01*
X183712127Y-109557037D01*
X183741952Y-109517720D01*
X183824639Y-109406495D01*
X185070710Y-109406495D01*
X185082800Y-109450183D01*
X185097543Y-109501680D01*
X185107167Y-109575111D01*
X185102960Y-109635392D01*
X185084798Y-109668890D01*
X185081140Y-109673054D01*
X185073041Y-109710481D01*
X185071357Y-109774323D01*
X185075230Y-109852390D01*
X185083802Y-109932490D01*
X185096215Y-110002431D01*
X185111612Y-110050022D01*
X185113495Y-110053560D01*
X185146166Y-110102023D01*
X185189832Y-110154359D01*
X185224088Y-110201328D01*
X185243819Y-110259828D01*
X185254260Y-110345392D01*
X185260283Y-110406569D01*
X185274955Y-110467640D01*
X185304222Y-110522796D01*
X185355672Y-110590368D01*
X185434586Y-110709533D01*
X185494515Y-110859402D01*
X185494588Y-110859646D01*
X185522282Y-110950116D01*
X185549732Y-111037165D01*
X185571007Y-111101979D01*
X185576279Y-111118239D01*
X185593651Y-111186721D01*
X185600817Y-111241069D01*
X185604997Y-111279330D01*
X185626071Y-111362012D01*
X185660897Y-111459481D01*
X185704950Y-111557971D01*
X185710331Y-111569457D01*
X185735794Y-111635458D01*
X185764429Y-111723318D01*
X185791003Y-111817268D01*
X185797970Y-111843266D01*
X185825491Y-111934017D01*
X185853715Y-112012244D01*
X185877509Y-112063351D01*
X185884311Y-112075589D01*
X185911654Y-112136176D01*
X185943599Y-112219143D01*
X185974562Y-112310278D01*
X185980502Y-112328790D01*
X186057824Y-112535272D01*
X186152770Y-112738495D01*
X186259850Y-112928629D01*
X186373572Y-113095846D01*
X186488447Y-113230316D01*
X186495630Y-113237618D01*
X186566349Y-113317903D01*
X186613985Y-113394890D01*
X186650280Y-113487221D01*
X186660473Y-113517926D01*
X186708809Y-113645844D01*
X186765347Y-113764054D01*
X186835794Y-113882350D01*
X186925857Y-114010530D01*
X187041241Y-114158390D01*
X187066201Y-114185748D01*
X187124552Y-114242402D01*
X187203955Y-114314860D01*
X187297292Y-114396666D01*
X187397446Y-114481368D01*
X187549366Y-114610601D01*
X187721658Y-114767851D01*
X187860646Y-114909432D01*
X187968851Y-115037957D01*
X188048796Y-115156039D01*
X188110400Y-115253211D01*
X188205014Y-115377237D01*
X188318255Y-115498899D01*
X188455247Y-115623126D01*
X188621113Y-115754848D01*
X188820977Y-115898993D01*
X188883967Y-115943188D01*
X189005856Y-116030189D01*
X189130266Y-116120483D01*
X189238248Y-116200383D01*
X189315165Y-116257201D01*
X189393943Y-116313460D01*
X189456928Y-116356374D01*
X189495029Y-116379602D01*
X189536965Y-116403068D01*
X189583411Y-116434910D01*
X189604282Y-116449957D01*
X189656125Y-116483441D01*
X189725976Y-116526429D01*
X189804771Y-116573579D01*
X189883446Y-116619549D01*
X189952936Y-116658998D01*
X190004178Y-116686584D01*
X190028106Y-116696967D01*
X190037812Y-116700448D01*
X190075383Y-116722585D01*
X190127419Y-116758389D01*
X190134318Y-116763303D01*
X190199456Y-116804991D01*
X190284309Y-116854051D01*
X190372367Y-116900879D01*
X190393123Y-116911464D01*
X190471811Y-116953356D01*
X190536781Y-116990536D01*
X190575653Y-117015994D01*
X190604955Y-117032058D01*
X190650809Y-117041764D01*
X190721295Y-117045389D01*
X190825397Y-117043937D01*
X191032345Y-117037833D01*
X191157074Y-116898726D01*
X191159278Y-116896270D01*
X191239446Y-116808380D01*
X191329582Y-116711676D01*
X191410591Y-116626650D01*
X191457238Y-116576796D01*
X191604513Y-116392016D01*
X191720231Y-116200187D01*
X191801137Y-116007370D01*
X191822212Y-115915010D01*
X192405223Y-115915010D01*
X192420697Y-115961789D01*
X192469421Y-116017678D01*
X192542776Y-116069919D01*
X192631904Y-116110862D01*
X192687799Y-116129682D01*
X192725189Y-116138097D01*
X192743528Y-116131998D01*
X192754213Y-116111439D01*
X192755113Y-116103646D01*
X192733048Y-116071504D01*
X192676258Y-116032977D01*
X192657794Y-116022360D01*
X192582353Y-115973182D01*
X192516821Y-115923053D01*
X192476602Y-115890397D01*
X192434011Y-115866445D01*
X192411686Y-115874755D01*
X192405223Y-115915010D01*
X191822212Y-115915010D01*
X191843976Y-115819629D01*
X191845845Y-115804420D01*
X191854446Y-115729874D01*
X191859706Y-115676286D01*
X191860547Y-115654399D01*
X191859335Y-115655150D01*
X191843786Y-115679137D01*
X191814549Y-115729909D01*
X191776636Y-115798838D01*
X191766322Y-115817670D01*
X191727417Y-115884018D01*
X191696057Y-115930502D01*
X191678245Y-115948020D01*
X191676984Y-115947532D01*
X191678445Y-115924266D01*
X191694059Y-115873075D01*
X191720979Y-115803580D01*
X191760190Y-115694398D01*
X191807686Y-115506128D01*
X191843662Y-115290550D01*
X191867964Y-115055954D01*
X191880437Y-114810631D01*
X191880927Y-114562869D01*
X191869279Y-114320959D01*
X191845339Y-114093188D01*
X191808951Y-113887848D01*
X191759962Y-113713227D01*
X191726284Y-113610669D01*
X191703796Y-113518723D01*
X191701576Y-113463085D01*
X191719719Y-113444397D01*
X191727647Y-113445606D01*
X191743566Y-113457863D01*
X191759729Y-113487374D01*
X191777728Y-113539088D01*
X191799151Y-113617956D01*
X191825588Y-113728928D01*
X191858630Y-113876955D01*
X191861253Y-113888992D01*
X191917886Y-114198456D01*
X191952016Y-114496762D01*
X191963383Y-114777764D01*
X191951730Y-115035315D01*
X191916800Y-115263268D01*
X191906698Y-115315521D01*
X191892379Y-115406781D01*
X191880884Y-115498652D01*
X191879416Y-115512703D01*
X191873337Y-115579688D01*
X191873905Y-115611506D01*
X191882376Y-115614483D01*
X191900006Y-115594945D01*
X191900152Y-115594760D01*
X191922991Y-115559184D01*
X191942244Y-115512037D01*
X191959249Y-115447096D01*
X191975347Y-115358139D01*
X191991877Y-115238943D01*
X192010179Y-115083286D01*
X192018352Y-115001675D01*
X192030273Y-114832333D01*
X192036656Y-114659099D01*
X192037642Y-114489710D01*
X192033372Y-114331905D01*
X192023989Y-114193423D01*
X192009634Y-114082003D01*
X191990449Y-114005384D01*
X191982712Y-113981831D01*
X191964200Y-113905120D01*
X191946532Y-113807983D01*
X191932674Y-113705805D01*
X191921682Y-113622303D01*
X191900887Y-113494276D01*
X191875340Y-113357560D01*
X191848280Y-113230412D01*
X191825121Y-113129606D01*
X191794740Y-112997172D01*
X191765979Y-112871613D01*
X191742829Y-112770345D01*
X191712567Y-112637835D01*
X191671533Y-112458667D01*
X191637970Y-112313025D01*
X191635498Y-112302412D01*
X191752094Y-112302412D01*
X191757780Y-112346627D01*
X191771838Y-112416165D01*
X191795085Y-112516387D01*
X191828340Y-112652653D01*
X191850455Y-112743510D01*
X191873779Y-112842238D01*
X191892067Y-112922842D01*
X191902613Y-112973631D01*
X191903721Y-112979449D01*
X191918303Y-113040763D01*
X191941243Y-113124173D01*
X191968092Y-113213386D01*
X191974225Y-113233077D01*
X191997535Y-113312668D01*
X192013884Y-113376176D01*
X192020051Y-113411322D01*
X192020810Y-113423190D01*
X192033829Y-113441851D01*
X192065060Y-113431198D01*
X192117197Y-113389744D01*
X192192932Y-113316006D01*
X192249093Y-113259509D01*
X192295360Y-113218773D01*
X192333827Y-113197337D01*
X192376104Y-113189014D01*
X192433801Y-113187615D01*
X192469713Y-113188154D01*
X192564772Y-113193013D01*
X192648753Y-113201283D01*
X192692029Y-113208418D01*
X192736289Y-113224880D01*
X192769678Y-113258083D01*
X192806879Y-113318953D01*
X192837027Y-113370329D01*
X192867368Y-113411062D01*
X192889150Y-113420279D01*
X192907634Y-113402334D01*
X192912878Y-113381799D01*
X192896433Y-113327725D01*
X192848880Y-113254856D01*
X192773100Y-113166418D01*
X192671976Y-113065637D01*
X192548390Y-112955740D01*
X192405223Y-112839952D01*
X192318060Y-112768520D01*
X192214255Y-112677320D01*
X192107147Y-112578340D01*
X192009753Y-112483318D01*
X191981844Y-112455342D01*
X191905755Y-112381430D01*
X191840917Y-112321803D01*
X191793470Y-112281981D01*
X191769555Y-112267481D01*
X191762562Y-112268508D01*
X191753960Y-112278159D01*
X191752094Y-112302412D01*
X191635498Y-112302412D01*
X191610677Y-112195867D01*
X191588453Y-112102152D01*
X191570098Y-112026840D01*
X191554412Y-111964890D01*
X191540194Y-111911260D01*
X191526243Y-111860909D01*
X191484447Y-111708759D01*
X191442924Y-111544878D01*
X191407585Y-111386913D01*
X191376589Y-111225145D01*
X191348096Y-111049850D01*
X191320265Y-110851308D01*
X191291255Y-110619797D01*
X191286605Y-110581218D01*
X191266459Y-110417169D01*
X191249034Y-110281919D01*
X191232770Y-110164077D01*
X191216107Y-110052250D01*
X191197484Y-109935046D01*
X191179946Y-109812399D01*
X191168033Y-109672031D01*
X191167005Y-109531698D01*
X191176867Y-109377593D01*
X191197620Y-109195909D01*
X191212225Y-109094357D01*
X191232362Y-108989197D01*
X191255025Y-108912042D01*
X191282316Y-108854422D01*
X191325058Y-108778721D01*
X191386107Y-108650186D01*
X191441495Y-108503446D01*
X191496160Y-108326309D01*
X191502053Y-108303756D01*
X191521001Y-108203524D01*
X191536430Y-108080805D01*
X191547443Y-107948507D01*
X191553144Y-107819534D01*
X191552635Y-107706792D01*
X191545019Y-107623187D01*
X191533412Y-107557429D01*
X191521053Y-107485845D01*
X191513764Y-107440026D01*
X191510013Y-107410100D01*
X191508270Y-107386195D01*
X191494523Y-107344018D01*
X191441744Y-107284046D01*
X191352949Y-107221565D01*
X191231795Y-107158421D01*
X191081937Y-107096459D01*
X190907031Y-107037526D01*
X190710733Y-106983468D01*
X190707531Y-106982668D01*
X190624398Y-106959460D01*
X190515614Y-106925838D01*
X190394924Y-106886186D01*
X190276074Y-106844887D01*
X189997894Y-106745091D01*
X189521051Y-106721788D01*
X189384048Y-106715391D01*
X189249481Y-106710284D01*
X189142781Y-106708263D01*
X189055800Y-106709470D01*
X188980389Y-106714048D01*
X188908401Y-106722141D01*
X188831686Y-106733891D01*
X188794935Y-106739786D01*
X188672014Y-106757149D01*
X188546969Y-106771980D01*
X188441890Y-106781575D01*
X188327011Y-106794147D01*
X188162590Y-106825870D01*
X188007936Y-106870389D01*
X187879444Y-106923563D01*
X187828345Y-106946288D01*
X187742940Y-106977686D01*
X187654760Y-107004652D01*
X187641204Y-107008300D01*
X187500728Y-107046789D01*
X187390947Y-107078826D01*
X187301845Y-107107897D01*
X187223405Y-107137489D01*
X187145609Y-107171088D01*
X187058442Y-107212179D01*
X187000812Y-107241194D01*
X186911146Y-107290775D01*
X186836654Y-107337215D01*
X186789287Y-107373357D01*
X186768547Y-107390794D01*
X186705383Y-107434284D01*
X186622287Y-107484170D01*
X186531697Y-107532755D01*
X186457747Y-107571777D01*
X186311924Y-107656166D01*
X186154726Y-107754624D01*
X185998625Y-107858967D01*
X185856090Y-107961011D01*
X185739596Y-108052571D01*
X185662947Y-108116905D01*
X185581653Y-108183972D01*
X185523105Y-108229636D01*
X185481631Y-108257600D01*
X185451561Y-108271563D01*
X185427223Y-108275228D01*
X185402945Y-108272296D01*
X185382068Y-108269573D01*
X185345265Y-108280356D01*
X185315126Y-108323392D01*
X185278491Y-108373620D01*
X185229269Y-108414021D01*
X185227699Y-108414874D01*
X185169679Y-108469393D01*
X185138775Y-108547164D01*
X185140378Y-108634790D01*
X185144446Y-108658084D01*
X185152440Y-108727217D01*
X185159953Y-108818442D01*
X185165778Y-108918300D01*
X185165780Y-108918337D01*
X185169483Y-109019029D01*
X185168306Y-109090074D01*
X185160343Y-109144516D01*
X185143686Y-109195397D01*
X185116427Y-109255760D01*
X185090068Y-109313332D01*
X185072292Y-109365739D01*
X185070710Y-109406495D01*
X183824639Y-109406495D01*
X183832389Y-109396070D01*
X183899426Y-109300564D01*
X183946165Y-109225920D01*
X183975708Y-109166854D01*
X183991158Y-109118084D01*
X183995619Y-109074327D01*
X183995623Y-109073302D01*
X184012118Y-108989951D01*
X184057696Y-108886718D01*
X184127947Y-108770191D01*
X184218462Y-108646956D01*
X184324830Y-108523599D01*
X184442641Y-108406705D01*
X184443667Y-108405741D01*
X184472437Y-108363634D01*
X184504512Y-108294969D01*
X184533138Y-108214118D01*
X184559104Y-108129187D01*
X184586955Y-108040931D01*
X184608998Y-107973953D01*
X184612612Y-107963003D01*
X184635378Y-107876867D01*
X184650643Y-107792113D01*
X184661887Y-107721904D01*
X184684985Y-107614608D01*
X184714823Y-107497475D01*
X184747824Y-107383495D01*
X184780411Y-107285659D01*
X184809008Y-107216955D01*
X184809629Y-107215746D01*
X184846572Y-107153939D01*
X184899797Y-107076525D01*
X184958002Y-106999965D01*
X184967252Y-106988264D01*
X185060796Y-106843206D01*
X185143912Y-106664116D01*
X185145731Y-106659537D01*
X185218414Y-106502936D01*
X185306738Y-106353054D01*
X185402983Y-106221696D01*
X185499426Y-106120666D01*
X185567031Y-106061720D01*
X185580857Y-105703395D01*
X185584598Y-105616810D01*
X185587860Y-105557061D01*
X186477843Y-105557061D01*
X186477981Y-105562193D01*
X186493584Y-105626599D01*
X186528413Y-105699887D01*
X186572961Y-105765170D01*
X186617725Y-105805562D01*
X186656420Y-105837406D01*
X186684549Y-105886043D01*
X186693974Y-105906591D01*
X186737734Y-105955573D01*
X186807013Y-106007486D01*
X186866044Y-106043300D01*
X186960132Y-106096326D01*
X187050253Y-106143403D01*
X187183993Y-106209531D01*
X187183993Y-106069034D01*
X187183997Y-106066378D01*
X187612280Y-106066378D01*
X187631164Y-106101012D01*
X187673205Y-106164563D01*
X187719222Y-106229728D01*
X187760482Y-106283539D01*
X187787312Y-106313276D01*
X187806493Y-106325660D01*
X187877595Y-106346095D01*
X187967147Y-106350115D01*
X188060468Y-106339024D01*
X188142876Y-106314123D01*
X188143603Y-106313644D01*
X190231787Y-106313644D01*
X190232730Y-106346389D01*
X190263002Y-106375041D01*
X190325910Y-106401753D01*
X190424762Y-106428677D01*
X190562864Y-106457968D01*
X190570901Y-106459553D01*
X190653284Y-106476494D01*
X190721912Y-106491756D01*
X190762637Y-106502207D01*
X190778434Y-106506690D01*
X190793492Y-106502632D01*
X190782547Y-106476407D01*
X190977645Y-106476407D01*
X190990793Y-106488711D01*
X191037881Y-106500892D01*
X191106926Y-106505308D01*
X191185808Y-106502075D01*
X191262406Y-106491306D01*
X191324600Y-106473117D01*
X191391765Y-106442767D01*
X191442885Y-106412235D01*
X191482509Y-106373856D01*
X191520909Y-106317519D01*
X191568357Y-106233108D01*
X191603616Y-106164217D01*
X191647162Y-106052667D01*
X191659125Y-105966330D01*
X191639627Y-105902932D01*
X191588793Y-105860202D01*
X191587845Y-105859733D01*
X191517238Y-105836272D01*
X191442260Y-105826537D01*
X191439037Y-105826541D01*
X191388361Y-105830233D01*
X191378973Y-105837812D01*
X191366813Y-105847628D01*
X191361443Y-105888683D01*
X191359573Y-105907261D01*
X191343026Y-105972817D01*
X191339093Y-105982733D01*
X191315390Y-106042492D01*
X191306133Y-106063694D01*
X191281136Y-106147344D01*
X191276320Y-106185310D01*
X191271104Y-106226428D01*
X191270003Y-106262590D01*
X191260393Y-106305939D01*
X191238682Y-106318702D01*
X191204141Y-106327187D01*
X191149358Y-106351882D01*
X191087958Y-106386015D01*
X191031299Y-106422722D01*
X190990741Y-106455140D01*
X190977645Y-106476407D01*
X190782547Y-106476407D01*
X190780326Y-106471085D01*
X190779915Y-106470308D01*
X190769559Y-106433014D01*
X190775248Y-106381451D01*
X190798282Y-106303492D01*
X190820101Y-106230845D01*
X190825770Y-106185310D01*
X190814780Y-106163380D01*
X190796790Y-106158404D01*
X190744027Y-106155149D01*
X190673423Y-106156291D01*
X190599727Y-106161100D01*
X190537688Y-106168849D01*
X190502054Y-106178811D01*
X190493163Y-106181252D01*
X190473521Y-106163696D01*
X190463372Y-106155369D01*
X190426405Y-106160066D01*
X190373870Y-106183393D01*
X190316722Y-106220024D01*
X190287350Y-106245812D01*
X190265912Y-106264634D01*
X190256866Y-106274653D01*
X190231787Y-106313644D01*
X188143603Y-106313644D01*
X188199690Y-106276713D01*
X188203296Y-106272706D01*
X188222133Y-106245812D01*
X188212666Y-106226472D01*
X188169718Y-106201731D01*
X188148095Y-106192399D01*
X188081325Y-106170620D01*
X187992539Y-106146908D01*
X187894966Y-106124961D01*
X187841264Y-106113691D01*
X187751418Y-106093252D01*
X187679677Y-106074948D01*
X187638008Y-106061725D01*
X187636132Y-106060929D01*
X187614590Y-106054928D01*
X187612280Y-106066378D01*
X187183997Y-106066378D01*
X187184028Y-106043850D01*
X187185615Y-105979499D01*
X187191977Y-105946844D01*
X187206393Y-105937235D01*
X187232140Y-105942023D01*
X187245673Y-105945460D01*
X187305814Y-105957644D01*
X187376580Y-105969120D01*
X187472873Y-105982733D01*
X187430833Y-105935322D01*
X187428330Y-105932577D01*
X187383519Y-105893161D01*
X191078517Y-105893161D01*
X191082718Y-105904692D01*
X191112429Y-105911516D01*
X191161152Y-105898221D01*
X191217607Y-105866936D01*
X191231918Y-105856504D01*
X191251630Y-105837812D01*
X191239006Y-105838006D01*
X191198543Y-105850418D01*
X191137363Y-105864090D01*
X191096952Y-105876239D01*
X191078517Y-105893161D01*
X187383519Y-105893161D01*
X187381680Y-105891543D01*
X187307937Y-105837103D01*
X187214036Y-105773432D01*
X187106912Y-105704705D01*
X186993501Y-105635097D01*
X186880735Y-105568783D01*
X186775550Y-105509938D01*
X186684880Y-105462737D01*
X186615661Y-105431354D01*
X186574826Y-105419966D01*
X186559018Y-105423847D01*
X186521534Y-105455312D01*
X186490669Y-105505097D01*
X186477843Y-105557061D01*
X185587860Y-105557061D01*
X185590776Y-105503658D01*
X185597433Y-105409431D01*
X185603983Y-105342079D01*
X185609842Y-105309555D01*
X185610546Y-105307737D01*
X185610359Y-105263596D01*
X185590996Y-105208281D01*
X185550532Y-105096904D01*
X185543911Y-104973007D01*
X185577946Y-104855304D01*
X185605234Y-104810387D01*
X185680645Y-104726941D01*
X185780197Y-104647415D01*
X185892553Y-104580309D01*
X186006376Y-104534119D01*
X186071665Y-104518513D01*
X186214812Y-104502040D01*
X186371611Y-104501974D01*
X186528415Y-104517331D01*
X186671574Y-104547129D01*
X186787442Y-104590384D01*
X186833052Y-104616495D01*
X186907102Y-104663312D01*
X186995525Y-104722194D01*
X187087700Y-104786214D01*
X187165647Y-104841136D01*
X187266300Y-104911010D01*
X187358315Y-104973839D01*
X187428640Y-105020649D01*
X187493017Y-105065907D01*
X187577467Y-105133189D01*
X187645845Y-105195975D01*
X187679271Y-105228404D01*
X187748960Y-105278808D01*
X187818469Y-105301387D01*
X187825382Y-105302441D01*
X187975897Y-105326378D01*
X188093285Y-105347532D01*
X188186577Y-105367863D01*
X188264806Y-105389331D01*
X188337002Y-105413895D01*
X188341838Y-105415680D01*
X188430925Y-105444063D01*
X188501713Y-105454359D01*
X188572385Y-105449304D01*
X188703464Y-105436986D01*
X188918056Y-105444755D01*
X189142474Y-105483734D01*
X189353955Y-105520205D01*
X189604653Y-105527032D01*
X189847644Y-105494275D01*
X189943703Y-105477672D01*
X190051975Y-105468945D01*
X190149853Y-105470643D01*
X190226906Y-105482520D01*
X190272703Y-105504328D01*
X190288101Y-105515095D01*
X190333529Y-105526958D01*
X190334539Y-105526948D01*
X190386523Y-105512157D01*
X190456004Y-105474796D01*
X190531176Y-105422982D01*
X190600229Y-105364831D01*
X190651356Y-105308462D01*
X190702831Y-105247193D01*
X190825832Y-105143780D01*
X190989939Y-105047005D01*
X191076763Y-105009896D01*
X191169060Y-104992749D01*
X191257914Y-105006485D01*
X191352290Y-105052743D01*
X191461153Y-105133162D01*
X191565309Y-105231532D01*
X191686607Y-105375550D01*
X191798648Y-105539194D01*
X191892368Y-105710330D01*
X191909928Y-105747563D01*
X191945416Y-105829955D01*
X191965785Y-105896574D01*
X191975057Y-105963330D01*
X191975137Y-105966330D01*
X191977254Y-106046134D01*
G37*
G36*
X191991519Y-119443105D02*
G01*
X191994867Y-119449542D01*
X191977254Y-119457371D01*
X191965925Y-119455827D01*
X191962988Y-119443105D01*
X191966124Y-119440544D01*
X191991519Y-119443105D01*
G37*
G36*
X191934457Y-119425273D02*
G01*
X191923757Y-119435973D01*
X191913058Y-119425273D01*
X191923757Y-119414574D01*
X191934457Y-119425273D01*
G37*
G36*
X191977254Y-119403875D02*
G01*
X191966554Y-119414574D01*
X191955855Y-119403875D01*
X191966554Y-119393176D01*
X191977254Y-119403875D01*
G37*
G36*
X191807202Y-119330689D02*
G01*
X191838163Y-119350379D01*
X191836917Y-119363540D01*
X191807329Y-119371777D01*
X191781245Y-119367596D01*
X191763269Y-119350379D01*
X191766447Y-119340944D01*
X191794104Y-119328980D01*
X191807202Y-119330689D01*
G37*
G36*
X192880730Y-119342738D02*
G01*
X192911148Y-119355331D01*
X192915466Y-119365634D01*
X192900695Y-119363121D01*
X192889504Y-119358679D01*
X192875990Y-119370514D01*
X192867090Y-119379622D01*
X192824169Y-119389500D01*
X192754019Y-119393176D01*
X192688241Y-119390010D01*
X192655545Y-119380945D01*
X192661797Y-119368501D01*
X192705411Y-119355228D01*
X192784801Y-119343676D01*
X192817051Y-119341137D01*
X192880730Y-119342738D01*
G37*
G36*
X192276832Y-119382476D02*
G01*
X192266133Y-119393176D01*
X192255434Y-119382476D01*
X192266133Y-119371777D01*
X192276832Y-119382476D01*
G37*
G36*
X192547880Y-119207722D02*
G01*
X192551228Y-119214158D01*
X192533614Y-119221988D01*
X192522286Y-119220443D01*
X192519349Y-119207722D01*
X192522485Y-119205161D01*
X192547880Y-119207722D01*
G37*
G36*
X192811794Y-119168491D02*
G01*
X192801095Y-119179191D01*
X192790396Y-119168491D01*
X192801095Y-119157792D01*
X192811794Y-119168491D01*
G37*
G36*
X191977254Y-119168491D02*
G01*
X191966554Y-119179191D01*
X191955855Y-119168491D01*
X191966554Y-119157792D01*
X191977254Y-119168491D01*
G37*
G36*
X192890256Y-119143527D02*
G01*
X192893603Y-119149963D01*
X192875990Y-119157792D01*
X192864662Y-119156248D01*
X192861724Y-119143527D01*
X192864861Y-119140966D01*
X192890256Y-119143527D01*
G37*
G36*
X192490817Y-119136394D02*
G01*
X192489273Y-119147722D01*
X192476552Y-119150659D01*
X192473991Y-119147523D01*
X192476552Y-119122128D01*
X192482988Y-119118780D01*
X192490817Y-119136394D01*
G37*
G36*
X192191238Y-119147093D02*
G01*
X192180539Y-119157792D01*
X192169840Y-119147093D01*
X192180539Y-119136394D01*
X192191238Y-119147093D01*
G37*
G36*
X193051190Y-119121776D02*
G01*
X193061095Y-119129478D01*
X193038262Y-119134704D01*
X193016558Y-119133191D01*
X193010176Y-119123466D01*
X193017747Y-119119225D01*
X193051190Y-119121776D01*
G37*
G36*
X191970121Y-119122128D02*
G01*
X191973468Y-119128564D01*
X191955855Y-119136394D01*
X191944527Y-119134849D01*
X191941589Y-119122128D01*
X191944726Y-119119567D01*
X191970121Y-119122128D01*
G37*
G36*
X191741870Y-119125695D02*
G01*
X191731171Y-119136394D01*
X191720472Y-119125695D01*
X191731171Y-119114995D01*
X191741870Y-119125695D01*
G37*
G36*
X191356698Y-119044358D02*
G01*
X191393318Y-119055655D01*
X191444234Y-119084642D01*
X191463690Y-119117615D01*
X191455343Y-119134613D01*
X191424114Y-119125065D01*
X191367397Y-119083958D01*
X191350366Y-119070047D01*
X191321686Y-119044530D01*
X191324323Y-119037915D01*
X191356698Y-119044358D01*
G37*
G36*
X193111373Y-119104296D02*
G01*
X193100674Y-119114995D01*
X193089975Y-119104296D01*
X193100674Y-119093597D01*
X193111373Y-119104296D01*
G37*
G36*
X192887926Y-119073161D02*
G01*
X192908088Y-119093597D01*
X192912073Y-119101173D01*
X192910613Y-119114995D01*
X192906851Y-119114032D01*
X192886689Y-119093597D01*
X192882703Y-119086021D01*
X192884163Y-119072198D01*
X192887926Y-119073161D01*
G37*
G36*
X192488948Y-118909457D02*
G01*
X192502648Y-118931928D01*
X192486218Y-118938184D01*
X192443297Y-118938720D01*
X192398171Y-118953049D01*
X192377183Y-118988295D01*
X192374613Y-119018825D01*
X192394521Y-119021664D01*
X192400198Y-119020070D01*
X192434903Y-119029524D01*
X192459733Y-119059343D01*
X192459299Y-119092659D01*
X192454297Y-119099989D01*
X192437008Y-119114995D01*
X192417206Y-119104577D01*
X192375693Y-119078446D01*
X192326215Y-119045651D01*
X192282428Y-119015248D01*
X192257987Y-118996291D01*
X192257256Y-118993939D01*
X192271405Y-118970275D01*
X192306679Y-118933321D01*
X192315315Y-118925691D01*
X192379985Y-118888364D01*
X192441605Y-118882463D01*
X192488948Y-118909457D01*
G37*
G36*
X192212637Y-119104296D02*
G01*
X192201938Y-119114995D01*
X192191238Y-119104296D01*
X192201938Y-119093597D01*
X192212637Y-119104296D01*
G37*
G36*
X192175306Y-118930932D02*
G01*
X192187661Y-118944816D01*
X192200533Y-118981173D01*
X192179352Y-119019522D01*
X192121319Y-119066917D01*
X192114511Y-119071624D01*
X192056317Y-119103040D01*
X192020340Y-119100954D01*
X192002478Y-119065311D01*
X192009508Y-119036690D01*
X192048444Y-119005797D01*
X192086678Y-118980392D01*
X192120538Y-118938570D01*
X192129958Y-118919141D01*
X192146908Y-118907752D01*
X192175306Y-118930932D01*
G37*
G36*
X191875210Y-119073021D02*
G01*
X191891660Y-119093597D01*
X191891414Y-119098439D01*
X191882223Y-119114995D01*
X191878791Y-119114011D01*
X191859562Y-119093597D01*
X191856218Y-119085308D01*
X191868998Y-119072198D01*
X191875210Y-119073021D01*
G37*
G36*
X191570682Y-119104296D02*
G01*
X191559983Y-119114995D01*
X191549284Y-119104296D01*
X191559983Y-119093597D01*
X191570682Y-119104296D01*
G37*
G36*
X191527885Y-119104296D02*
G01*
X191517186Y-119114995D01*
X191506487Y-119104296D01*
X191517186Y-119093597D01*
X191527885Y-119104296D01*
G37*
G36*
X193325358Y-119082898D02*
G01*
X193314659Y-119093597D01*
X193303960Y-119082898D01*
X193314659Y-119072198D01*
X193325358Y-119082898D01*
G37*
G36*
X193239764Y-119082898D02*
G01*
X193229065Y-119093597D01*
X193218366Y-119082898D01*
X193229065Y-119072198D01*
X193239764Y-119082898D01*
G37*
G36*
X193175569Y-119082898D02*
G01*
X193164869Y-119093597D01*
X193154170Y-119082898D01*
X193164869Y-119072198D01*
X193175569Y-119082898D01*
G37*
G36*
X191720472Y-119082898D02*
G01*
X191709773Y-119093597D01*
X191699073Y-119082898D01*
X191709773Y-119072198D01*
X191720472Y-119082898D01*
G37*
G36*
X192276832Y-119061499D02*
G01*
X192266133Y-119072198D01*
X192255434Y-119061499D01*
X192266133Y-119050800D01*
X192276832Y-119061499D01*
G37*
G36*
X193432350Y-119040101D02*
G01*
X193421651Y-119050800D01*
X193410952Y-119040101D01*
X193421651Y-119029401D01*
X193432350Y-119040101D01*
G37*
G36*
X193338227Y-119008988D02*
G01*
X193357456Y-119029401D01*
X193360799Y-119037690D01*
X193348019Y-119050800D01*
X193341808Y-119049978D01*
X193325358Y-119029401D01*
X193325603Y-119024559D01*
X193334794Y-119008003D01*
X193338227Y-119008988D01*
G37*
G36*
X192833193Y-119040101D02*
G01*
X192822494Y-119050800D01*
X192811794Y-119040101D01*
X192822494Y-119029401D01*
X192833193Y-119040101D01*
G37*
G36*
X192555013Y-119040101D02*
G01*
X192544313Y-119050800D01*
X192533614Y-119040101D01*
X192544313Y-119029401D01*
X192555013Y-119040101D01*
G37*
G36*
X192234035Y-119029401D02*
G01*
X192232491Y-119040730D01*
X192219770Y-119043667D01*
X192217209Y-119040531D01*
X192219770Y-119015136D01*
X192226206Y-119011788D01*
X192234035Y-119029401D01*
G37*
G36*
X191253456Y-119008802D02*
G01*
X191281803Y-119029401D01*
X191285231Y-119037616D01*
X191273629Y-119050800D01*
X191267353Y-119050001D01*
X191239006Y-119029401D01*
X191235578Y-119021187D01*
X191247179Y-119008003D01*
X191253456Y-119008802D01*
G37*
G36*
X192918787Y-119018702D02*
G01*
X192908088Y-119029401D01*
X192897388Y-119018702D01*
X192908088Y-119008003D01*
X192918787Y-119018702D01*
G37*
G36*
X191731491Y-118975555D02*
G01*
X191757929Y-119002653D01*
X191758762Y-119017978D01*
X191740777Y-119028970D01*
X191712455Y-119020979D01*
X191690738Y-118995749D01*
X191688124Y-118973740D01*
X191713424Y-118969001D01*
X191731491Y-118975555D01*
G37*
G36*
X193002305Y-118876374D02*
G01*
X193020976Y-118909853D01*
X193026152Y-118955952D01*
X193014250Y-118991001D01*
X193012922Y-118992031D01*
X192983349Y-118998223D01*
X192932447Y-119000082D01*
X192876232Y-118998109D01*
X192830720Y-118992806D01*
X192811925Y-118984672D01*
X192825952Y-118963834D01*
X192865893Y-118932453D01*
X192917349Y-118900938D01*
X192965713Y-118878139D01*
X192996379Y-118872909D01*
X193002305Y-118876374D01*
G37*
G36*
X191413760Y-118993737D02*
G01*
X191417108Y-119000173D01*
X191399495Y-119008003D01*
X191388166Y-119006459D01*
X191385229Y-118993737D01*
X191388365Y-118991176D01*
X191413760Y-118993737D01*
G37*
G36*
X191233519Y-118897663D02*
G01*
X191243258Y-118925312D01*
X191218522Y-118964196D01*
X191180828Y-118993294D01*
X191153000Y-118986581D01*
X191142713Y-118941873D01*
X191142739Y-118940029D01*
X191159495Y-118899913D01*
X191195505Y-118882992D01*
X191233519Y-118897663D01*
G37*
G36*
X191463690Y-118965206D02*
G01*
X191462146Y-118976534D01*
X191449424Y-118979472D01*
X191446863Y-118976335D01*
X191449424Y-118950940D01*
X191455861Y-118947593D01*
X191463690Y-118965206D01*
G37*
G36*
X193325358Y-118954507D02*
G01*
X193314659Y-118965206D01*
X193303960Y-118954507D01*
X193314659Y-118943807D01*
X193325358Y-118954507D01*
G37*
G36*
X193189834Y-118950940D02*
G01*
X193193182Y-118957377D01*
X193175569Y-118965206D01*
X193164240Y-118963662D01*
X193161303Y-118950940D01*
X193164439Y-118948379D01*
X193189834Y-118950940D01*
G37*
G36*
X192768997Y-118933108D02*
G01*
X192758298Y-118943807D01*
X192747599Y-118933108D01*
X192758298Y-118922409D01*
X192768997Y-118933108D01*
G37*
G36*
X191335299Y-118933108D02*
G01*
X191324600Y-118943807D01*
X191313901Y-118933108D01*
X191324600Y-118922409D01*
X191335299Y-118933108D01*
G37*
G36*
X191031591Y-118817544D02*
G01*
X191071048Y-118841079D01*
X191101195Y-118878015D01*
X191107373Y-118912442D01*
X191105548Y-118916701D01*
X191085870Y-118930456D01*
X191044621Y-118917696D01*
X191016188Y-118896681D01*
X190995422Y-118861249D01*
X190994757Y-118829304D01*
X191017987Y-118815417D01*
X191031591Y-118817544D01*
G37*
G36*
X192289575Y-118897704D02*
G01*
X192282969Y-118907210D01*
X192264870Y-118922409D01*
X192261879Y-118922201D01*
X192257166Y-118909814D01*
X192280139Y-118888268D01*
X192292097Y-118883061D01*
X192289575Y-118897704D01*
G37*
G36*
X193347370Y-118802461D02*
G01*
X193402920Y-118820376D01*
X193420032Y-118827662D01*
X193468588Y-118854234D01*
X193492027Y-118876754D01*
X193481292Y-118889509D01*
X193432478Y-118897172D01*
X193343153Y-118898678D01*
X193217551Y-118894687D01*
X193131174Y-118886569D01*
X193086474Y-118874502D01*
X193083697Y-118858633D01*
X193123090Y-118839110D01*
X193204902Y-118816080D01*
X193227768Y-118810754D01*
X193295490Y-118799394D01*
X193347370Y-118802461D01*
G37*
G36*
X192234035Y-118868913D02*
G01*
X192223336Y-118879612D01*
X192212637Y-118868913D01*
X192223336Y-118858213D01*
X192234035Y-118868913D01*
G37*
G36*
X191506487Y-118868913D02*
G01*
X191495788Y-118879612D01*
X191485088Y-118868913D01*
X191495788Y-118858213D01*
X191506487Y-118868913D01*
G37*
G36*
X192918787Y-118847514D02*
G01*
X192908088Y-118858213D01*
X192897388Y-118847514D01*
X192908088Y-118836815D01*
X192918787Y-118847514D01*
G37*
G36*
X191420893Y-118835552D02*
G01*
X191420071Y-118841763D01*
X191399495Y-118858213D01*
X191394652Y-118857968D01*
X191378096Y-118848777D01*
X191379081Y-118845345D01*
X191399495Y-118826116D01*
X191407783Y-118822772D01*
X191420893Y-118835552D01*
G37*
G36*
X190800337Y-118780306D02*
G01*
X190801971Y-118789505D01*
X190813326Y-118824366D01*
X190816933Y-118842426D01*
X190804916Y-118858213D01*
X190779864Y-118842446D01*
X190768680Y-118809362D01*
X190779873Y-118782741D01*
X190786592Y-118779158D01*
X190800337Y-118780306D01*
G37*
G36*
X192472262Y-118714708D02*
G01*
X192490817Y-118739850D01*
X192494032Y-118753958D01*
X192517565Y-118764756D01*
X192527789Y-118762797D01*
X192528265Y-118767211D01*
X192525878Y-118768777D01*
X192512216Y-118797064D01*
X192514865Y-118804804D01*
X192536920Y-118802674D01*
X192547236Y-118797832D01*
X192549191Y-118807525D01*
X192534814Y-118818771D01*
X192493574Y-118827644D01*
X192487374Y-118827574D01*
X192463348Y-118820733D01*
X192475954Y-118796683D01*
X192484950Y-118784708D01*
X192483438Y-118772204D01*
X192446939Y-118776086D01*
X192440669Y-118777200D01*
X192402039Y-118775185D01*
X192389423Y-118747438D01*
X192398070Y-118718482D01*
X192438651Y-118708424D01*
X192472262Y-118714708D01*
G37*
G36*
X191784667Y-118826116D02*
G01*
X191773968Y-118836815D01*
X191763269Y-118826116D01*
X191773968Y-118815417D01*
X191784667Y-118826116D01*
G37*
G36*
X193774726Y-118783319D02*
G01*
X193764027Y-118794018D01*
X193753328Y-118783319D01*
X193764027Y-118772620D01*
X193774726Y-118783319D01*
G37*
G36*
X191809280Y-118741376D02*
G01*
X191827464Y-118764184D01*
X191816735Y-118783081D01*
X191777534Y-118794018D01*
X191756256Y-118791776D01*
X191730037Y-118773994D01*
X191737131Y-118750853D01*
X191777536Y-118737436D01*
X191809280Y-118741376D01*
G37*
G36*
X193709107Y-118696845D02*
G01*
X193719884Y-118707943D01*
X193731249Y-118747134D01*
X193730473Y-118761246D01*
X193722567Y-118768865D01*
X193699372Y-118742084D01*
X193679752Y-118708728D01*
X193681634Y-118688770D01*
X193709107Y-118696845D01*
G37*
G36*
X193303960Y-118761920D02*
G01*
X193293260Y-118772620D01*
X193282561Y-118761920D01*
X193293260Y-118751221D01*
X193303960Y-118761920D01*
G37*
G36*
X192246904Y-118730807D02*
G01*
X192266133Y-118751221D01*
X192269477Y-118759510D01*
X192256697Y-118772620D01*
X192250486Y-118771797D01*
X192234035Y-118751221D01*
X192234281Y-118746378D01*
X192243472Y-118729823D01*
X192246904Y-118730807D01*
G37*
G36*
X191014322Y-118761920D02*
G01*
X191003623Y-118772620D01*
X190992923Y-118761920D01*
X191003623Y-118751221D01*
X191014322Y-118761920D01*
G37*
G36*
X193594882Y-118726516D02*
G01*
X193588277Y-118736022D01*
X193570178Y-118751221D01*
X193567186Y-118751013D01*
X193562474Y-118738626D01*
X193585446Y-118717080D01*
X193597405Y-118711873D01*
X193594882Y-118726516D01*
G37*
G36*
X191520257Y-118697347D02*
G01*
X191537209Y-118723550D01*
X191538732Y-118727610D01*
X191543222Y-118749051D01*
X191525230Y-118735529D01*
X191513020Y-118719795D01*
X191510620Y-118697159D01*
X191520257Y-118697347D01*
G37*
G36*
X193830266Y-118705118D02*
G01*
X193823660Y-118714624D01*
X193805561Y-118729823D01*
X193802570Y-118729614D01*
X193797857Y-118717227D01*
X193820829Y-118695681D01*
X193832788Y-118690475D01*
X193830266Y-118705118D01*
G37*
G36*
X193486796Y-118604921D02*
G01*
X193487129Y-118605245D01*
X193526285Y-118655895D01*
X193532318Y-118695865D01*
X193523882Y-118711541D01*
X193494984Y-118729485D01*
X193468227Y-118713774D01*
X193467141Y-118711652D01*
X193456192Y-118677171D01*
X193443512Y-118622830D01*
X193428243Y-118547935D01*
X193486796Y-118604921D01*
G37*
G36*
X193318167Y-118627867D02*
G01*
X193326473Y-118636744D01*
X193333648Y-118655573D01*
X193312990Y-118672235D01*
X193257915Y-118693948D01*
X193216540Y-118707582D01*
X193139513Y-118722216D01*
X193092538Y-118710685D01*
X193072657Y-118672648D01*
X193071650Y-118664522D01*
X193077383Y-118636461D01*
X193110252Y-118637735D01*
X193160540Y-118637961D01*
X193219921Y-118622186D01*
X193250859Y-118610647D01*
X193288226Y-118607483D01*
X193318167Y-118627867D01*
G37*
G36*
X192966939Y-118670446D02*
G01*
X192982982Y-118696156D01*
X192975188Y-118716229D01*
X192938402Y-118729823D01*
X192925602Y-118728641D01*
X192903669Y-118712002D01*
X192911639Y-118687277D01*
X192947308Y-118669408D01*
X192966939Y-118670446D01*
G37*
G36*
X193047178Y-118697725D02*
G01*
X193036479Y-118708424D01*
X193025779Y-118697725D01*
X193036479Y-118687026D01*
X193047178Y-118697725D01*
G37*
G36*
X192310987Y-118667188D02*
G01*
X192295785Y-118688537D01*
X192280469Y-118696412D01*
X192258107Y-118694939D01*
X192265469Y-118666702D01*
X192272631Y-118658898D01*
X192301994Y-118657254D01*
X192310987Y-118667188D01*
G37*
G36*
X193646335Y-118676326D02*
G01*
X193635636Y-118687026D01*
X193624937Y-118676326D01*
X193635636Y-118665627D01*
X193646335Y-118676326D01*
G37*
G36*
X192547880Y-118672760D02*
G01*
X192551228Y-118679196D01*
X192533614Y-118687026D01*
X192522286Y-118685481D01*
X192519349Y-118672760D01*
X192522485Y-118670199D01*
X192547880Y-118672760D01*
G37*
G36*
X193689132Y-118654928D02*
G01*
X193678433Y-118665627D01*
X193667734Y-118654928D01*
X193678433Y-118644229D01*
X193689132Y-118654928D01*
G37*
G36*
X192212637Y-118654928D02*
G01*
X192201938Y-118665627D01*
X192191238Y-118654928D01*
X192201938Y-118644229D01*
X192212637Y-118654928D01*
G37*
G36*
X193708642Y-118575778D02*
G01*
X193724957Y-118586351D01*
X193767273Y-118591221D01*
X193796061Y-118593975D01*
X193802431Y-118615862D01*
X193802302Y-118616192D01*
X193774123Y-118639470D01*
X193731892Y-118642082D01*
X193699616Y-118622481D01*
X193691619Y-118614757D01*
X193660906Y-118615889D01*
X193651789Y-118616573D01*
X193665845Y-118593827D01*
X193687813Y-118574634D01*
X193708642Y-118575778D01*
G37*
G36*
X193624937Y-118633529D02*
G01*
X193614238Y-118644229D01*
X193603538Y-118633529D01*
X193614238Y-118622830D01*
X193624937Y-118633529D01*
G37*
G36*
X192526481Y-118629963D02*
G01*
X192529829Y-118636399D01*
X192512216Y-118644229D01*
X192500887Y-118642684D01*
X192497950Y-118629963D01*
X192501086Y-118627402D01*
X192526481Y-118629963D01*
G37*
G36*
X191447406Y-118580655D02*
G01*
X191463690Y-118601432D01*
X191463068Y-118606546D01*
X191442291Y-118622830D01*
X191437177Y-118622208D01*
X191420893Y-118601432D01*
X191421515Y-118596317D01*
X191442291Y-118580033D01*
X191447406Y-118580655D01*
G37*
G36*
X191292502Y-118612131D02*
G01*
X191281803Y-118622830D01*
X191271104Y-118612131D01*
X191281803Y-118601432D01*
X191292502Y-118612131D01*
G37*
G36*
X193154170Y-118590732D02*
G01*
X193143471Y-118601432D01*
X193132772Y-118590732D01*
X193143471Y-118580033D01*
X193154170Y-118590732D01*
G37*
G36*
X193047178Y-118590732D02*
G01*
X193036479Y-118601432D01*
X193025779Y-118590732D01*
X193036479Y-118580033D01*
X193047178Y-118590732D01*
G37*
G36*
X192505083Y-118587166D02*
G01*
X192508431Y-118593602D01*
X192490817Y-118601432D01*
X192479489Y-118599887D01*
X192476552Y-118587166D01*
X192479688Y-118584605D01*
X192505083Y-118587166D01*
G37*
G36*
X193738231Y-118422966D02*
G01*
X193751014Y-118423973D01*
X193837923Y-118430653D01*
X193923228Y-118437005D01*
X193960253Y-118441505D01*
X194011168Y-118457502D01*
X194030303Y-118479661D01*
X194012174Y-118503863D01*
X194003464Y-118513815D01*
X194002634Y-118548621D01*
X194005275Y-118564576D01*
X193989738Y-118580033D01*
X193981071Y-118578462D01*
X193977228Y-118559902D01*
X193978424Y-118556900D01*
X193961919Y-118548473D01*
X193913452Y-118552140D01*
X193899134Y-118554195D01*
X193838566Y-118551323D01*
X193789931Y-118521085D01*
X193735914Y-118486235D01*
X193670234Y-118462326D01*
X193642824Y-118455122D01*
X193619133Y-118440874D01*
X193630514Y-118428810D01*
X193671902Y-118421863D01*
X193738231Y-118422966D01*
G37*
G36*
X193546443Y-118522531D02*
G01*
X193570215Y-118530268D01*
X193606551Y-118537236D01*
X193613539Y-118538873D01*
X193614238Y-118558635D01*
X193606761Y-118568605D01*
X193575851Y-118576998D01*
X193536613Y-118543929D01*
X193526648Y-118531318D01*
X193520062Y-118515467D01*
X193546443Y-118522531D01*
G37*
G36*
X192940185Y-118558635D02*
G01*
X192938641Y-118569963D01*
X192925920Y-118572900D01*
X192923359Y-118569764D01*
X192925920Y-118544369D01*
X192932356Y-118541021D01*
X192940185Y-118558635D01*
G37*
G36*
X191506487Y-118569334D02*
G01*
X191495788Y-118580033D01*
X191485088Y-118569334D01*
X191495788Y-118558635D01*
X191506487Y-118569334D01*
G37*
G36*
X191399495Y-118569334D02*
G01*
X191388795Y-118580033D01*
X191378096Y-118569334D01*
X191388795Y-118558635D01*
X191399495Y-118569334D01*
G37*
G36*
X191206908Y-118569334D02*
G01*
X191196209Y-118580033D01*
X191185510Y-118569334D01*
X191196209Y-118558635D01*
X191206908Y-118569334D01*
G37*
G36*
X192581761Y-118544463D02*
G01*
X192585391Y-118551893D01*
X192555013Y-118555256D01*
X192525576Y-118552273D01*
X192528265Y-118544463D01*
X192537951Y-118541637D01*
X192581761Y-118544463D01*
G37*
G36*
X192462286Y-118544369D02*
G01*
X192465634Y-118550805D01*
X192448020Y-118558635D01*
X192436692Y-118557090D01*
X192433755Y-118544369D01*
X192436891Y-118541808D01*
X192462286Y-118544369D01*
G37*
G36*
X192747599Y-118526537D02*
G01*
X192736900Y-118537236D01*
X192726201Y-118526537D01*
X192736900Y-118515838D01*
X192747599Y-118526537D01*
G37*
G36*
X192918669Y-118395833D02*
G01*
X192971462Y-118416298D01*
X192995220Y-118440592D01*
X192996421Y-118469605D01*
X192965110Y-118486558D01*
X192907306Y-118485005D01*
X192904640Y-118484520D01*
X192851891Y-118481946D01*
X192822899Y-118493783D01*
X192809458Y-118509253D01*
X192778540Y-118510030D01*
X192746143Y-118470319D01*
X192745365Y-118468857D01*
X192732878Y-118430036D01*
X192750739Y-118406452D01*
X192780896Y-118394798D01*
X192847800Y-118388338D01*
X192918669Y-118395833D01*
G37*
G36*
X193549187Y-118433865D02*
G01*
X193560741Y-118462342D01*
X193558327Y-118477107D01*
X193539343Y-118494439D01*
X193529499Y-118490818D01*
X193517944Y-118462342D01*
X193520359Y-118447576D01*
X193539343Y-118430244D01*
X193549187Y-118433865D01*
G37*
G36*
X193421493Y-118414311D02*
G01*
X193432350Y-118440943D01*
X193428859Y-118458610D01*
X193409347Y-118468939D01*
X193403003Y-118466033D01*
X193386344Y-118440943D01*
X193387239Y-118435038D01*
X193409347Y-118412947D01*
X193421493Y-118414311D01*
G37*
G36*
X193142165Y-118409700D02*
G01*
X193154170Y-118446791D01*
X193153574Y-118462772D01*
X193145032Y-118470066D01*
X193117997Y-118446038D01*
X193097879Y-118419624D01*
X193095174Y-118396513D01*
X193116117Y-118390455D01*
X193142165Y-118409700D01*
G37*
G36*
X191028587Y-118458775D02*
G01*
X191031935Y-118465211D01*
X191014322Y-118473041D01*
X191002994Y-118471496D01*
X191000056Y-118458775D01*
X191003192Y-118456214D01*
X191028587Y-118458775D01*
G37*
G36*
X192555013Y-118440943D02*
G01*
X192544313Y-118451642D01*
X192533614Y-118440943D01*
X192544313Y-118430244D01*
X192555013Y-118440943D01*
G37*
G36*
X191356698Y-118440943D02*
G01*
X191345998Y-118451642D01*
X191335299Y-118440943D01*
X191345998Y-118430244D01*
X191356698Y-118440943D01*
G37*
G36*
X191312619Y-118421089D02*
G01*
X191306251Y-118427816D01*
X191265701Y-118445504D01*
X191197657Y-118443575D01*
X191178836Y-118441185D01*
X191124327Y-118434534D01*
X191094566Y-118431331D01*
X191093675Y-118431245D01*
X191083737Y-118419545D01*
X191142713Y-118419545D01*
X191153412Y-118430244D01*
X191164111Y-118419545D01*
X191153412Y-118408845D01*
X191142713Y-118419545D01*
X191083737Y-118419545D01*
X191078517Y-118413399D01*
X191082229Y-118405404D01*
X191110671Y-118394752D01*
X191148874Y-118395461D01*
X191174678Y-118408630D01*
X191175751Y-118409992D01*
X191204971Y-118415875D01*
X191255202Y-118407269D01*
X191293342Y-118396493D01*
X191326963Y-118389450D01*
X191331002Y-118397074D01*
X191313801Y-118419545D01*
X191312619Y-118421089D01*
G37*
G36*
X194202696Y-118398146D02*
G01*
X194191997Y-118408845D01*
X194181297Y-118398146D01*
X194191997Y-118387447D01*
X194202696Y-118398146D01*
G37*
G36*
X194151243Y-118384141D02*
G01*
X194144638Y-118393646D01*
X194126538Y-118408845D01*
X194123547Y-118408637D01*
X194118834Y-118396250D01*
X194141807Y-118374704D01*
X194153765Y-118369498D01*
X194151243Y-118384141D01*
G37*
G36*
X193860320Y-118398146D02*
G01*
X193849621Y-118408845D01*
X193838922Y-118398146D01*
X193849621Y-118387447D01*
X193860320Y-118398146D01*
G37*
G36*
X193787557Y-118329678D02*
G01*
X193796125Y-118362482D01*
X193791286Y-118384056D01*
X193766963Y-118401713D01*
X193751415Y-118395454D01*
X193748060Y-118362482D01*
X193756823Y-118340935D01*
X193777222Y-118323251D01*
X193787557Y-118329678D01*
G37*
G36*
X193539343Y-118398146D02*
G01*
X193528644Y-118408845D01*
X193517944Y-118398146D01*
X193528644Y-118387447D01*
X193539343Y-118398146D01*
G37*
G36*
X192490817Y-118398146D02*
G01*
X192480118Y-118408845D01*
X192469419Y-118398146D01*
X192480118Y-118387447D01*
X192490817Y-118398146D01*
G37*
G36*
X194086731Y-118325737D02*
G01*
X194096325Y-118398146D01*
X194063233Y-118339300D01*
X194062816Y-118338563D01*
X194030367Y-118297498D01*
X194018590Y-118291154D01*
X194052906Y-118291154D01*
X194063606Y-118301853D01*
X194074305Y-118291154D01*
X194063606Y-118280454D01*
X194052906Y-118291154D01*
X194018590Y-118291154D01*
X193998727Y-118280454D01*
X193972415Y-118270808D01*
X193971622Y-118246446D01*
X194000849Y-118223445D01*
X194035162Y-118220709D01*
X194067686Y-118252954D01*
X194077682Y-118291154D01*
X194086731Y-118325737D01*
G37*
G36*
X194022045Y-118345613D02*
G01*
X194042207Y-118366048D01*
X194046193Y-118373625D01*
X194044733Y-118387447D01*
X194040971Y-118386484D01*
X194020809Y-118366048D01*
X194016823Y-118358472D01*
X194018283Y-118344650D01*
X194022045Y-118345613D01*
G37*
G36*
X191435159Y-118373181D02*
G01*
X191438506Y-118379617D01*
X191420893Y-118387447D01*
X191409565Y-118385903D01*
X191406627Y-118373181D01*
X191409764Y-118370620D01*
X191435159Y-118373181D01*
G37*
G36*
X190907329Y-118376748D02*
G01*
X190896630Y-118387447D01*
X190885931Y-118376748D01*
X190896630Y-118366048D01*
X190907329Y-118376748D01*
G37*
G36*
X191384265Y-118267817D02*
G01*
X191404824Y-118284997D01*
X191391054Y-118305447D01*
X191346664Y-118319323D01*
X191310454Y-118330050D01*
X191290020Y-118351421D01*
X191286323Y-118358448D01*
X191277215Y-118336515D01*
X191278917Y-118300873D01*
X191310814Y-118270479D01*
X191367397Y-118264283D01*
X191384265Y-118267817D01*
G37*
G36*
X191162401Y-118316230D02*
G01*
X191180638Y-118327035D01*
X191225565Y-118330260D01*
X191232073Y-118328232D01*
X191248595Y-118325684D01*
X191228307Y-118342304D01*
X191210469Y-118354872D01*
X191193479Y-118365721D01*
X191185877Y-118358076D01*
X191162414Y-118328601D01*
X191154720Y-118318323D01*
X191145073Y-118302608D01*
X191162401Y-118316230D01*
G37*
G36*
X190971525Y-118355349D02*
G01*
X190960826Y-118366048D01*
X190950126Y-118355349D01*
X190960826Y-118344650D01*
X190971525Y-118355349D01*
G37*
G36*
X194202696Y-118333951D02*
G01*
X194191997Y-118344650D01*
X194181297Y-118333951D01*
X194191997Y-118323251D01*
X194202696Y-118333951D01*
G37*
G36*
X193077510Y-118244733D02*
G01*
X193077621Y-118285668D01*
X193073128Y-118314832D01*
X193090988Y-118311926D01*
X193105391Y-118305443D01*
X193102717Y-118319945D01*
X193079471Y-118334820D01*
X193032102Y-118343769D01*
X192983287Y-118342065D01*
X192954125Y-118328494D01*
X192958159Y-118303748D01*
X192983080Y-118264249D01*
X193013886Y-118237159D01*
X193052243Y-118227652D01*
X193077510Y-118244733D01*
G37*
G36*
X192651306Y-118299348D02*
G01*
X192653933Y-118301893D01*
X192640927Y-118314001D01*
X192597810Y-118325646D01*
X192537717Y-118335899D01*
X192493411Y-118340968D01*
X192473826Y-118337534D01*
X192469419Y-118325593D01*
X192476681Y-118316711D01*
X192513123Y-118303732D01*
X192565513Y-118294905D01*
X192617143Y-118292640D01*
X192651306Y-118299348D01*
G37*
G36*
X191062234Y-118302475D02*
G01*
X191078517Y-118323251D01*
X191077895Y-118328366D01*
X191057119Y-118344650D01*
X191052004Y-118344028D01*
X191035720Y-118323251D01*
X191036342Y-118318137D01*
X191057119Y-118301853D01*
X191062234Y-118302475D01*
G37*
G36*
X194010110Y-118312552D02*
G01*
X193999410Y-118323251D01*
X193988711Y-118312552D01*
X193999410Y-118301853D01*
X194010110Y-118312552D01*
G37*
G36*
X193375088Y-118266004D02*
G01*
X193396482Y-118289043D01*
X193398060Y-118306392D01*
X193373183Y-118313921D01*
X193355940Y-118308627D01*
X193330084Y-118283934D01*
X193329207Y-118271338D01*
X193346652Y-118259640D01*
X193375088Y-118266004D01*
G37*
G36*
X193032794Y-118085001D02*
G01*
X193039562Y-118123934D01*
X193025112Y-118169643D01*
X192993851Y-118203243D01*
X192992763Y-118203853D01*
X192945391Y-118234462D01*
X192891629Y-118274211D01*
X192885142Y-118279146D01*
X192837087Y-118305221D01*
X192800516Y-118309369D01*
X192779251Y-118296904D01*
X192770801Y-118266596D01*
X192798614Y-118230781D01*
X192859941Y-118194761D01*
X192884254Y-118182839D01*
X192942265Y-118145534D01*
X192978333Y-118109540D01*
X193000547Y-118083063D01*
X193023583Y-118075811D01*
X193032794Y-118085001D01*
G37*
G36*
X192405223Y-118312552D02*
G01*
X192394524Y-118323251D01*
X192383825Y-118312552D01*
X192394524Y-118301853D01*
X192405223Y-118312552D01*
G37*
G36*
X191463690Y-118312552D02*
G01*
X191452991Y-118323251D01*
X191442291Y-118312552D01*
X191452991Y-118301853D01*
X191463690Y-118312552D01*
G37*
G36*
X194202696Y-118280454D02*
G01*
X194201152Y-118291783D01*
X194188430Y-118294720D01*
X194185869Y-118291584D01*
X194188430Y-118266189D01*
X194194867Y-118262841D01*
X194202696Y-118280454D01*
G37*
G36*
X194245493Y-118269755D02*
G01*
X194234794Y-118280454D01*
X194224094Y-118269755D01*
X194234794Y-118259056D01*
X194245493Y-118269755D01*
G37*
G36*
X193561013Y-118230713D02*
G01*
X193567332Y-118234874D01*
X193615409Y-118252829D01*
X193678704Y-118264564D01*
X193764027Y-118273260D01*
X193675704Y-118276857D01*
X193673018Y-118276959D01*
X193600551Y-118270463D01*
X193558012Y-118243007D01*
X193547661Y-118229606D01*
X193540043Y-118216069D01*
X193561013Y-118230713D01*
G37*
G36*
X191219651Y-118234351D02*
G01*
X191213045Y-118243857D01*
X191194946Y-118259056D01*
X191191955Y-118258848D01*
X191187242Y-118246461D01*
X191210214Y-118224915D01*
X191222173Y-118219708D01*
X191219651Y-118234351D01*
G37*
G36*
X194202696Y-118226958D02*
G01*
X194191997Y-118237657D01*
X194181297Y-118226958D01*
X194191997Y-118216259D01*
X194202696Y-118226958D01*
G37*
G36*
X191442291Y-118226958D02*
G01*
X191431592Y-118237657D01*
X191420893Y-118226958D01*
X191431592Y-118216259D01*
X191442291Y-118226958D01*
G37*
G36*
X190878297Y-118180094D02*
G01*
X190881562Y-118185685D01*
X190876112Y-118214835D01*
X190875826Y-118215290D01*
X190848088Y-118234575D01*
X190815825Y-118234745D01*
X190800337Y-118215587D01*
X190815698Y-118191806D01*
X190849690Y-118175901D01*
X190878297Y-118180094D01*
G37*
G36*
X193845178Y-118109033D02*
G01*
X193856029Y-118122995D01*
X193848599Y-118124517D01*
X193833702Y-118120970D01*
X193795103Y-118131749D01*
X193789814Y-118135223D01*
X193780764Y-118148124D01*
X193810911Y-118151736D01*
X193845799Y-118157249D01*
X193872695Y-118176984D01*
X193866871Y-118202575D01*
X193837555Y-118216481D01*
X193795308Y-118207621D01*
X193768732Y-118174249D01*
X193766469Y-118150167D01*
X193781557Y-118112367D01*
X193811928Y-118095129D01*
X193845178Y-118109033D01*
G37*
G36*
X192105644Y-118184833D02*
G01*
X192101924Y-118199474D01*
X192073547Y-118216259D01*
X192058815Y-118214114D01*
X192041449Y-118197150D01*
X192045230Y-118186728D01*
X192073547Y-118165724D01*
X192091466Y-118163245D01*
X192105644Y-118184833D01*
G37*
G36*
X191313901Y-118205560D02*
G01*
X191303201Y-118216259D01*
X191292502Y-118205560D01*
X191303201Y-118194860D01*
X191313901Y-118205560D01*
G37*
G36*
X191527885Y-118184161D02*
G01*
X191517186Y-118194860D01*
X191506487Y-118184161D01*
X191517186Y-118173462D01*
X191527885Y-118184161D01*
G37*
G36*
X190959968Y-118116676D02*
G01*
X190980463Y-118123192D01*
X191026771Y-118130665D01*
X191040888Y-118134373D01*
X191057119Y-118162763D01*
X191056635Y-118170353D01*
X191039618Y-118192793D01*
X191005225Y-118185129D01*
X190962974Y-118148774D01*
X190942993Y-118124523D01*
X190937447Y-118110545D01*
X190959968Y-118116676D01*
G37*
G36*
X192276832Y-118162763D02*
G01*
X192266133Y-118173462D01*
X192255434Y-118162763D01*
X192266133Y-118152064D01*
X192276832Y-118162763D01*
G37*
G36*
X191679203Y-118056255D02*
G01*
X191679543Y-118056364D01*
X191715075Y-118077733D01*
X191714337Y-118099378D01*
X191677675Y-118109267D01*
X191652718Y-118115224D01*
X191634878Y-118141364D01*
X191634170Y-118148847D01*
X191614100Y-118169892D01*
X191575562Y-118169557D01*
X191530964Y-118152231D01*
X191492713Y-118122304D01*
X191473215Y-118084166D01*
X191475677Y-118074587D01*
X191505759Y-118057095D01*
X191558776Y-118046980D01*
X191621125Y-118046086D01*
X191679203Y-118056255D01*
G37*
G36*
X191364100Y-118030514D02*
G01*
X191372882Y-118050421D01*
X191371856Y-118052752D01*
X191342982Y-118072343D01*
X191291497Y-118084225D01*
X191218892Y-118091282D01*
X191271746Y-118131896D01*
X191299760Y-118156114D01*
X191303124Y-118170342D01*
X191269524Y-118166145D01*
X191198059Y-118143668D01*
X191114316Y-118114518D01*
X191165962Y-118086004D01*
X191206620Y-118068360D01*
X191242742Y-118062548D01*
X191251119Y-118063035D01*
X191281452Y-118045639D01*
X191298011Y-118031554D01*
X191332941Y-118023901D01*
X191364100Y-118030514D01*
G37*
G36*
X191447998Y-118128010D02*
G01*
X191450763Y-118130828D01*
X191461018Y-118146503D01*
X191436019Y-118139989D01*
X191416049Y-118129317D01*
X191409628Y-118113399D01*
X191419942Y-118111107D01*
X191447998Y-118128010D01*
G37*
G36*
X190907329Y-118141364D02*
G01*
X190896630Y-118152064D01*
X190885931Y-118141364D01*
X190896630Y-118130665D01*
X190907329Y-118141364D01*
G37*
G36*
X190737634Y-118035294D02*
G01*
X190743740Y-118052208D01*
X190730521Y-118088916D01*
X190705327Y-118116497D01*
X190674352Y-118118893D01*
X190654847Y-118083438D01*
X190666057Y-118051123D01*
X190700259Y-118031179D01*
X190737634Y-118035294D01*
G37*
G36*
X192300842Y-118025925D02*
G01*
X192334252Y-118044747D01*
X192368258Y-118072976D01*
X192383825Y-118095577D01*
X192383105Y-118097461D01*
X192358002Y-118105856D01*
X192308177Y-118109267D01*
X192307685Y-118109266D01*
X192259041Y-118106819D01*
X192244483Y-118094873D01*
X192255434Y-118066470D01*
X192272760Y-118040314D01*
X192293634Y-118024353D01*
X192300842Y-118025925D01*
G37*
G36*
X190982907Y-117973399D02*
G01*
X190999046Y-117983198D01*
X190997748Y-117999902D01*
X190988836Y-118010297D01*
X190982980Y-118047823D01*
X190979213Y-118070699D01*
X190947852Y-118072075D01*
X190920326Y-118060738D01*
X190909967Y-118037893D01*
X190940783Y-118015414D01*
X190956321Y-118005534D01*
X190961071Y-117981272D01*
X190959334Y-117970964D01*
X190982907Y-117973399D01*
G37*
G36*
X192716738Y-118024635D02*
G01*
X192736900Y-118045071D01*
X192740885Y-118052647D01*
X192739426Y-118066470D01*
X192735663Y-118065507D01*
X192715501Y-118045071D01*
X192711516Y-118037495D01*
X192712976Y-118023673D01*
X192716738Y-118024635D01*
G37*
G36*
X194031508Y-118034372D02*
G01*
X194020809Y-118045071D01*
X194010110Y-118034372D01*
X194020809Y-118023673D01*
X194031508Y-118034372D01*
G37*
G36*
X193988711Y-118034372D02*
G01*
X193978012Y-118045071D01*
X193967313Y-118034372D01*
X193978012Y-118023673D01*
X193988711Y-118034372D01*
G37*
G36*
X193881719Y-118034372D02*
G01*
X193871019Y-118045071D01*
X193860320Y-118034372D01*
X193871019Y-118023673D01*
X193881719Y-118034372D01*
G37*
G36*
X191891660Y-118034372D02*
G01*
X191880960Y-118045071D01*
X191870261Y-118034372D01*
X191880960Y-118023673D01*
X191891660Y-118034372D01*
G37*
G36*
X191940163Y-117999619D02*
G01*
X191942928Y-118002437D01*
X191953184Y-118018113D01*
X191928184Y-118011598D01*
X191908214Y-118000926D01*
X191901793Y-117985008D01*
X191912107Y-117982717D01*
X191940163Y-117999619D01*
G37*
G36*
X190916332Y-117961157D02*
G01*
X190918029Y-117980876D01*
X190913637Y-117987279D01*
X190895367Y-118002274D01*
X190893232Y-118001718D01*
X190885931Y-117980876D01*
X190886802Y-117975011D01*
X190908592Y-117959477D01*
X190916332Y-117961157D01*
G37*
G36*
X191099916Y-117948778D02*
G01*
X191089217Y-117959477D01*
X191078517Y-117948778D01*
X191089217Y-117938079D01*
X191099916Y-117948778D01*
G37*
G36*
X190864532Y-117938079D02*
G01*
X190862988Y-117949407D01*
X190850267Y-117952344D01*
X190847706Y-117949208D01*
X190850267Y-117923813D01*
X190856703Y-117920465D01*
X190864532Y-117938079D01*
G37*
G36*
X190729009Y-117945212D02*
G01*
X190732356Y-117951648D01*
X190714743Y-117959477D01*
X190703415Y-117957933D01*
X190700477Y-117945212D01*
X190703614Y-117942651D01*
X190729009Y-117945212D01*
G37*
G36*
X191100285Y-117842014D02*
G01*
X191109888Y-117860472D01*
X191087294Y-117897406D01*
X191071968Y-117912754D01*
X191033519Y-117936166D01*
X191009590Y-117929598D01*
X191008595Y-117893471D01*
X191020947Y-117864781D01*
X191057123Y-117835823D01*
X191100285Y-117842014D01*
G37*
G36*
X190928728Y-117916680D02*
G01*
X190927184Y-117928008D01*
X190914462Y-117930946D01*
X190911901Y-117927810D01*
X190914462Y-117902415D01*
X190920899Y-117899067D01*
X190928728Y-117916680D01*
G37*
G36*
X190769604Y-117742221D02*
G01*
X190785494Y-117750250D01*
X190817593Y-117778458D01*
X190811792Y-117800677D01*
X190768239Y-117809688D01*
X190730656Y-117816343D01*
X190714770Y-117837061D01*
X190736142Y-117863184D01*
X190741861Y-117867549D01*
X190757540Y-117899155D01*
X190749300Y-117912557D01*
X190725317Y-117902788D01*
X190695068Y-117874978D01*
X190668225Y-117838266D01*
X190654464Y-117801789D01*
X190653636Y-117791396D01*
X190666946Y-117744527D01*
X190707524Y-117727141D01*
X190769604Y-117742221D01*
G37*
G36*
X190971525Y-117884582D02*
G01*
X190960826Y-117895282D01*
X190950126Y-117884582D01*
X190960826Y-117873883D01*
X190971525Y-117884582D01*
G37*
G36*
X190985791Y-117838219D02*
G01*
X190989138Y-117844655D01*
X190971525Y-117852485D01*
X190960197Y-117850940D01*
X190957259Y-117838219D01*
X190960396Y-117835658D01*
X190985791Y-117838219D01*
G37*
G36*
X190586352Y-118590732D02*
G01*
X190575653Y-118601432D01*
X190564954Y-118590732D01*
X190575653Y-118580033D01*
X190586352Y-118590732D01*
G37*
G36*
X190342439Y-118388432D02*
G01*
X190361668Y-118408845D01*
X190365012Y-118417134D01*
X190352232Y-118430244D01*
X190346020Y-118429422D01*
X190329570Y-118408845D01*
X190329816Y-118404003D01*
X190339007Y-118387447D01*
X190342439Y-118388432D01*
G37*
G36*
X193303960Y-117863184D02*
G01*
X193293260Y-117873883D01*
X193282561Y-117863184D01*
X193293260Y-117852485D01*
X193303960Y-117863184D01*
G37*
G36*
X193046971Y-117765044D02*
G01*
X193061017Y-117799295D01*
X193056684Y-117833017D01*
X193035639Y-117845662D01*
X192989809Y-117852485D01*
X192959599Y-117851287D01*
X192947138Y-117839626D01*
X192966155Y-117805511D01*
X192991795Y-117773201D01*
X193019625Y-117751110D01*
X193023617Y-117750316D01*
X193046971Y-117765044D01*
G37*
G36*
X193359817Y-117715976D02*
G01*
X193379689Y-117748121D01*
X193383905Y-117777155D01*
X193365095Y-117812032D01*
X193351724Y-117820236D01*
X193327369Y-117828465D01*
X193299234Y-117819167D01*
X193251462Y-117789146D01*
X193248795Y-117787384D01*
X193214890Y-117762043D01*
X193210679Y-117745168D01*
X193240290Y-117731340D01*
X193307854Y-117715139D01*
X193321009Y-117712600D01*
X193359817Y-117715976D01*
G37*
G36*
X192553504Y-117767608D02*
G01*
X192575776Y-117785500D01*
X192562145Y-117816821D01*
X192554845Y-117823148D01*
X192525250Y-117828460D01*
X192512216Y-117798989D01*
X192515944Y-117784020D01*
X192544313Y-117766891D01*
X192553504Y-117767608D01*
G37*
G36*
X192686880Y-117728106D02*
G01*
X192704802Y-117745492D01*
X192696777Y-117757930D01*
X192662005Y-117766891D01*
X192637130Y-117762878D01*
X192619208Y-117745492D01*
X192627233Y-117733055D01*
X192662005Y-117724094D01*
X192686880Y-117728106D01*
G37*
G36*
X194138500Y-117713395D02*
G01*
X194127801Y-117724094D01*
X194117102Y-117713395D01*
X194127801Y-117702695D01*
X194138500Y-117713395D01*
G37*
G36*
X193024496Y-117604937D02*
G01*
X193026603Y-117626022D01*
X192992439Y-117657216D01*
X192974398Y-117665983D01*
X192914994Y-117680678D01*
X192848413Y-117684704D01*
X192790814Y-117677870D01*
X192758351Y-117659984D01*
X192763718Y-117650189D01*
X192796278Y-117636548D01*
X192842894Y-117625504D01*
X192887265Y-117620672D01*
X192913088Y-117625668D01*
X192927907Y-117628121D01*
X192964840Y-117615359D01*
X192992643Y-117603857D01*
X193024496Y-117604937D01*
G37*
G36*
X194291760Y-117600888D02*
G01*
X194303755Y-117637841D01*
X194300976Y-117660782D01*
X194280754Y-117668851D01*
X194266880Y-117657385D01*
X194254664Y-117619003D01*
X194256421Y-117603381D01*
X194271615Y-117587726D01*
X194291760Y-117600888D01*
G37*
G36*
X193102844Y-117618086D02*
G01*
X193122072Y-117638500D01*
X193125416Y-117646789D01*
X193112636Y-117659898D01*
X193106425Y-117659076D01*
X193089975Y-117638500D01*
X193090220Y-117633657D01*
X193099411Y-117617101D01*
X193102844Y-117618086D01*
G37*
G36*
X193658657Y-117532854D02*
G01*
X193686672Y-117567034D01*
X193678583Y-117589120D01*
X193635125Y-117590368D01*
X193596711Y-117588458D01*
X193568935Y-117599757D01*
X193567633Y-117601689D01*
X193537457Y-117614506D01*
X193501226Y-117602170D01*
X193479671Y-117571292D01*
X193483719Y-117554102D01*
X193515580Y-117531525D01*
X193565480Y-117518284D01*
X193618234Y-117517640D01*
X193658657Y-117532854D01*
G37*
G36*
X192672489Y-117595354D02*
G01*
X192674608Y-117606573D01*
X192652569Y-117617101D01*
X192641765Y-117616683D01*
X192620154Y-117606575D01*
X192639128Y-117585918D01*
X192646844Y-117583010D01*
X192672489Y-117595354D01*
G37*
G36*
X193158340Y-117535911D02*
G01*
X193175569Y-117565388D01*
X193171986Y-117581486D01*
X193150158Y-117590799D01*
X193121991Y-117569647D01*
X193118254Y-117543981D01*
X193141688Y-117531508D01*
X193158340Y-117535911D01*
G37*
G36*
X192768997Y-117585004D02*
G01*
X192758298Y-117595703D01*
X192747599Y-117585004D01*
X192758298Y-117574304D01*
X192768997Y-117585004D01*
G37*
G36*
X194331087Y-117563605D02*
G01*
X194320388Y-117574304D01*
X194309688Y-117563605D01*
X194320388Y-117552906D01*
X194331087Y-117563605D01*
G37*
G36*
X193906310Y-117494993D02*
G01*
X193924516Y-117523098D01*
X193919277Y-117542510D01*
X193890668Y-117544496D01*
X193873032Y-117538566D01*
X193837172Y-117531508D01*
X193832523Y-117530898D01*
X193817523Y-117510109D01*
X193830805Y-117496035D01*
X193871019Y-117488711D01*
X193906310Y-117494993D01*
G37*
G36*
X194309688Y-117488711D02*
G01*
X194308144Y-117500039D01*
X194295423Y-117502976D01*
X194292862Y-117499840D01*
X194295423Y-117474445D01*
X194301859Y-117471097D01*
X194309688Y-117488711D01*
G37*
G36*
X194235210Y-117434902D02*
G01*
X194257106Y-117469236D01*
X194253409Y-117487031D01*
X194222713Y-117500938D01*
X194199782Y-117496599D01*
X194203696Y-117476807D01*
X194210876Y-117464451D01*
X194207860Y-117435666D01*
X194204027Y-117428309D01*
X194222225Y-117428095D01*
X194235210Y-117434902D01*
G37*
G36*
X193412476Y-117438878D02*
G01*
X193422606Y-117453717D01*
X193422804Y-117486846D01*
X193416998Y-117494522D01*
X193389554Y-117510109D01*
X193378148Y-117508430D01*
X193358621Y-117484828D01*
X193368676Y-117445071D01*
X193386260Y-117426889D01*
X193412476Y-117438878D01*
G37*
G36*
X193068576Y-117478011D02*
G01*
X193057877Y-117488711D01*
X193047178Y-117478011D01*
X193057877Y-117467312D01*
X193068576Y-117478011D01*
G37*
G36*
X192861986Y-117306339D02*
G01*
X192867841Y-117345176D01*
X192861570Y-117378820D01*
X192845160Y-117422463D01*
X192839558Y-117437805D01*
X192854135Y-117467030D01*
X192857922Y-117478940D01*
X192823080Y-117483361D01*
X192814637Y-117483068D01*
X192768426Y-117467125D01*
X192749801Y-117434846D01*
X192766156Y-117397399D01*
X192777696Y-117381183D01*
X192790396Y-117334641D01*
X192796718Y-117312030D01*
X192831733Y-117296124D01*
X192861986Y-117306339D01*
G37*
G36*
X192989508Y-117360324D02*
G01*
X193017261Y-117389166D01*
X193016349Y-117422462D01*
X192998568Y-117439943D01*
X192957399Y-117440533D01*
X192909841Y-117405055D01*
X192890134Y-117381776D01*
X192887671Y-117362893D01*
X192919610Y-117349359D01*
X192946811Y-117346305D01*
X192989508Y-117360324D01*
G37*
G36*
X193603538Y-117380455D02*
G01*
X193602716Y-117386666D01*
X193582140Y-117403117D01*
X193577297Y-117402871D01*
X193560741Y-117393680D01*
X193561726Y-117390248D01*
X193582140Y-117371019D01*
X193590429Y-117367675D01*
X193603538Y-117380455D01*
G37*
G36*
X193988711Y-117360320D02*
G01*
X193987167Y-117371648D01*
X193974445Y-117374585D01*
X193971884Y-117371449D01*
X193974445Y-117346054D01*
X193980882Y-117342706D01*
X193988711Y-117360320D01*
G37*
G36*
X193710531Y-117371019D02*
G01*
X193699832Y-117381718D01*
X193689132Y-117371019D01*
X193699832Y-117360320D01*
X193710531Y-117371019D01*
G37*
G36*
X193915053Y-117297087D02*
G01*
X193935215Y-117317523D01*
X193939201Y-117325099D01*
X193937741Y-117338921D01*
X193933978Y-117337958D01*
X193913816Y-117317523D01*
X193909831Y-117309946D01*
X193911291Y-117296124D01*
X193915053Y-117297087D01*
G37*
G36*
X193850857Y-117297087D02*
G01*
X193871019Y-117317523D01*
X193875005Y-117325099D01*
X193873545Y-117338921D01*
X193869783Y-117337958D01*
X193849621Y-117317523D01*
X193845635Y-117309946D01*
X193847095Y-117296124D01*
X193850857Y-117297087D01*
G37*
G36*
X193710531Y-117285425D02*
G01*
X193699832Y-117296124D01*
X193689132Y-117285425D01*
X193699832Y-117274726D01*
X193710531Y-117285425D01*
G37*
G36*
X193667734Y-117285425D02*
G01*
X193657035Y-117296124D01*
X193646335Y-117285425D01*
X193657035Y-117274726D01*
X193667734Y-117285425D01*
G37*
G36*
X191174086Y-116675568D02*
G01*
X191165565Y-116697620D01*
X191134547Y-116756375D01*
X191093412Y-116820008D01*
X191074570Y-116845394D01*
X191032353Y-116893504D01*
X191003566Y-116912927D01*
X190992923Y-116899915D01*
X190993507Y-116897923D01*
X191010043Y-116870516D01*
X191044737Y-116819990D01*
X191091368Y-116755475D01*
X191106023Y-116735896D01*
X191147756Y-116684560D01*
X191171364Y-116663562D01*
X191174086Y-116675568D01*
G37*
G36*
X191066059Y-110160180D02*
G01*
X191077102Y-110232668D01*
X191087153Y-110346967D01*
X191089658Y-110381022D01*
X191106057Y-110545997D01*
X191130319Y-110735550D01*
X191160330Y-110936224D01*
X191193973Y-111134559D01*
X191229135Y-111317100D01*
X191263700Y-111470387D01*
X191266301Y-111501249D01*
X191253560Y-111518534D01*
X191242905Y-111509403D01*
X191224652Y-111468613D01*
X191207770Y-111406192D01*
X191206664Y-111400925D01*
X191156816Y-111157974D01*
X191117020Y-110951062D01*
X191086428Y-110774952D01*
X191064192Y-110624407D01*
X191049464Y-110494190D01*
X191041395Y-110379064D01*
X191038295Y-110269866D01*
X191040142Y-110184346D01*
X191046262Y-110136943D01*
X191055340Y-110128580D01*
X191066059Y-110160180D01*
G37*
G36*
X187281057Y-108183001D02*
G01*
X187304334Y-108209310D01*
X187301469Y-108244915D01*
X187295591Y-108251668D01*
X187268109Y-108254351D01*
X187250931Y-108228426D01*
X187250868Y-108196146D01*
X187268324Y-108180370D01*
X187281057Y-108183001D01*
G37*
G36*
X189801754Y-107316900D02*
G01*
X189890710Y-107321517D01*
X189964083Y-107330115D01*
X190032076Y-107343637D01*
X190104886Y-107363027D01*
X190164240Y-107381823D01*
X190287000Y-107427586D01*
X190424127Y-107485261D01*
X190564642Y-107549722D01*
X190697561Y-107615844D01*
X190811904Y-107678502D01*
X190896688Y-107732571D01*
X190931117Y-107758307D01*
X191011244Y-107823646D01*
X191086071Y-107891264D01*
X191148413Y-107954104D01*
X191191087Y-108005112D01*
X191206908Y-108037232D01*
X191206548Y-108040421D01*
X191182637Y-108068331D01*
X191128855Y-108099213D01*
X191055819Y-108127950D01*
X190974145Y-108149425D01*
X190901870Y-108163571D01*
X190916765Y-108004620D01*
X190919379Y-107974864D01*
X190923103Y-107895365D01*
X190917993Y-107847286D01*
X190903446Y-107822381D01*
X190894546Y-107815864D01*
X190844839Y-107786409D01*
X190767284Y-107745299D01*
X190670417Y-107696625D01*
X190562774Y-107644477D01*
X190452891Y-107592946D01*
X190349307Y-107546123D01*
X190260556Y-107508099D01*
X190195176Y-107482965D01*
X190100521Y-107457123D01*
X189962956Y-107431605D01*
X189806828Y-107411752D01*
X189645026Y-107398853D01*
X189490434Y-107394196D01*
X189355939Y-107399069D01*
X189242799Y-107412171D01*
X189043847Y-107447843D01*
X188827857Y-107499178D01*
X188607105Y-107562833D01*
X188393867Y-107635465D01*
X188200421Y-107713731D01*
X188117297Y-107752755D01*
X187850533Y-107905003D01*
X187583385Y-108098861D01*
X187570825Y-108108873D01*
X187509095Y-108156045D01*
X187461427Y-108189229D01*
X187437268Y-108201769D01*
X187425707Y-108189457D01*
X187419377Y-108150114D01*
X187420873Y-108135009D01*
X187437849Y-108102402D01*
X187479532Y-108066394D01*
X187553117Y-108019983D01*
X187595866Y-107994610D01*
X187687128Y-107939446D01*
X187790277Y-107876208D01*
X187890143Y-107814159D01*
X187955144Y-107773907D01*
X188121608Y-107676617D01*
X188275436Y-107597580D01*
X188427681Y-107532368D01*
X188589392Y-107476554D01*
X188771621Y-107425713D01*
X188985420Y-107375416D01*
X189015037Y-107368951D01*
X189126041Y-107346808D01*
X189225626Y-107331730D01*
X189327337Y-107322376D01*
X189444721Y-107317407D01*
X189591323Y-107315483D01*
X189687016Y-107315318D01*
X189801754Y-107316900D01*
G37*
D11*
%TO.C,RV1*%
X146081001Y-93507400D02*
G75*
G02*
X145318999Y-93507400I-381001J0D01*
G01*
X145318999Y-93507400D02*
G75*
G02*
X146081001Y-93507400I381001J0D01*
G01*
%TO.C,RV2*%
X172781001Y-76692601D02*
G75*
G02*
X172018999Y-76692601I-381001J0D01*
G01*
X172018999Y-76692601D02*
G75*
G02*
X172781001Y-76692601I381001J0D01*
G01*
%TD*%
M02*
