%TF.GenerationSoftware,KiCad,Pcbnew,9.0.0*%
%TF.CreationDate,2025-08-10T21:35:17+12:00*%
%TF.ProjectId,current_gen_class_ab,63757272-656e-4745-9f67-656e5f636c61,rev?*%
%TF.SameCoordinates,Original*%
%TF.FileFunction,Paste,Top*%
%TF.FilePolarity,Positive*%
%FSLAX46Y46*%
G04 Gerber Fmt 4.6, Leading zero omitted, Abs format (unit mm)*
G04 Created by KiCad (PCBNEW 9.0.0) date 2025-08-10 21:35:17*
%MOMM*%
%LPD*%
G01*
G04 APERTURE LIST*
G04 Aperture macros list*
%AMRoundRect*
0 Rectangle with rounded corners*
0 $1 Rounding radius*
0 $2 $3 $4 $5 $6 $7 $8 $9 X,Y pos of 4 corners*
0 Add a 4 corners polygon primitive as box body*
4,1,4,$2,$3,$4,$5,$6,$7,$8,$9,$2,$3,0*
0 Add four circle primitives for the rounded corners*
1,1,$1+$1,$2,$3*
1,1,$1+$1,$4,$5*
1,1,$1+$1,$6,$7*
1,1,$1+$1,$8,$9*
0 Add four rect primitives between the rounded corners*
20,1,$1+$1,$2,$3,$4,$5,0*
20,1,$1+$1,$4,$5,$6,$7,0*
20,1,$1+$1,$6,$7,$8,$9,0*
20,1,$1+$1,$8,$9,$2,$3,0*%
G04 Aperture macros list end*
%ADD10RoundRect,0.250000X-0.250000X-0.475000X0.250000X-0.475000X0.250000X0.475000X-0.250000X0.475000X0*%
%ADD11RoundRect,0.200000X-0.200000X-0.275000X0.200000X-0.275000X0.200000X0.275000X-0.200000X0.275000X0*%
%ADD12RoundRect,0.200000X0.200000X0.275000X-0.200000X0.275000X-0.200000X-0.275000X0.200000X-0.275000X0*%
%ADD13RoundRect,0.240000X-0.240000X-0.385000X0.240000X-0.385000X0.240000X0.385000X-0.240000X0.385000X0*%
%ADD14RoundRect,0.150000X-0.825000X-0.150000X0.825000X-0.150000X0.825000X0.150000X-0.825000X0.150000X0*%
%ADD15RoundRect,0.225000X-0.225000X-0.375000X0.225000X-0.375000X0.225000X0.375000X-0.225000X0.375000X0*%
%ADD16RoundRect,0.200000X0.275000X-0.200000X0.275000X0.200000X-0.275000X0.200000X-0.275000X-0.200000X0*%
%ADD17RoundRect,0.200000X0.305552X-0.149208X0.236092X0.244715X-0.305552X0.149208X-0.236092X-0.244715X0*%
%ADD18RoundRect,0.218750X0.256250X-0.218750X0.256250X0.218750X-0.256250X0.218750X-0.256250X-0.218750X0*%
%ADD19RoundRect,0.250000X0.475000X-0.250000X0.475000X0.250000X-0.475000X0.250000X-0.475000X-0.250000X0*%
%ADD20RoundRect,0.218750X-0.218750X-0.256250X0.218750X-0.256250X0.218750X0.256250X-0.218750X0.256250X0*%
%ADD21RoundRect,0.218750X-0.256250X0.218750X-0.256250X-0.218750X0.256250X-0.218750X0.256250X0.218750X0*%
%ADD22RoundRect,0.150000X-0.150000X0.587500X-0.150000X-0.587500X0.150000X-0.587500X0.150000X0.587500X0*%
%ADD23RoundRect,0.200000X-0.275000X0.200000X-0.275000X-0.200000X0.275000X-0.200000X0.275000X0.200000X0*%
G04 APERTURE END LIST*
D10*
%TO.C,C4*%
X158050000Y-100400000D03*
X159950000Y-100400000D03*
%TD*%
D11*
%TO.C,R29*%
X187762500Y-120000000D03*
X189412500Y-120000000D03*
%TD*%
D12*
%TO.C,R9*%
X154275000Y-110700000D03*
X152625000Y-110700000D03*
%TD*%
D11*
%TO.C,R12*%
X152625000Y-109050000D03*
X154275000Y-109050000D03*
%TD*%
D10*
%TO.C,C2*%
X158020000Y-106000000D03*
X159920000Y-106000000D03*
%TD*%
D13*
%TO.C,U1*%
X158430000Y-95750000D03*
X158430000Y-97250000D03*
X159570000Y-95750000D03*
X159570000Y-97250000D03*
D14*
X156525000Y-94595000D03*
X156525000Y-95865000D03*
X156525000Y-97135000D03*
X156525000Y-98405000D03*
X161475000Y-98405000D03*
X161475000Y-97135000D03*
X161475000Y-95865000D03*
X161475000Y-94595000D03*
%TD*%
D11*
%TO.C,R21*%
X191750000Y-109130000D03*
X193400000Y-109130000D03*
%TD*%
%TO.C,R20*%
X123375000Y-109200000D03*
X125025000Y-109200000D03*
%TD*%
D10*
%TO.C,C5*%
X158050000Y-92555000D03*
X159950000Y-92555000D03*
%TD*%
D11*
%TO.C,R27*%
X152625000Y-112350000D03*
X154275000Y-112350000D03*
%TD*%
D15*
%TO.C,D1*%
X190150000Y-111400000D03*
X193450000Y-111400000D03*
%TD*%
D16*
%TO.C,R22*%
X193800000Y-98425000D03*
X193800000Y-96775000D03*
%TD*%
D17*
%TO.C,R23*%
X123743260Y-98637467D03*
X123456740Y-97012535D03*
%TD*%
D18*
%TO.C,D5*%
X123600000Y-101775002D03*
X123600000Y-100200000D03*
%TD*%
D12*
%TO.C,R11*%
X165625000Y-99000000D03*
X163975000Y-99000000D03*
%TD*%
D19*
%TO.C,C1*%
X159000000Y-78449999D03*
X159000000Y-76550001D03*
%TD*%
D11*
%TO.C,R10*%
X163675000Y-115500000D03*
X165325000Y-115500000D03*
%TD*%
%TO.C,R15*%
X163525000Y-108905000D03*
X165175000Y-108905000D03*
%TD*%
%TO.C,R25*%
X163525000Y-110550000D03*
X165175000Y-110550000D03*
%TD*%
D13*
%TO.C,U2*%
X158330000Y-109250000D03*
X158330000Y-110750000D03*
X159470000Y-109250000D03*
X159470000Y-110750000D03*
D14*
X156425000Y-108095000D03*
X156425000Y-109365000D03*
X156425000Y-110635000D03*
X156425000Y-111905000D03*
X161375000Y-111905000D03*
X161375000Y-110635000D03*
X161375000Y-109365000D03*
X161375000Y-108095000D03*
%TD*%
D11*
%TO.C,R7*%
X163975000Y-97200000D03*
X165625000Y-97200000D03*
%TD*%
D20*
%TO.C,D6*%
X131812500Y-120000000D03*
X133387500Y-120000000D03*
%TD*%
D12*
%TO.C,R4*%
X154035000Y-97155000D03*
X152385000Y-97155000D03*
%TD*%
D10*
%TO.C,C3*%
X158050001Y-113900000D03*
X159949999Y-113900000D03*
%TD*%
D16*
%TO.C,R5*%
X148000000Y-95825000D03*
X148000000Y-94175000D03*
%TD*%
D11*
%TO.C,R2*%
X154675000Y-85500000D03*
X156325000Y-85500000D03*
%TD*%
D12*
%TO.C,R14*%
X154280000Y-107400000D03*
X152630000Y-107400000D03*
%TD*%
D11*
%TO.C,R24*%
X163525000Y-112200000D03*
X165175000Y-112200000D03*
%TD*%
D12*
%TO.C,R13*%
X165175000Y-113850000D03*
X163525000Y-113850000D03*
%TD*%
%TO.C,R28*%
X130200000Y-120000000D03*
X128550000Y-120000000D03*
%TD*%
D15*
%TO.C,D2*%
X123350000Y-111200000D03*
X126650000Y-111200000D03*
%TD*%
D21*
%TO.C,D4*%
X193800000Y-100012499D03*
X193800000Y-101587501D03*
%TD*%
D11*
%TO.C,R3*%
X161675000Y-85500000D03*
X163325000Y-85500000D03*
%TD*%
D20*
%TO.C,D7*%
X184425000Y-120000000D03*
X186000000Y-120000000D03*
%TD*%
D12*
%TO.C,R26*%
X154280000Y-114000000D03*
X152630000Y-114000000D03*
%TD*%
D22*
%TO.C,D3*%
X159950000Y-85562500D03*
X158050000Y-85562500D03*
X159000000Y-87437501D03*
%TD*%
D23*
%TO.C,R6*%
X170200000Y-103775000D03*
X170200000Y-105425000D03*
%TD*%
D11*
%TO.C,R8*%
X152350000Y-99000000D03*
X154000000Y-99000000D03*
%TD*%
M02*
